/* XPM */
static char *_d87e6ca160845c5ca074d8793b97497ZlCg2sWrDTNGhxcv[] = {
/* columns rows colors chars-per-pixel */
"60 60 135 2 ",
"   c None",
".  c black",
"X  c #010101",
"o  c #020202",
"O  c gray1",
"+  c #040404",
"@  c gray2",
"#  c #060606",
"$  c #070707",
"%  c gray3",
"&  c #090909",
"*  c #0B0B0B",
"=  c #0C0C0C",
"-  c gray5",
";  c #0E0E0E",
":  c gray6",
">  c #111111",
",  c gray7",
"<  c #131313",
"1  c #161616",
"2  c gray9",
"3  c gray10",
"4  c #1B1B1B",
"5  c gray11",
"6  c #1D1D1D",
"7  c #1E1E1E",
"8  c gray12",
"9  c gray13",
"0  c #222222",
"q  c gray14",
"w  c gray15",
"e  c gray17",
"r  c #2C2C2C",
"t  c #2D2D2D",
"y  c #2F2F2F",
"u  c gray19",
"i  c #313131",
"p  c #323232",
"a  c #373737",
"s  c gray22",
"d  c #393939",
"f  c #3A3A3A",
"g  c gray23",
"h  c #3C3C3C",
"j  c #3E3E3E",
"k  c #3F3F3F",
"l  c #414141",
"z  c #464646",
"x  c gray28",
"c  c #484848",
"v  c gray29",
"b  c #505050",
"n  c gray32",
"m  c gray33",
"M  c #555555",
"N  c #565656",
"B  c #585858",
"V  c #5A5A5A",
"C  c #5D5D5D",
"Z  c #606060",
"A  c #686868",
"S  c DimGray",
"D  c #6A6A6A",
"F  c gray42",
"G  c #6D6D6D",
"H  c #6F6F6F",
"J  c gray45",
"K  c #747474",
"L  c gray46",
"P  c #818181",
"I  c #848484",
"U  c gray53",
"Y  c #8E8E8E",
"T  c gray56",
"R  c gray57",
"E  c #939393",
"W  c gray59",
"Q  c #9D9D9D",
"!  c #A0A0A0",
"~  c #A4A4A4",
"^  c #A5A5A5",
"/  c gray67",
"(  c #ACACAC",
")  c #AEAEAE",
"_  c #AFAFAF",
"`  c #B2B2B2",
"'  c gray70",
"]  c #B4B4B4",
"[  c #B6B6B6",
"{  c #B7B7B7",
"}  c #BBBBBB",
"|  c #BCBCBC",
" . c gray74",
".. c #C0C0C0",
"X. c gray76",
"o. c #C3C3C3",
"O. c #C5C5C5",
"+. c #C8C8C8",
"@. c #CACACA",
"#. c #CBCBCB",
"$. c gray80",
"%. c #CDCDCD",
"&. c #CECECE",
"*. c #D0D0D0",
"=. c gray82",
"-. c #D2D2D2",
";. c LightGray",
":. c gray83",
">. c #DDDDDD",
",. c gray87",
"<. c #DFDFDF",
"1. c gray88",
"2. c gray89",
"3. c gray90",
"4. c gray91",
"5. c #E9E9E9",
"6. c #EAEAEA",
"7. c gray92",
"8. c gray93",
"9. c #EEEEEE",
"0. c #EFEFEF",
"q. c gray94",
"w. c gray95",
"e. c #F3F3F3",
"r. c #F4F4F4",
"t. c gray96",
"y. c #F6F6F6",
"u. c #F8F8F8",
"i. c #F9F9F9",
"p. c gray98",
"a. c #FBFBFB",
"s. c gray99",
"d. c #FDFDFD",
"f. c #FEFEFE",
"g. c white",
/* pixels */
"                                                                                                                        ",
"                                                                                                                        ",
"                                                                                                                        ",
"                                                                                                                        ",
"                                                    . . . . . . . .                                                     ",
"                                                  . 9 f t f f t k 5 .                                                   ",
"                                              . = @ I >.X.>.>.X.>.I @ = .                                               ",
"                                            . < G Y } i.f.f.f.f.i.| Y A 2 .                                             ",
"                                          @ w u &.i.f.f.f.f.f.f.f.f.i.&.u w @                                           ",
"                                        . A X.&.t.f.f.f.f.f.f.f.f.f.f.t.+.X.A .                                         ",
"                                      . . K 8.f.f.f.f.f.f.f.f.f.f.f.f.f.f.8.K . .                                       ",
"                                      2 C { t.f.f.f.f.f.f.f.f.f.f.f.f.f.f.t.{ C 2                                       ",
"                                    . V :.f.f.f.f.f.f.f.f.f.f.f.f.f.f.f.f.f.f.:.V .                                     ",
"                                . . 5 A ;.f.f.f.f.f.f.f.f.f.f.f.f.f.f.f.f.f.f.;.A 4 . .                                 ",
"                              < m l E :.t.f.f.f.f.f.f.f.f.f.f.f.f.f.f.f.f.f.f.t.:.E k m 2                               ",
"                            . m +.;.8.f.f.f.f.f.f.f.f.f.f.f.f.f.f.f.f.f.f.f.f.f.f.8.;.+.m .                             ",
"                          . . V 2.f.f.f.f.f.f.f.f.f.f.f.f.f.f.f.f.f.f.f.f.f.f.f.f.f.f.3.V . .                           ",
"                        . = K O.t.f.f.f.f.f.f.f.f.f.f.f.f.f.f.f.f.f.f.f.f.f.f.f.f.f.f.t.O.K = .                         ",
"                      = f m +.f.f.f.f.f.f.f.f.f.f.f.f.f.f.f.f.f.f.f.f.f.f.f.f.f.f.f.f.f.f.+.m a =                       ",
"                    . v { | e.f.f.f.f.f.f.f.f.f.f.f.f.f.f.f.f.f.f.f.f.f.f.f.f.f.f.f.f.f.f.e.} } v .                     ",
"                    . Z f.f.f.f.f.f.f.f.f.f.f.f.f.f.f.f.f.f.f.f.f.f.f.f.f.f.f.f.f.f.f.f.f.f.f.i.Z .                     ",
"                  . 4 Q i.f.f.f.f.f.f.f.f.f.f.f.f.f.f.f.f.f.f.f.f.f.f.f.f.f.f.f.f.f.f.f.f.f.f.i.Q 4 .                   ",
"              . . . b 6.f.f.f.f.f.f.f.f.f.f.f.f.f.f.f.f.f.f.f.f.f.f.f.f.f.f.f.f.f.f.f.f.f.f.f.f.6.b . @ .               ",
"              . I { +.i.f.f.f.f.f.f.f.f.f.f.f.f.f.f.f.f.f.f.f.f.f.f.f.f.f.f.f.f.f.f.f.f.f.f.f.f.i.+.' I .               ",
"              @ ^ i.f.f.f.f.f.f.f.f.f.f.f.f.f.f.f.f.f.f.f.f.f.f.f.f.f.f.f.f.f.f.f.f.f.f.f.f.f.f.f.f.i.^ @               ",
"              . U 8.f.f.f.f.f.f.f.f.f.f.f.f.f.f.f.f.f.f.f.f.f.f.f.f.f.f.f.f.f.f.f.f.f.f.f.f.f.f.f.f.8.I .               ",
"              . ^ i.f.f.f.f.f.f.f.f.f.f.f.f.f.f.f.f.f.f.f.f.f.f.f.f.f.f.f.f.f.f.f.f.f.f.f.f.f.f.f.f.i.^ .               ",
"            . . / f.f.f.f.f.f.f.f.f.f.f.f.f.f.f.f.f.f.f.f.f.f.f.f.f.f.f.f.f.f.f.f.f.f.f.f.f.f.f.f.f.f.) . .             ",
"          @ V +.6.f.f.f.f.f.f.f.f.f.f.f.f.f.f.f.f.f.f.f.f.f.f.f.f.f.f.f.f.f.f.f.f.f.f.f.f.f.f.f.f.f.f.6.&.V @           ",
"          % A t.f.f.f.f.f.f.f.f.f.f.f.f.f.f.f.f.f.f.f.f.f.f.f.f.f.f.f.f.f.f.f.f.f.f.f.f.f.f.f.f.f.f.f.f.e.A @           ",
"        . < K 8.f.f.f.f.f.f.f.f.f.f.f.f.f.f.f.f.f.f.f.f.f.f.f.f.f.f.f.f.f.f.f.f.f.f.f.f.f.f.f.f.f.f.f.f.8.J < .         ",
"        . k >.f.f.f.f.f.f.f.f.f.f.f.f.f.f.f.f.f.f.f.f.f.f.f.f.f.f.f.f.f.f.f.f.f.f.f.f.f.f.f.f.f.f.f.f.f.f.>.k .         ",
"        . k 2.f.f.f.f.f.f.f.f.f.f.f.f.f.f.f.f.f.f.f.f.f.f.f.f.f.f.f.f.f.f.f.f.f.f.f.f.f.f.f.f.f.f.f.f.f.f.2.k .         ",
"        . a >.f.f.f.f.f.f.f.f.f.f.f.f.f.f.f.f.f.f.f.f.f.f.f.f.f.f.f.f.f.f.f.f.f.f.f.f.f.f.f.f.f.f.f.f.f.f.>.f .         ",
"        . f 3.f.f.f.f.f.f.f.f.f.f.f.f.f.f.f.f.f.f.f.f.f.f.f.f.f.f.f.f.f.f.f.f.f.f.f.f.f.f.f.f.f.f.f.f.f.f.2.f .         ",
"        . k ;.f.f.f.f.f.f.f.f.f.f.t.;.;.;.&.;.&.;.;.&.;.&.&.;.;.;.;.&.;.&.&.;.;.;.;.t.f.f.f.f.f.f.f.f.f.f.;.k .         ",
"        < ' i.f.f.f.f.f.f.f.f.f.f.' f u t t t t t t t u u t t u t t t u u t t u t k ' f.f.f.f.f.f.f.f.f.f.i.{ <         ",
"        = ) i.f.f.f.f.f.f.f.f.f.f.! 5 5 w w w w 9 w 9 w w w w 9 9 w 9 w w w w 9 5 5 Q f.f.f.f.f.f.f.f.f.f.t.) =         ",
"        . k 8.f.f.f.f.f.f.f.f.f.f.! 9 u k k k k l k k k k k k k l k k k k k k k u w ! f.f.f.f.f.f.f.f.f.f.e.k .         ",
"        . k 3.f.f.f.f.f.f.f.f.f.f.Q w u k k k k k k k k k k k k k k k k k k k k u 9 ! f.f.f.f.f.f.f.f.f.f.3.k .         ",
"        . l 2.f.f.f.f.f.f.f.f.f.f.! 9 u l l k k k k k k k k k k k k k k k k k k u 9 ! f.f.f.f.f.f.f.f.f.f.2.l .         ",
"        < } i.f.f.f.f.f.f.f.f.f.f.! 9 u k k k k k k k k k k k k k k k k k k k k u w ! f.f.f.f.f.f.f.f.f.f.i.} <         ",
"        @ E 6.f.f.f.f.f.f.f.f.f.f.! w u k k k k k k k k k k k k k k k k k k k k u w Q f.f.f.f.f.f.f.f.f.f.6.E @         ",
"        . z O.f.f.f.f.f.f.f.f.f.f.! 9 u k k k k k k k k k k k k k k k k k k k k u 9 ! f.f.f.f.f.f.f.f.f.f.O.z .         ",
"      . 5 ' e.f.f.f.f.f.f.f.f.f.f.! 9 u k k k k k k k k k k k k k k k k k k k k u w ! f.f.f.f.f.f.f.f.f.f.t.{ 5 .       ",
"      . 9 +.f.f.f.f.f.f.f.f.f.f.f.! w u k k k k k k k k k k k k k k k k k k k k u 9 ! f.f.f.f.f.f.f.f.f.f.f.+.5 .       ",
"        . ) f.f.f.f.f.f.f.f.f.f.f.! 9 u k k k k k k k k k k k k k k k k k k k k u 9 ! f.f.f.f.f.f.f.f.f.f.f./ @         ",
"      . 2 &.f.f.f.f.f.f.f.f.f.f.f.! 9 u k k k k k k k k k k k k k k k k k k k k u w ! f.f.f.f.f.f.f.f.f.f.f.&.2 .       ",
"        . J 8.f.f.f.f.f.f.f.f.f.f.! w u k k k k k k k k k k k k k k k k k k k k u w ! f.f.f.f.f.f.f.f.f.f.8.J .         ",
"        . f 3.f.f.f.f.f.f.f.f.f.f.! 9 u k k k k k k k k k k k k k k k k k k k k u 9 ! f.f.f.f.f.f.f.f.f.f.3.f .         ",
"        . f &.8.f.f.f.f.f.f.f.f.f.! 9 u k k k k k k k k k k k k k k k k k k k k u w Q f.f.f.f.f.f.f.f.f.e.+.f .         ",
"          . v | f.f.f.f.f.f.f.f.f.! w u k k k k k k k k k k k k k k k k k k k k u 9 ! f.f.f.f.f.f.f.f.f.| v .           ",
"          . u { e.3.i.f.f.f.i.i.f.! w u k k k k k k k k k k k k k k k k k k k k u 9 ! f.i.i.f.f.f.f.3.e.' u .           ",
"            < b A A >.3.8.X.J E 6.W 5 u k k k k k k k f f k k k f k k k k k k k u 5 W 8.Y K X.8.3.>.A A b <             ",
"              @ % % l f l t % 9   t . = < < < = < < < < < < < < < < < < < < < = = @ e   9 = t l f l % % @               ",
"                    . . . .         . . . . . . . . . . . . . . . . . . . . . . . .         . . . .                     ",
"                                                                                                                        ",
"                                                                                                                        ",
"                                                                                                                        ",
"                                                                                                                        "
};
