/* XPM */
static char *_9e83ac65c754dc498a8e05e4cbf6530r2QMPrBZDbuatycW[] = {
/* columns rows colors chars-per-pixel */
"60 60 55 1 ",
"  c black",
". c #040404",
"X c #090909",
"o c gray5",
"O c #131313",
"+ c gray10",
"@ c #252525",
"# c gray17",
"$ c #313131",
"% c #343434",
"& c #464646",
"* c #4C4C4C",
"= c #4E4E4E",
"- c #5A5A5A",
"; c #5F5F5F",
": c #626262",
"> c gray40",
", c gray42",
"< c #6F6F6F",
"1 c #717171",
"2 c gray46",
"3 c #7B7B7B",
"4 c gray49",
"5 c #838383",
"6 c #848484",
"7 c #888888",
"8 c gray55",
"9 c #929292",
"0 c gray58",
"q c #9A9A9A",
"w c #9D9D9D",
"e c #A0A0A0",
"r c #A7A7A7",
"t c #A9A9A9",
"y c #AEAEAE",
"u c #B2B2B2",
"i c #B7B7B7",
"p c gray72",
"a c #BCBCBC",
"s c #C3C3C3",
"d c #C6C6C6",
"f c #C8C8C8",
"g c #CECECE",
"h c gray82",
"j c gray83",
"k c #D8D8D8",
"l c gray87",
"z c gray89",
"x c #E7E7E7",
"c c #EAEAEA",
"v c #EFEFEF",
"b c gray95",
"n c gray97",
"m c #FBFBFB",
"M c white",
/* pixels */
"MMMMMMMMMMMMMMMMMMMMMMMMMMMMMMMMMMMMMMMMMMMMMMMMMMMMMMMMMMMM",
"MMMMMMMMMMMMMMMMMMMMMMMMMMMMMMMMMMMMMMMMMMMMMMMMMMMMMMMMMMMM",
"MMMMMMMMMMMMMMMMMMMMMMMMMMMMMMMMMMMMMMMMMMMMMMMMMMMMMMMMMMMM",
"MMMMMMMMMMMMMMMMMMMMMMMMMMMMMMMMMMMMMMMMMMMMMMMMMMMMMMMMMMMM",
"MMMMMMMMMMMMMMMMMMMMMMMMMMMMMMMMMMMMMMMMMMMMMMMMMMMMMMMMMMMM",
"MMMMMMMMMMMMMMMMMMMMMMMMMMMMMMMMMMMMMMMMMMMMMMMMMMMMMMMMMMMM",
"MMMMMMMMMMMMMMMMMMMMMMMMMMMMMMMMMMMMMMMMMMMMMMMMMMMMMMMMMMMM",
"MMMMMMMMMMMMMMMMMMMMMMMMMMMMMMMMMMMMMMMMMMMMMMMMMMMMMMMMMMMM",
"MMMMMMMMMMMMMMMMMMMMMMMMMMMMMMMMMMMMMMMMMMMMMMMMMMMMMMMMMMMM",
"MMMMMMMMMMMMMMMMMMMMMMMMMMMMMMMMMMMMMMMMMMMMMMMMMMMMMMMMMMMM",
"MMMMMMMMMMMMMMMMMMMMMMMMMMMMMMMmMmMMMMMMMMMMMMMMMMMMMMMMMMMM",
"MMMMMMMMMMMMMMMMMMMMMMMMMMMMMMbbjnmMMMMMMMMMMMMMMMMMMMMMMMMM",
"MMMMMMMMMMMMMMMMMMMMMMMMmMndw87,w>2dxMMMMMMMMMMMMMMMMMMMMMMM",
"MMMMMMMMMMMMMMMMMMMMMMmvhe18xlMnmbbt9wzmmMMMMMMMMMMMMMMMMMMM",
"MMMMMMMMMMMMMMMMMMMMMMc4asnnMmMMmMMmnj3hmmMMMMMMMMMMMMMMMMMM",
"MMMMMMMMMMMMMMMMMMmmbi6dMMMMMMMMMMMMMMjr0mMmMMMMMMMMMMMMMMMM",
"MMMMMMMMMMMMMMMMMMMc15nMMMMMMMMMMMMMMMMm,rnMMMMMMMMMMMMMMMMM",
"MMMMMMMMMMMMMMMMMMl2kmmmMMMMMMMMMMMMmmMmvysmmMMMMMMMMMMMMMMM",
"MMMMMMMMMMMMMMMmml4bmMMMMMMMMMMMMMMMMMMMMh2pmMMMMMMMMMMMMMMM",
"MMMMMMMMMMMMMMMMj5jMmMMMMMMMMMMMMMMMMMMMMMm4vmMmMMMMMMMMMMMM",
"MMMMMMMMMMMMMMMd2lMmmMMMMMMMMMMMMMMMMMMmmMMw7nMMMMMMMMMMMMMM",
"MMMMMMMMMMMMmMx>bMMMMMMMMMMMMMMMMMMMMMMMMMMmudMmMMMMMMMMMMMM",
"MMMMMMMMMMMMMn4hmMMMMMMMMMMMMMMMMMMMMMMMMMmMc5hmMMMMMMMMMMMM",
"MMMMMMMMMMMMMe9nMmMnbbmmMMMMMMMMMmmbvnMMMMMmmxqMMMMMMMMMMMMM",
"MMMMMMMMMMmMx,vMMMMj,,13vmMMMMMMm51,<pMMMMMMMc1hMMMMMMMMMMMM",
"MMMMMMMMMmMmtgMMMMmz4332vMmMMMMMm5234hmMMMMMMMb2mMMMMMMMMMMM",
"MMMMMMMMMMMl6vmMMMmmMMMmmMmMMMMMMMMMMMMMMMMMMMn<bmMMMMMMMMMM",
"MMMMMMMMMmn0pMMMMMMMMMmMMMMMMmMMMmmMMMMMMMMMMMmawMmMMMMMMMMM",
"MMMMMMMMMMl8nMmMMMMMMmmMMMMMmMMMMmMmMMMMMMMMMmMM<bmMMMMMMMMM",
"MMMMMMMMMn3hmMMMMMMMMmmlMMMMzmMMMlnMMMMMMMMMMMmmf5mMMMMMMMMM",
"MMMMMMMMMl5MMMMMMMnhvMm7gnna:ycvf7nMMh6icMMMMMMMm3cMMMMMMMMM",
"MMMMMMMMMifmMMMmmk44dMmbw22unf63ubMMMhtfymMMMMMMMetMMMMMMMMM",
"MMMMMMMMM0kMMMMmbyc6vMMMMmmmMMMMmMMmmmwkMMMMMMMMmn2MMMMMMMMM",
"MMMMMMmMm<cMMMMMMMxpmmbzkkjjkklllzxznmncmMMMMMMMMv;nmMMMMMMM",
"MMMMMMMmz6mmMMMMMMmmMM5OX.   .XXo+++8mMmMmMMMMMMMmidMmMMMMMM",
"MMMMMMMMl6mMMMMMMMMMmb&             #vMMMmMMMMMMmMugMmMMMMMM",
"MMMMMMmmdpmMMMMMMMMMMl+.             hMMMMMMMMMMmm7xMMMMMMMM",
"MMMMMMMMv>nmMMMMMMMMMd               tMMMMMMMMMMmMujMMMMMMMM",
"MMMMMMMMm3mMMMMMMMMMMr               ,MMMMMMMMMMml2vmMMMMMMM",
"MMMMMMMMM9jMMMMMMMMmM<.              %cMMMMMMmMmMpgMMMMMMMMM",
"MMMMMMMMMismMMMMMMmMn$               .hMMMMMMmmmv6xMMMMMMMMM",
"MMMMMMMMMv8hMMMMMMMMlo                yMMMMMMMmt2fmMMMMMMMMM",
"MMMMMMMMMMc1jmMMmMmMs                 <mMmMMMdw9nMMMMMMMMMMM",
"MMMMMMMMMmmz1<cnmMmMw                .@bmncwu5znMMMMMMMMMMMM",
"MMMMMMMMMMmmvf17flgv,                 .sd4;qpbMmMMMMMMMMMMMM",
"MMMMMMMMMMMMMmp;38@44O           .   o24,ba47MMMMMMMMMMMMMMM",
"MMMMMMMMMMMMMzwjj5dnmcdr4>;==*==-,8ydxmni7jf8MMMMMMMMMMMMMMM",
"MMMMMMMMMMMMmn4e4lmMMMMMMMMmmnnmMMMMMmMMmxuubMMMMMMMMMMMMMMM",
"MMMMMMMMMMMMMMvjnMMMMMMMMMMMMMMMMMMMMMMMMMMMMMMMMMMMMMMMMMMM",
"MMMMMMMMMMMMmMMmMMMMMMMMMMMMMMMMMMMMMMMMMMMMMMMMMMMMMMMMMMMM",
"MMMMMMMMMMMMMmMMMmMMMMMMMMMMMMMMMMMMMMMMMMMMMMMMMMMMMMMMMMMM",
"MMMMMMMMMMMMMMMMMMMMMMMMMMMMMMMMMMMMMMMMMMMMMMMMMMMMMMMMMMMM",
"MMMMMMMMMMMMMMMMMMMMMMMMMMMMMMMMMMMMMMMMMMMMMMMMMMMMMMMMMMMM",
"MMMMMMMMMMMMMMMMMMMMMMMMMMMMMMMMMMMMMMMMMMMMMMMMMMMMMMMMMMMM",
"MMMMMMMMMMMMMMMMMMMMMMMMMMMMMMMMMMMMMMMMMMMMMMMMMMMMMMMMMMMM",
"MMMMMMMMMMMMMMMMMMMMMMMMMMMMMMMMMMMMMMMMMMMMMMMMMMMMMMMMMMMM",
"MMMMMMMMMMMMMMMMMMMMMMMMMMMMMMMMMMMMMMMMMMMMMMMMMMMMMMMMMMMM",
"MMMMMMMMMMMMMMMMMMMMMMMMMMMMMMMMMMMMMMMMMMMMMMMMMMMMMMMMMMMM",
"MMMMMMMMMMMMMMMMMMMMMMMMMMMMMMMMMMMMMMMMMMMMMMMMMMMMMMMMMMMM",
"MMMMMMMMMMMMMMMMMMMMMMMMMMMMMMMMMMMMMMMMMMMMMMMMMMMMMMMMMMMM"
};
