/* XPM */
static char *c2c22b11d44543f1b6f9275e506ffe8bghsVqdKfRlgWYss1[] = {
/* columns rows colors chars-per-pixel */
"60 60 216 2 ",
"   c None",
".  c #010101",
"X  c #0A0A0D",
"o  c #08090C",
"O  c #0E0E13",
"+  c #151515",
"@  c #1C1C1D",
"#  c #14191F",
"$  c #0E1113",
"%  c #1A1C23",
"&  c #161F24",
"*  c #1E2025",
"=  c #1B242B",
"-  c #1D2A33",
";  c #242424",
":  c #23242B",
">  c #2B2B2C",
",  c #272828",
"<  c #222E36",
"1  c #2D2E31",
"2  c #222E38",
"3  c #2C3032",
"4  c #22363D",
"5  c #323335",
"6  c #3B3B3C",
"7  c #35373B",
"8  c #5A561A",
"9  c #5C5825",
"0  c #595933",
"q  c #6E6E37",
"w  c #293C45",
"e  c #363A44",
"r  c #3A3D45",
"t  c #383B46",
"y  c #3B434B",
"u  c #394C5C",
"i  c #3C4853",
"p  c #3C5363",
"a  c #434445",
"s  c #43444A",
"d  c #4A4B4B",
"f  c #464A4E",
"g  c #454B54",
"h  c #4A4D53",
"j  c #4D4F5C",
"k  c #4B515D",
"l  c #4B5459",
"z  c #58595A",
"x  c #7D7C45",
"c  c #797853",
"v  c #435C6C",
"b  c #4B5664",
"n  c #525765",
"m  c #555B65",
"M  c #555E66",
"N  c #5A5C70",
"B  c #5D6265",
"V  c #54626C",
"C  c #5C666E",
"Z  c #5D6375",
"A  c #5B6978",
"S  c #5C707C",
"D  c #4F697A",
"F  c #636465",
"G  c #62636A",
"H  c #6A6A6B",
"J  c #60686E",
"K  c #656A76",
"L  c #6B6D75",
"P  c #646B7F",
"I  c #6A6D7A",
"U  c #747575",
"Y  c #76787C",
"T  c #6C7073",
"R  c #988C2B",
"E  c #8A8939",
"W  c #90903D",
"Q  c #B1A43D",
"!  c #B6B23E",
"~  c #A8A338",
"^  c #C9B93C",
"/  c #8A8944",
"(  c #938C41",
")  c #979649",
"_  c #97965E",
"`  c #A8A756",
"'  c #BDBD56",
"]  c #939366",
"[  c #B2B172",
"{  c #B3B268",
"}  c #C2BE5F",
"|  c #E6D54E",
" . c #F0DE4C",
".. c #E7D851",
"X. c #FDE14E",
"o. c #EFE554",
"O. c #E2E35E",
"+. c #F4E555",
"@. c #CAC87C",
"#. c #DEDB7A",
"$. c #E3E364",
"%. c #EEED6B",
"&. c #FEFE72",
"*. c #FBFB7B",
"=. c #FAFA6F",
"-. c #5D7585",
";. c #6A6F83",
":. c #6B7284",
">. c #6D758D",
",. c #647C8C",
"<. c #677988",
"1. c #747684",
"2. c #767B84",
"3. c #7D7E83",
"4. c #73768E",
"5. c #777B8B",
"6. c #747C95",
"7. c #777F98",
"8. c #757B94",
"9. c #7C8186",
"0. c #6D8393",
"q. c #7E8294",
"w. c #778799",
"e. c #7F99A9",
"r. c #838385",
"t. c #8B8B8C",
"y. c #82848C",
"u. c #818491",
"i. c #83869C",
"p. c #858A9C",
"a. c #898B94",
"s. c #8B919A",
"d. c #949494",
"f. c #9C9C9D",
"g. c #93949D",
"h. c #898DA6",
"j. c #8B95A7",
"k. c #969AA7",
"l. c #8D96B2",
"z. c #9299B2",
"x. c #969DBB",
"c. c #979AB4",
"v. c #9CA0AE",
"b. c #9DA3B4",
"n. c #99A5BC",
"m. c #A3A3A4",
"M. c #ADADAD",
"N. c #A6A7A8",
"B. c #A6AABA",
"V. c #AFB2B9",
"C. c #B4B4B5",
"Z. c #B2B5BD",
"A. c #B8B8BA",
"S. c #B3B9BB",
"D. c #CBC486",
"F. c #DEDE8A",
"G. c #FEFE86",
"H. c #FDFD9A",
"J. c #E0E08E",
"K. c #FEFEA3",
"L. c #E0E0BC",
"P. c #9CA4C5",
"I. c #9FA7C8",
"U. c #9FA8C7",
"Y. c #A4ACC5",
"T. c #A4ABCB",
"R. c #AAAEC1",
"E. c #ACB2C4",
"W. c #ABB3CC",
"Q. c #B5BBCC",
"!. c #B5B8C3",
"~. c #ACB3D3",
"^. c #AFB7D8",
"/. c #B5BCD4",
"(. c #B3BBDB",
"). c #B8BBD6",
"_. c #BBC1D4",
"`. c #BCC4DC",
"'. c #C4C5C6",
"]. c #CECECE",
"[. c #C3C6CA",
"{. c #C1C7D7",
"}. c #CDD2D8",
"|. c #D4D4D4",
" X c #DBDBDC",
".X c #D3D5D9",
"XX c #DEDDC1",
"oX c #FAFADE",
"OX c #C5CDE6",
"+X c #C9CEE5",
"@X c #C5CDE8",
"#X c #C8CFE8",
"$X c #CCD2E7",
"%X c #CCD4ED",
"&X c #CFD9EF",
"*X c #D6DBE7",
"=X c #CFD7F0",
"-X c #CFD8F0",
";X c #D3DBF4",
":X c #D6DDF5",
">X c #DCE3EB",
",X c #DDE2E4",
"<X c #DBE3FB",
"1X c #DDE5F4",
"2X c #E3E3E4",
"3X c #EAEAEB",
"4X c #E5E7E9",
"5X c #E2E6F4",
"6X c #E2EAFE",
"7X c #E6ECF6",
"8X c #EDF4FC",
"9X c #EAF0F8",
"0X c #F3F3F3",
"qX c #F2F4FA",
"wX c #F4FAFE",
"eX c #FEFEFE",
/* pixels */
"                                                                                                                        ",
"                                                                                                                        ",
"                                                                                                                        ",
"                                                                                                                        ",
"                                                                                                                        ",
"                                                                                                                        ",
"                                                                                                                        ",
"                                                                                                                        ",
"                                              1                                                                         ",
"                                            > 5 >         , ,         ; ; @                                             ",
"                                            a r.1     > 0 ) ) 0 ,     @ U 6                                             ",
"                                          > f.m.>   > W %.&.&.%.E @   @ f.f.l                                           ",
"                                          5 |.N.>   0 %.&.&.&.&.+.9   @ m. XF                                           ",
"                        > > >             s 0XC.> 1 / $.$.$.$.$.O.W * @ M.0XH           @ @ @ @                         ",
"                      > M S V l 5 ,       d 0X[.5 > / ` ` { [ [ ` q @ @ '.0Xz       ; 3 i v V b 5                       ",
"                      f 0.0.w.0.0.V y 1 , 6 ,X2Xa 1 } =.G.H.K.K.G.' @ 5 ,X2X7 @ ; y V -.-.-.0.0.>                       ",
"                      J j.0.V A <.w.0.C 6 3 _.qX9., / } D.D.D.D.@.) % 3.qXA.@ 3 V ,.,.S v i S -.&                       ",
"                      J n.2.].[.f.J <.0.<.g H 4X Xd [ F.L.XX#.F.J.[ d  X9XH r S ,.S M a.S.S.y v =                       ",
"                    @ b e.9.0XeXeX3Xm.B C B t.N.0XA.@.K.oXH.=.*.G.@.A.qXN.t.B V z N.4XeX0X_.h p - .                     ",
"                    o y 0.9.eXeXeXeX X9.C.3XeX[.N.'.x _ ] W W W ) x '.N.'.eX3XC.r. XeXeXeX*Xl p 2 .                     ",
"                    o y D U eXeX0XA.m.3XeXwXwXwX}.V.' o.o.o.o.o.+.! V.}.wXwXwXeX4Xk.S.qXwX>Xz p 2 .                     ",
"                    . 4 v T eX3Xf.S.8X8X8X8X6X<X<X!.~ ....| | | | ~ !.<X<X6X6X6X6X5XV.t.,X>XB u 2 .                     ",
"                    . 4 v H 4Xt.[.6X6X6X<X<X<X<X<X_.8 R R R R R R 8 _.:X<X<X<X:X<X<X:XE.Y }.B u 2 .                     ",
"                    . 4 v d 3.{.<X<X<X<X<X;X;X;X>X$Xc  .X.X.X.X.o.c $X;X=X;X;X;X;X&X%X%XB.T y u - .                     ",
"                    . - v < Z.6X<X<X<X:X;X;X;X;X-X-Xv.Q X.X.X.X.Q v.=X;X&X=X=X;X;X%X%X%X`.j.= u = .                     ",
"                    . - u u.<X<X<X:X{.Q.%X=X%X%X=X-X$Xs.( ^ ^ ( s.$X=X%X=X%X=X=XQ.`.@X$X`.).:.w = .                     ",
"                      @ l *X6X6XQ.3.y.c.$X;X&X&X%X&X%X%X/.k.k./.%X%X%X%X%X%X%X$Xc.9.1.B.`./.E.y #                       ",
"                      , A.wX8XV.s.+X;X;X=X%X%X/.Y.%X%X%X%X&X%X%X%X%X%XE./.%X%X%X&X%X{.y.h././.p.o                       ",
"      ; ,             H 0XeX Xg.>X:X-X=X%X%X%X#X1._.%X%X%X%X%X%X%X%X_.Y #X%X%X%X$X%X%X@X5.b./.Q.7             o X       ",
"      , ,           a A.eXeXf.*X<X;X;X=X&X&X%X%X_.2.%X%X%X%X%X%X%X%X5._.%X%X%X%X%X%X%X$X/.L /.(.5.o           . o       ",
"      ; z 6         6  XeXeX X9X<X<X;X=X%X%X%X%X%Xq._.%X%X%X%X%X=X_.u.%X%X%X$X%X%X$X=X%XOXR.).`.E.>         ; 7 .       ",
"        0 v.a @     a 3XeX|.Y 3.a.k.b.E._.OX#X$X&XE.B.%X=X%X%X%X%XB.R.%X%X$XOX_.E.b.j.q.L h c.$X:Xd     . 1 t.7         ",
"        + 3.!.G + * G qXeXA.m z 5 @ . . + 5 h L u.Q.%X%X%X%X=X%X%X#X/.u.T h 7 + . . + 1 d 6 a.$X1XB @ o h B.L .         ",
"          O Y _.B.F H 2XeXC.M.0X3X X].A.H d H H 6 3.=X%X%X%X%X%X%X=X1.6 H H d F A.]. X2X0Xf.8.`.Q.f s h.B.K o           ",
"            . a g.Q.Z.!.qXA.f.eXeXeXeXeXd.d.].0X,XG $X%X%X%X=X%X%X$XG 2X0X].t.d.eXeXeXeXeXd.i.Q.i.h.c.q.e .             ",
"      >         . : g s.$XQ.H 0XeXeXeXeXd.d.|.eXeXy.{.%X%X%X%X%X%X{.r.wXeX|.t.f.eXeXeXeX0XF c.T.8.s : .         .       ",
"      @ @           O n.^./.k ].eXeXeXeXm.z  XeXeXM.`.%X%X%X%X%X=X).C.eXeX Xz m.eXeXeXeX].g T.Y.z.O           . . .     ",
"      . + 1 . .     . i.Y.W.h.H 0XeXeXeXA.; 3XeXeXqX%X%X%X%X%X%X%X=XqXeXeX4X; A.eXeXeX0XF p.T.U.w..     . . : $ .       ",
"        o l :.m e % @ s w.Y.Y.I t.0XeXeX2Xd.qXeXeXqX%X%X%X%X%X#X%X%XqXeXeXeXd.2XeXeX0Xr.P Y.P.w.t % % e n K h o         ",
"          . r :.p.h.h.5.;.P.T.Y.5.U ].0XeXeXeXeXeX5X$X%X%X%X%X%X%X#X5XeXeXeXeX0X0X|.U 4.P.P.x.;.1.i.h.i.I r .           ",
"              . . O O . j P.P.T.T.x.4.L U .XqXqX1X$X%X$X#X%X#X$X#X$X$X5XqXqX}.Y L 1.z.T.P.P.P.j . O O . .               ",
"                        % 7.P.P.I.I.~.^.`.).OXOX@X@X@XOX#X#X@X@X@X@X@X@X@X@X).(.~.T.T.P.P.P.8.%                         ",
"                        . r 6.x.P.I.I.T.^.N I b.`.OXOX@X@X@X@X@X@X@X@X`.x.I Z ~.T.T.P.P.x.7.t .                         ",
"                          . b >.l.P.I.I.~.>.M.N.s 4.j.Y./.(.)./.Y.l.5.s N.M.;.T.T.P.P.h.>.j o                           ",
"                            O n >.7.l.P.I.h.m.|.K Y.x.q.>.;.:.<.q.z.T.K |.m.h.I.P.l.8.>.n O                             ",
"                              o k >.>.6.l.k.B F x.T.~.(.(.(.(.(.^.~.T.x.F M z.h.6.>.>.b X                               ",
"                                . e ;.>.>.>.N >.l.x.P.U.T.T.T.T.I.P.x.l.>.N >.>.>.P t .                                 ",
"                                  . # k >.>.>.>.>.>.>.8.7.7.7.7.6.8.>.>.>.>.>.;.j % .                                   ",
"                                      . % g A >.>.>.>.>.>.>.>.>.>.>.>.>.>.A g % .                                       ",
"                                          . . : i n Z ;.;.;.;.;.;.Z n y : . .                                           ",
"                                                . . . . o O O O . . . .                                                 ",
"                                                                                                                        ",
"                                                                                                                        ",
"                                                                                                                        ",
"                                                                                                                        ",
"                                                                                                                        ",
"                                                                                                                        ",
"                                                                                                                        ",
"                                                                                                                        ",
"                                                                                                                        "
};
