/* XPM */
static char *_1af315c82ca4516ba5f54a7fc5ccf40CoEkSkY39wOePLYx[] = {
/* columns rows colors chars-per-pixel */
"60 60 204 2 ",
"   c #172F2C",
".  c #14312F",
"X  c #1A302E",
"o  c #163230",
"O  c #1D3331",
"+  c #223432",
"@  c #2B3634",
"#  c #2F3832",
"$  c #323D3A",
"%  c #761712",
"&  c #7C1A15",
"*  c #751C18",
"=  c #76241C",
"-  c #413D3A",
";  c #783629",
":  c #4F443F",
">  c #384342",
",  c #54514E",
"<  c #555B5A",
"1  c #7E4345",
"2  c #6C554E",
"3  c #745B54",
"4  c #646968",
"5  c #833030",
"6  c #BF5D2A",
"7  c #B46437",
"8  c #BC6632",
"9  c #CC612B",
"0  c #D4662D",
"q  c #D96628",
"w  c #DC682B",
"e  c #C76A39",
"r  c #CF6839",
"t  c #D36631",
"y  c #DC6D37",
"u  c #CF7137",
"i  c #D67336",
"p  c #D47439",
"a  c #DE793A",
"s  c #E06B2E",
"d  c #E06C30",
"f  c #E07A3B",
"g  c #9C4446",
"h  c #845D49",
"j  c #9C5A50",
"k  c #AE4C4F",
"l  c #B75559",
"z  c #82625A",
"x  c #986756",
"c  c #B36649",
"v  c #B5755D",
"b  c #8E7B6F",
"n  c #A0776E",
"m  c #CA6C45",
"M  c #CD7548",
"N  c #C87653",
"B  c #C57C59",
"V  c #DD7F5A",
"C  c #D9676D",
"Z  c #C97D65",
"A  c #DE6C71",
"S  c #D77673",
"D  c #EA7077",
"F  c #F1747A",
"G  c #D69C1E",
"H  c #F0AE1D",
"J  c #DDA327",
"K  c #EDAF2C",
"L  c #A68C5F",
"P  c #8E8A6F",
"I  c #9E886C",
"U  c #B7877C",
"Y  c #AC9D79",
"T  c #B99377",
"R  c #C88256",
"E  c #D5805F",
"W  c #D8A847",
"Q  c #D3A751",
"!  c #CB8C61",
"~  c #CA8976",
"^  c #C7957D",
"/  c #D09C74",
"(  c #D4B26A",
")  c #C5A877",
"_  c #345590",
"`  c #496193",
"'  c #6072A1",
"]  c #888A89",
"[  c #8E908F",
"{  c #8F9191",
"}  c #979998",
"|  c #9FA09F",
" . c #B3A385",
".. c #B6A788",
"X. c #BDAE8B",
"o. c #BDB28E",
"O. c #BEB797",
"+. c #BCB39D",
"@. c #989DAC",
"#. c #A7A5A5",
"$. c #ADAEAD",
"%. c #B3ABA8",
"&. c #B4B0A5",
"*. c #BBB4A4",
"=. c #BFB9A3",
"-. c #BCB7AD",
";. c #AAADB4",
":. c #B4B4B5",
">. c #BDBAB4",
",. c #BDBDBA",
"<. c #CA9485",
"1. c #D6998A",
"2. c #C89C90",
"3. c #D99C90",
"4. c #CDA88A",
"5. c #D2A789",
"6. c #C6A499",
"7. c #D9A895",
"8. c #C5B995",
"9. c #C4B898",
"0. c #CABE9D",
"q. c #D3B996",
"w. c #E9A38D",
"e. c #E9A999",
"r. c #F1AC9E",
"t. c #C7ADA5",
"y. c #C4BBA4",
"u. c #C2BCAB",
"i. c #CDB8AA",
"p. c #CFBFB9",
"a. c #D1BCB6",
"s. c #F4AEA1",
"d. c #FDB3A5",
"f. c #D6C388",
"g. c #C8C090",
"h. c #CDC19E",
"j. c #D7C995",
"k. c #D2C39C",
"l. c #CDC4A2",
"z. c #CCC4AD",
"x. c #D5C6A5",
"c. c #D6CAA2",
"v. c #DCCDA5",
"b. c #D4CBAB",
"n. c #D9CEAB",
"m. c #DED0A7",
"M. c #DDD3AC",
"N. c #CBC3B2",
"B. c #C3C2BE",
"V. c #C9C6BC",
"C. c #CCC8BB",
"Z. c #D6C7B6",
"A. c #D3CBB4",
"S. c #D4C2BD",
"D. c #D2CCBB",
"F. c #DDD4B4",
"G. c #DAD3BA",
"H. c #E1CAA4",
"J. c #E2D5AC",
"K. c #E5DBA9",
"L. c #E5D8AE",
"P. c #E2D6B2",
"I. c #E5D9B1",
"U. c #EBDCB2",
"Y. c #E6DBBB",
"T. c #ECE6AE",
"R. c #EEE2B5",
"E. c #F2E3B6",
"W. c #F4E6B8",
"Q. c #F8E7B9",
"!. c #F9E7B9",
"~. c #FEECBD",
"^. c #C4C3C1",
"/. c #CCC6C1",
"(. c #CDCAC3",
"). c #CBCBCA",
"_. c #D2CEC3",
"`. c #D7C9C6",
"'. c #D2CECB",
"]. c #D5D1C6",
"[. c #D4D2CA",
"{. c #DBD6CA",
"}. c #DAD8CC",
"|. c #D6D6D3",
" X c #DBD6D2",
".X c #DCDAD4",
"XX c #DDDCDB",
"oX c #E2DAC5",
"OX c #E1DEDC",
"+X c #FEEFC0",
"@X c #FFF1C2",
"#X c #E2E0DD",
"$X c #E5E5E4",
"%X c #E9E7E4",
"&X c #E9E9E6",
"*X c #EBEBEB",
"=X c #F0EFEA",
"-X c #F2F1ED",
";X c #F4F4F4",
":X c #F8F7F1",
">X c #FEFCF5",
",X c #F7F7F8",
"<X c #F7F9F9",
"1X c #FFFFFF",
/* pixels */
"1X1X1X1X1X1X1X1X1X1X1X1X1X1X1X1X1X1X1X1X1X1X1X1X1X1X1X1X1X1X1X1X1X1X1X1X1X1X1X1X1X1X1X1X1X1X1X1X1X1X1X1X1X1X1X1X1X1X1X1X",
"1X1X1X1X1X1X1X1X1X1X1X1X1X1X1X1X1X1X1X1X1X1X1X1X1X1X1X1X1X1X1X1X1X1X1X1X1X1X1X1X1X1X1X1X1X1X1X1X1X1X1X1X1X1X1X1X1X1X1X1X",
"1X1X1X1X1X1X1X1X1X1X1X1X1X1X1X1X1X1X1X1X1X1X1X1X1X1X1X1X1X1X1X1X1X1X1X1X1X1X1X1X1X1X1X1X1X1X1X1X1X1X1X1X1X1X1X1X1X1X1X1X",
"1X1X1X1X1X1X1X1X1X1X1X1X1X1X1X1X1X1X1X1X1X1X1X1X1X1X1X1X1X1X1X1X1X1X1X1X1X1X1X1X1X1X1X1X1X1X1X1X1X1X1X1X1X1X1X1X1X1X1X1X",
"1X1X1X1X1X1X1X1X1X1X1X1X1X1X1X1X1X1X1X1X1X1X1X1X1X1X1X1X1X1X1X1X1X1X1X1X1X1X1X1X1X1X1X1X1X1X1X1X1X1X1X1X1X1X1X1X1X1X1X1X",
"1X1X1X1X1X1X1X1X1X1X1X1X1X1X1X1X1X1X1X1X1X1X1X1X1X1X1X1X1X1X1X1X1X1X1X1X1X1X1X1X1X1X1X1X1X1X1X1X1X1X1X1X1X1X1X1X1X1X1X1X",
"1X1X1X1X1X1X1X1X1X1X1X1X1X1X1X1X1X1X1X1X1X1X1X1X1X1X1X1X1X1X1X1X$X1X1X1X1X1X1X1X1X1X1X1X1X1X1X1X1X1X1X1X1X1X1X1X1X1X1X1X",
"1X1X1X1X1X1X1X1X1X1X1X1X1X1X1X1X1X1X1X1X1X1X1X1X1X1X1X1X1X1X1X$X).1X1X1X1X1X1X1X1X1X1X1X1X1X1X1X1X1X1X1X1X1X1X1X1X1X1X1X",
"1X1X1X1X1X1X1X1X1X1X1X1X1X1X1X1X1X1X1X1X1X1X1X1X1X1X1X1X1X1X1X&.<X1X1X1X1X1X1X1X1X1X1X1X1X1X1X1X1X1X1X1X1X1X1X1X1X1X1X1X",
"1X1X1X1X1X1X1X1X1X1X1X1X1X1X1X1X1X,X1X1X1X1X1X1X1X1X1X1X1X1X$XV.1X1X1X1X1X1X1X1X1X1X1X1X1X1X1X1X1X1X1X1X1X1X1X1X1X1X1X1X",
"1X1X1X1X1X1X1X1X1X1X1X1X1X1X1X1X1X|.|.1X1X1X1X1X1X1X1X1X1X1XV.$X1X1X$X$.$.*X1X1X1X1X1X1X1X1X1X1X1X1X1X1X1X1X1X1X1X1X1X1X",
"1X1X1X1X1X1X1X1X1X1X1X1X1X1X1X1X1X1XXX^.1X1X1X1X1X1X1X1X1X<X+.;X1X:.> O O ] 1X1X1X1X1X1X1X1X1X1X1X1X1X1X1X1X1X1X1X1X1X1X",
"1X1X1X1X1X1X1X1X1X1X1X1X1X1X1X1X1X1X1X|.^.1X1X1X>X.X{.=X1X$Xz.<X#.X @ 2 - + XX1X1X1X1X1X1X1X1X1X1X1X1X1X1X1X1X1X1X1X1X1X",
"1X1X1X1X1X1X1X1X1X1X1X1X1X1X1X1X1X1X1X1X(._.1X1X}.T.j.) ;X X[.#.X 2 3.d.<.. } 1X1X1X1X1X1X1X1X1X1X1X1X1X1X1X1X1X1X1X1X1X",
"1X1X1X1X1X1X1X1X1X1X1X1X1X1X1X1X1X1X1X1X<Xi..X1Xy.W H K a.D.| + 3 s.d.d.r.: < ;X1X1X1X1X1X1X1X1X1X1X1X1X1X1X1X1X1X1X1X1X",
"1X1X1X1X1X1X1X1X1X1X1X1X1X1X1X1X<X*X;X1X1X*X0.&Xk.( j.K.h.x.# , e.d.d.d.d.z   XX1X1X1X1X1X1X*X1X1X1X1X1X1X1X1X1X1X1X1X1X",
"1X1X1X1X1X1X1X1X1X1X1X1X1X1X1X&X< @ $ 4 $.XX'.b.[.K.( J J o.O.0.q.7.e.s.d.n X ,.1X1X1X1X&X:.XX1X1X1X1X1X1X1X1X1X1X1X1X1X",
"1X1X1X1X1X1X1X1X1X1X1X1X1X1X1X$.O + @ O O + < ..+.J Q f.T.j.W.~.~.@XR.c.7.<.X $.1X1X<X/.>.;X1X1X1X1X1X1X1X1X1X1X1X1X1X1X",
"1X1X1X1X1X1X1X1X1X1X1X1X1X1X1X[ o U e.3.I 3 $ P c.g.T.f.Q f.~.~.L.z.].Y.U. .O | 1X-X-.[.1X1X1X1X1X1X1X1X1X1X1X1X1X1X1X1X",
"1X1X1X1X1X1X1X1X1X1X1X1X1X1X1X[ . 3.d.d.d.e.k.~.J.k.J K G h.~.U.B.:X>X:X{.!.O.#.&X+.#X1X1X1X1X1X1X1X1X1X1X1X1X1X1X1X1X1X",
"1X1X1X1X1X1X1X1X1X1X1X1X1X1X1X} o <.d.d.e.M.~.~.~.~.X.L Y !.~.N..X|.>X>X,XP.@Xy.y.$X1X1X1X1X1X1X1X1X1X1X1X1X1X1X1X1X1X1X",
"1X1X1X1X1X1X1X1X1X1X1X1X1X1X1X,.O U d.r.c.n.].oXU.~.~.~.~.~.!..XOXB.>X>X>X.XR.v.V.1X,XOX_.D.D.D.$X1X1X1X1X1X1X1X1X1X1X1X",
"1X1X1X1X1X1X1X1X1X1X1X1X1X1X1X|.O z d.7.b.%X>X.X&XF.~.~.~.~.E.-X X_ =X>X>X>X0.~.F.%XI.!.~.~.~.~.U.].1X1X1X1X1X1X1X1X1X1X",
"1X1X1X1X1X1X1X1X1X1X1X1X1X1X1X;X> # 3.P.(.>X>XXX.X*XJ.~.~.~.0.*X=X` XX>X>X'.U.~.E.K.~.~.!.W.~.~.W.R.*X1X1X1X1X1X1X1X1X1X",
"1X1X1X1X1X1X1X1X1X1X1X1X1X1X1X1X} O b M.&X>X>XB.;.>X-.!.~.~.~.G.*X@.XX>X Xn.+X~.W.J.E.D..Xz.~.!.E.v.;X1X1X1X1X1X1X1X1X1X",
"1X1X1X1X1X1X1X1X1X1X1X1X1X1X1X1XXXO Y M.>X>X>X).' ;XN.~.~.~.~.~.J.*.-.-.b.c.!.~.W.x.%X1X1XZ.~.R.R.].1X1X1X1X1X1X1X1X1X1X",
"1X1X1X1X1X1X1X1X1X1X1X1X<X,X,X1X<X{ 8.I.>X>X>X%X` $X0.~.~.~.~.~.+X+X@X+X~.m.E.E.8.'.*X,X1X*XG.{.#X<X1X1X1X1X1X1X1X1X1X1X",
"1X1X1X1X1X1X1X1X1X<X).^.u.>.&.*.-.*.8.L.#X>X>X>X:.&.!.~.~.+XT.k.X.9.A...o.K.~.W.y.].=.=.N.XX;X1X1X1X1X1X1X1X1X1X1X1X1X1X",
"1X1X1X1X1X1X1X1X1X1X1X1X1X1X1X1X<X$XO.W.E.z._.`.=.W.+XU.X.h = & & 1 %.% k.~.~.L.&X1X1X;XOX/.%.B.*X1X1X1X1X1X1X1X1X1X1X1X",
"1X1X1X1X1X1X1X1X1X1X1X1X1X1X1X<XXXD.h.+X~.+XR.!.+XE.+.; & * 5 g g 5 % * L.~.E..X1X1X1X1X1X<X<X-X).&X1X1X1X1X1X1X1X1X1X1X",
"1X1X1X1X1X1X1X1X1X1X1X1X1X1X.Xn.W.~.J.R.~.U.J.E.8.b #.% g D F F F F C j ~.R.'.>X1X1X;Xa.p.2.i.p.*X1X1X1X1X1X1X1X1X1X1X1X",
"1X1X1X1X1X1X1X1X1X1X1X1X>XC.W.~.~.U.F.l.E.~.v.J.0.% % l F F F F F F F 5.I..X1X1X1X1XS.9 Z e N e t.1X1X1X1X1X1X1X1X1X1X1X",
"1X1X1X1X1X1X1X1X1X1X1X1X}.!.~.~.n.XX<X'.c.R.~.~.!.I k F F F F F F F D  .'.1X1X1X1X1XS.m w.v ~ ~ i.1X1X1X1X1X1X1X1X1X1X1X",
"1X1X1X1X1X1X1X1X1X1X1X1Xb.~.!.~.G.1X_.l.|.b.E.~.~.W.~ F F F F F F F A E.M.,X1X1X1X1XOX0 m 0 r m $X1X1X1X1X1X1X1X1X1X1X1X",
"1X1X1X1X1X1X1X1X1X1X1X1Xn.M.v.+XY.D.z.*X1X1XXXD.F.I.J.S F F F F F F 5.~.!. X1X1X1X1X-Xm d d w p.1X1X1X1X1X1X1X1X1X1X1X1X",
"1X1X1X1X1X1X1X1X1X1X1X1X.XO.=.D.*.V.<X1X1X1X1X1X<X*X$X=.^ D F D F ~ Q.~.~.b.1X1X1X1X&Xt d d t $X1X1X1X1X1X1X1X1X1X1X1X1X",
"1X1X1X1X1X1X1X1X1X1X1X1X1X<X1X).(.<X1X1X1X1X1X1X1X1X;XF.~.M.5.1.5.W.~.~.~.R.).A.n.D.'.q s s ! ,X1X1X1X1X1X1X1X1X1X1X1X1X",
"1X1X1X1X1X1X1X1X1X1X1X1X1X1X.X'.1X1X1X1X1X1X1X1X1X1X;XJ.~.~.~.~.~.~.~.~.~.U.v.~.~.~.0.x.5.q.i.1X1X1X1X1X1X1X1X1X1X1X1X1X",
"1X1X1X1X1X1X1X1X1X1X1X1X1X1XXX1X1X1X1X1X1X1X1X1X1X1X;XJ.~.~.~.~.~.~.~.~.E.v.~.~.~.~.v.+Xv.!. X1X1X1X1X1X1X1X1X1X1X1X1X1X",
"1X1X1X1X1X1X1X1X1X1X1X1X1X1X1X1X1X1X1X1X1X1X1X1X1X1X1XG.~.~.~.~.~.~.~.~.H.~.~.I.I.~.W.q.w.v.$X>X1X1X1X1X1X1X1X1X1X1X1X1X",
"1X1X1X1X1X1X1X1X1X1X1X1X1X1X1X1X1X1X1X1X1X1X1X;X}.{.{.l.~.~.~.~.~.~.~.~.~.~.I.$X$XI.~.q.e.4.u B S.1X1X1X1X1X1X1X1X1X1X1X",
"1X1X1X1X1X1X1X1X1X1X1X1X1X1X1X1X1X1X1X1X1X1X<XA.!.~.~.v.!.~.~.~.~.~.~.~.~.L.XX1X1X XW.!.U.! p a i p.1X1X1X1X1X1X1X1X1X1X",
"1X1X1X1X1X1X1X1X1X1X1X1X1X1X1X1X1X1X1X1X1X1X;XI.~.~.U.M.J.~.~.~.~.~.~.~.J.$X1X1X1X;XJ.~.H.7 u 8 a B 1X1X1X1X1X1X1X1X1X1X",
"1X1X1X1X1X1X1X1X1X1X1X1X1X1X1X1XOX&X1X1X1X1X;XF.~.~. X;XOXA.L.W.~.!.J.O.$X1X1X1X1X1X[.m.R u a u u B 1X1X1X1X1X1X1X1X1X1X",
"1X1X1X1X1X1X1X1X1X1X1X1X1X1X1X X9 t <./. X X.X-.J.+X_.1X1X1X*X#X.X/.U.!._.1X1X1X1X1X1X#XM a a 8 a t.1X1X1X1X1X1X1X1X1X1X",
"1X1X1X1X1X1X1X1X1X1X1X1X1X1X-XN 6 N y s q w / ~.~.~.E.A.;X1X1X1X1X1XA.~.R.[.1X1X1X1X1X1X.X7 8 p M *X1X1X1X1X1X1X1X1X1X1X",
"1X1X1X1X1X1X1X1X1X1X1X1X1X1X$X9 c v E w d w v.!.!.!.~.+X_.1X1X1X1X1X-XF.~.W.A.$X;X;X-X X~ f f p '.1X1X1X1X1X1X1X1X1X1X1X",
"1X1X1X1X1X1X1X1X1X1X1X1X1X1X,Xn x E 0 r r ^ M.T ^ T b.b.$X1X1X1X1X1X1X*XA.!.~.E.P.P.k.u a f N {.1X1X1X1X1X1X1X1X1X1X1X1X",
"1X1X1X1X1X1X1X1X1X1X1X1X1X1X1X<X X/.&X;X;X;X*X*X$XXX*X1X1X1X1X1X1X1X1X1X<X[.F.U.!.!.L.u N 6.&X1X1X1X1X1X1X1X1X1X1X1X1X1X",
"1X1X1X1X1X1X1X1X1X1X1X1X1X1X1X1X1X1X1X1X1X1X1X1X1X1X1X1X1X1X1X1X1X1X1X1X1X1X<X*X#X.X.X$X;X1X1X1X1X1X1X1X1X1X1X1X1X1X1X1X",
"1X1X1X1X1X1X1X1X1X1X1X1X1X1X1X1X1X1X1X1X1X1X1X1X1X1X1X1X1X1X1X1X1X1X1X1X1X1X1X1X1X1X1X1X1X1X1X1X1X1X1X1X1X1X1X1X1X1X1X1X",
"1X1X1X1X1X1X1X1X1X1X1X1X1X1X1X1X1X1X1X1X1X1X1X1X1X1X1X1X1X1X1X1X1X1X1X1X1X1X1X1X1X1X1X1X1X1X1X1X1X1X1X1X1X1X1X1X1X1X1X1X",
"1X1X1X1X1X1X1X1X1X1X1X1X1X1X1X1X1X1X1X1X1X1X1X1X1X1X1X1X1X1X1X1X1X1X1X1X1X1X1X1X1X1X1X1X1X1X1X1X1X1X1X1X1X1X1X1X1X1X1X1X",
"1X1X1X1X1X1X1X1X1X1X1X1X1X1X1X1X1X1X1X1X1X1X1X1X1X1X1X1X1X1X1X1X1X1X1X1X1X1X1X1X1X1X1X1X1X1X1X1X1X1X1X1X1X1X1X1X1X1X1X1X",
"1X1X1X1X1X1X1X1X1X1X1X1X1X1X1X1X1X1X1X1X1X1X1X1X1X1X1X1X1X1X1X1X1X1X1X1X1X1X1X1X1X1X1X1X1X1X1X1X1X1X1X1X1X1X1X1X1X1X1X1X",
"1X1X1X1X1X1X1X1X1X1X1X1X1X1X1X1X1X1X1X1X1X1X1X1X1X1X1X1X1X1X1X1X1X1X1X1X1X1X1X1X1X1X1X1X1X1X1X1X1X1X1X1X1X1X1X1X1X1X1X1X",
"1X1X1X1X1X1X1X1X1X1X1X1X1X1X1X1X1X1X1X1X1X1X1X1X1X1X1X1X1X1X1X1X1X1X1X1X1X1X1X1X1X1X1X1X1X1X1X1X1X1X1X1X1X1X1X1X1X1X1X1X",
"1X1X1X1X1X1X1X1X1X1X1X1X1X1X1X1X1X1X1X1X1X1X1X1X1X1X1X1X1X1X1X1X1X1X1X1X1X1X1X1X1X1X1X1X1X1X1X1X1X1X1X1X1X1X1X1X1X1X1X1X",
"1X1X1X1X1X1X1X1X1X<X;X<X<X,X<X,X,X;X<X<X1X-X,X,X,X<X;X<X;X;X<X,X<X<X<X<X<X<X;X;X,X;X;X<X<X;X;X;X<X<X<X1X1X1X1X1X1X1X1X1X",
"1X1X1X1X1X1X1X1X1X<X*X;X&X&X;X&X$X&X-X&X$X*X*X*X#X*X&X*X&X*X-X$X;X&X*X;X*X*X*X*X&X$X$X&X*X&X$X*X-X&X;X1X1X1X1X1X1X1X1X1X"
};
