/* XPM */
static char *ddb52cb09de74a999cca2eb1b17d0bc0h95DypPOlgp6ruuX[] = {
/* columns rows colors chars-per-pixel */
"60 60 224 2 ",
"   c #1C1D1E",
".  c #2F1D1F",
"X  c #1F261F",
"o  c #21241C",
"O  c #1F1F22",
"+  c #231E24",
"@  c #281E2A",
"#  c #361E29",
"$  c #351D3A",
"%  c #1E2323",
"&  c #1F2528",
"*  c #1F2438",
"=  c #232324",
"-  c #2A2122",
";  c #25242A",
":  c #2B2329",
">  c #2B2B2D",
",  c #362125",
"<  c #392B2F",
"1  c #333335",
"2  c #393A3A",
"3  c #4D1C17",
"4  c #572B1C",
"5  c #5F2223",
"6  c #6D6522",
"7  c #27296D",
"8  c #401D43",
"9  c #49156F",
"0  c #6C1866",
"q  c #474748",
"w  c #595959",
"e  c #686967",
"r  c #6F6F70",
"t  c #777777",
"y  c #941312",
"u  c #B3130D",
"i  c #D0090A",
"p  c #E80506",
"a  c #F60401",
"s  c #FC0203",
"d  c #F80706",
"f  c #F41207",
"g  c #F62704",
"h  c #FB3905",
"j  c #F7530A",
"k  c #DF781E",
"l  c #FB6809",
"z  c #FE7E01",
"x  c #F97805",
"c  c #FD7B0B",
"v  c #E77213",
"b  c #82147B",
"n  c #DE6162",
"m  c #0A9830",
"M  c #0FB43E",
"N  c #01BD3E",
"B  c #08BA3C",
"V  c #22B13A",
"C  c #01C03E",
"Z  c #2EC13E",
"A  c #69CC35",
"S  c #77D239",
"D  c #02BC42",
"F  c #05BA49",
"G  c #0BB451",
"H  c #23BF41",
"J  c #29B64C",
"K  c #02B06B",
"L  c #45AD57",
"P  c #58B96B",
"I  c #4FC56A",
"U  c #BABE13",
"Y  c #FC8102",
"T  c #F88308",
"R  c #FD9904",
"E  c #F98112",
"W  c #FCA205",
"Q  c #F9B303",
"!  c #BAE51E",
"~  c #93D835",
"^  c #ABE423",
"/  c #B7E424",
"(  c #F9C503",
")  c #FDD908",
"_  c #D7EB15",
"`  c #FDE306",
"'  c #FEFE02",
"]  c #F9F608",
"[  c #F5FA0B",
"{  c #FBFC0B",
"}  c #E6F412",
"|  c #FCFC16",
" . c #F2F134",
".. c #D48D58",
"X. c #CEA56B",
"o. c #B6D74E",
"O. c #E8E949",
"+. c #CED075",
"@. c #3646BC",
"#. c #7803CE",
"$. c #7B04DB",
"%. c #792CCF",
"&. c #7603E6",
"*. c #7A02E5",
"=. c #7809E6",
"-. c #7A03EA",
";. c #7615E7",
":. c #692AEA",
">. c #692FEC",
",. c #017ED8",
"<. c #3369DD",
"1. c #2A5AFA",
"2. c #3956F7",
"3. c #0669EB",
"4. c #0177E8",
"5. c #0266F5",
"6. c #026AF4",
"7. c #0266FC",
"8. c #0C65FC",
"9. c #0168FD",
"0. c #0B68FB",
"q. c #1766F1",
"w. c #5674DB",
"e. c #4C4AF3",
"r. c #494BF4",
"t. c #93108D",
"y. c #AD0BA3",
"u. c #B308A6",
"i. c #C603BB",
"p. c #C817BF",
"a. c #C623BE",
"s. c #B379BE",
"d. c #9701D9",
"f. c #A801D6",
"g. c #B402D5",
"h. c #8201E3",
"j. c #8C01E0",
"k. c #9101E5",
"l. c #C704C8",
"z. c #CC02CB",
"x. c #D301C5",
"c. c #D401CA",
"v. c #D902CC",
"b. c #C402D2",
"n. c #D302D0",
"m. c #8858CE",
"M. c #9A78CA",
"N. c #058197",
"B. c #04A787",
"V. c #03A396",
"C. c #0296B5",
"Z. c #018CC9",
"A. c #748DD0",
"S. c #848685",
"D. c #8C8C8C",
"F. c #8F918F",
"G. c #949494",
"H. c #979798",
"J. c #9A9A9A",
"K. c #83B589",
"L. c #A0A09F",
"P. c #9C9BA0",
"I. c #BF87BE",
"U. c #9FA1A1",
"Y. c #A4A4A5",
"T. c #A8A7A9",
"R. c #ACACAC",
"E. c #B4B4B3",
"W. c #B8BAB7",
"Q. c #BBBBBB",
"!. c #CD9E86",
"~. c #D5B5B3",
"^. c #87D399",
"/. c #9BCEA7",
"(. c #BDC4BB",
"). c #ADE4BB",
"_. c #D1CD95",
"`. c #CDC5BF",
"'. c #FDFCB4",
"]. c #9B9ECA",
"[. c #ACB6CA",
"{. c #C3BFC1",
"}. c #CCBBD2",
"|. c #B8C0D6",
" X c #C3C4C3",
".X c #C6C8C5",
"XX c #C9CAC7",
"oX c #CCCCCB",
"OX c #CDD5CE",
"+X c #D1D1CC",
"@X c #CDCBD4",
"#X c #D0D2D2",
"$X c #D3D3D3",
"%X c #D6DAD5",
"&X c #D9DBD6",
"*X c #D5D5DA",
"=X c #D8DBDA",
"-X c #DBDBDB",
";X c #E4DEDB",
":X c #CDEED0",
">X c #DEE2DC",
",X c #F9FAD7",
"<X c #E1DFE4",
"1X c #C6F4E1",
"2X c #E4E3E5",
"3X c #E6E6E7",
"4X c #E5E9E4",
"5X c #E9EBE6",
"6X c #EBECEB",
"7X c #F2EEE9",
"8X c #ECF6E9",
"9X c #F5F8EC",
"0X c #EFEEF0",
"qX c #F0EFF1",
"wX c #EEFAF4",
"eX c #F4F3F6",
"rX c #F4FAF4",
"tX c #FBFBF4",
"yX c #F5F3F8",
"uX c #F8F7F8",
"iX c #F6FAF9",
"pX c #FEFDFD",
"aX c #FEFEFE",
"sX c white",
/* pixels */
"sXsXsXsXsXsXsXsXsXsXsXsXsXsXsXsXsXsXsXsXsXsXsXsXsXsXsXsXsXsXsXsXsXpXsXsXsXsXsXsXsXsXsXsXsXsXsXsXsXsXsXsXsXsXsXsXsXsXsXsX",
"sXsXsXsXsXsXsXsXsXsXsXsXsXsXsXsXsXsXsXsXsXsXsXsXsXsXsXsXsXsXsXsXpXsXpXsXsXsXpXsXsXsXsXsXsXsXsXsXsXsXsXsXsXsXsXsXsXsXsXsX",
"sXsXsXsXsXsXsXsXsXsXsXsXsXsXsXsXsXsXsXsXsXsXsXsXsXsXsXsXsXsXsXsXpXpXsXsXsXsXsXpXpXsXsXsXsXsXsXsXsXsXsXsXsXsXsXsXsXsXsXsX",
"sXsXsXsXsXsXsXsXsXsXsXsXsXsXsXsXsXsXrXpXiXpXsXsXtX6X=XOXOXOXOXOX-X0XuXiXtXpXsXsXsXpXsXsXsXsXsXsXsXsXsXsXsXsXsXsXsXsXsXsX",
"sXsXsXsXsXsXsXsXsXsXsXsXsXsXsXsXtXiXtXuXeX>X(.P L H M B N B D B H J J K.|.4X9XsXiXpXsXsXsXsXsXsXsXsXsXsXsXsXsXsXsXsXsXsX",
"sXsXsXsXsXsXsXsXsXsXsXsXsXsXsXsXtXiX4X/.P M B B N B D D N N N D B D M B.3.q.w.[.4XpXpXsXsXsXsXsXsXsXsXsXsXsXsXsXsXsXsXsX",
"sXsXsXsXsXsXsXsXsXsXsXsXsXpXpXtX>X_.o.^.).:X).I D N C N N N N N C N B C.6.7.9.0.<.].3XiXsXsXtXiXsXsXsXsXsXsXsXsXsXsXsXsX",
"sXsXsXsXsXsXsXsXsXsXpXsXsX9X6X_. .O.,X9XuXuXuX8XI N D N N N D N N D C C.9.7.9.7.7.5.<.[.4XiXsXtXsXsXsXsXsXsXsXsXsXsXsXsX",
"sXsXsXsXsXsXsXsXsXsXpXpXpX&XO.] ' '.9XtX9XwXwXwX/.N N N N D N N C D C Z.9.7.9.9.9.9.0.3.w.@XtXsXsXsXsXsXsXsXsXsXsXsXsXsX",
"sXsXsXsXsXsXpXsXsXsXtXeX_.} ] ] ' ,X9XtXwX9XwXrX^.N D C N N D C D C D 4.9.9.9.9.9.9.9.9.7.q.[.tXsXsXpXsXsXsXsXsXsXsXsXsX",
"sXsXsXsXpXsXsXpXpXpX6X+.[ ' ' ' { '.tXrXrXiXrX:XJ C C N N D N N D D F 6.7.9.9.7.9.9.9.9.9.9.3.A.6XuX9XsXsXsXsXsXsXsXsXsX",
"sXsXsXsXsXpXpXsXpX7X+.[ | ' ' ' {  .'.,X,X1X).I C B N N C N N N F F K 9.7.7.9.9.9.9.9.9.9.6.9.0.A.8XiXsXsXsXsXsXsXsXsXsX",
"sXsXsXsXsXsXsXsX7XX.[ { ' ' ' ' { ' | | ^ F C D B C N N N N N N D N V.7.9.7.9.9.9.9.9.7.9.0.9.9.2.M.7XsXsXsXsXsXsXsXsXsX",
"sXsXsXsXsXsXsXiX!.R ` ] ' ' ' ' ' ' ' { _ Z C C N N D N N D D N D D C.7.9.7.9.9.9.9.9.9.9.0.9.8.:.h.].9XrXuXsXsXsXsXsXsX",
"sXsXsXsXsXsXsX~.T c R ' ' ' ' ' ' ' ' ' [ A N N N D D C N N N C D N ,.9.9.7.9.7.7.9.9.9.9.9.9.e.h.=.;.}.rXsXtXsXsXsXsXsX",
"sXsXsXsXsXsX;Xk z T x ( ' ' ' ' ' ' ' { ] / D N N N N N N D N N D D 6.9.9.9.9.9.9.9.9.7.9.0.1.;.$.=.h.%.2XtXsXsXsXsXsXsX",
"sXsXsXsXsXuX..E z z Y Y ` ' ' ' ' ' ' { [ } Z N D N N D N N N D N K 5.7.7.9.9.9.9.7.7.7.7.8.:.*.*.*.*.-.M.eXsXsXsXsXsXsX",
"sXsXsXsXtXXXE Y Y Y Y x Q { ' ' ' ' ' ' [ ' A C B C N N N N N C F V.6.7.7.9.7.9.9.7.7.9.7.e.-.-.*.*.*.*.&.@XpXsXsXsXsXsX",
"sXsXsXtX6X..c z z Y Y Y Y ) ' ' ' ' ' ' ] ' / F N C N N N N N N B Z.7.7.9.9.7.9.9.7.9.7.1.;.&.*.*.*.*.&.$.m.iXsXsXsXsXsX",
"sXsXsXtX`.T E z z z z z z R ] { ' ' ' ' ' ' } H B C N N D N N D N 4.5.5.9.9.9.9.9.9.9.8.>.*.&.*.*.*.&.&.$.;.@XiXiXsXsXsX",
"sXsXsXrX..x x z z z z z z T Q ' ' ' ' ' ' ' ' S D B N N C N D N K 4.7.7.9.9.9.9.7.9.8.e.h.*.*.*.*.*.*.&.*.h.s.iXiXpXsXsX",
"sXsXsX;Xv Y Y z z z z z z z Y ` ' ' ' ' ' ' ' ! D C N N N N N N V.6.7.7.9.9.9.9.9.0.r.&.-.*.*.*.*.*.*.*.*.f.a.3XpXpXsXsX",
"sXsXpX~.g l Y z Y Y z z z z z W ' ' ' ' ' ' ' } Z N D N D D C D Z.6.5.9.9.9.9.9.9.r.;.&.*.*.*.*.*.-.*.&.d.c.x.}.iXpXsXsX",
"sXiXrXn a g x Y Y z z z z Y Y Y Q ' ' ' ' ' ' ' ~ D N N N D N N ,.5.9.9.9.9.9.0.2.;.=.&.*.*.*.*.-.&.&.d.z.x.v.I.iXpXsXsX",
"pXiXqXn s s h l z z z z z Y z z Y ) ' ' ' ' ' ' _ H C D C N D G 6.9.9.9.9.9.9.q.:.*.&.&.&.*.*.*.*.*.d.z.x.c.c.a.iXsXsXsX",
"iXsX3Xp s s s g l z z Y z z Y z z R ] ' ' ' ' [ } A D B D D C V.9.9.9.0.9.9.0.>.h.*.*.*.*.*.*.*.h.d.z.x.c.z.x.a.2XiXsXpX",
"sXtXoXs s s s s g l Y Y z z z z z Y Q ' ' ' ' { ' ^ F N N F N C.9.9.9.0.0.0.e.h.*.-.*.*.*.-.&.$.g.x.v.v.c.x.c.p.@XiXsXsX",
"iXtX~.s s s s s s f j T Y z z z Y z x ) [ ' ' [ ' } H D B N N 4.9.9.9.0.9.r.=.-.&.h.*.*.*.&.j.g.c.x.z.x.c.x.z.t.~.sXsXsX",
"sXtXE.p s s s s s a s h x Y z z c Y z Y ` ' ' ' ' ] A B N D K 3.9.9.9.9.r.=.*.*.*.*.*.h.&.j.b.v.v.n.c.x.c.x.u.$ E.pXsXsX",
"sXtXR.3 p d s s s s s s g l Y z Y Y z Y Y ] ' ' ' ] ! F F F B.6.6.0.0.2.;.&.*.*.*.*.&.h.f.z.v.x.v.z.z.n.c.u.8 = W.sXsXsX",
"sXsXE.+ # u p s s s s s s s j Y z z Y Y c Q { { ' ] _ V m m N.3.9.9.2.;.*.-.*.*.-.*.d.g.c.v.x.c.x.x.v.x.t.: = = E.sXsXsX",
"pXsXE.+ @ ; y p a s s s s s s h x Y z z c c ( ] U 6 < @ @ + @ * 7 @.=.*.&.h.*.*.j.g.z.v.c.x.x.c.x.v.u.0 = = & 2  XpXsXsX",
"pXpX X  = ; = # u p s a d d s s g l x z x z k 6 . % =       % = = = 9 $.-.h.h.f.l.c.x.x.n.v.x.n.i.b $ = = = 2  X-XsXsXsX",
"sXpX2XY.> = = ; + 4 u p a a s s d a j x E v < % , 1 D.W.(.`.E.t > & o 7 #.k.b.x.c.c.c.z.l.c.i.t.$ @ = = = 2 XX6X2XsXsXsX",
"sXtX6X2X@Xw + = o @ : , y i p s s s s h v 4 ; o S.+X%X%X%X&X%X=X`.e = o 9 x.x.v.x.x.v.i.y.0 > = ; o ; : r -XeX-X6XsXsXsX",
"pXsXuX*XuX3XD.; : = = = = . 3 5 u i p p y . X D.%X&X+XQ..X.X(.+X>X$Xt @ - t.c.i.y.t.0 $ + % = = = ; > Y.qXrXeX+XtXpXsXsX",
"sXpXsX$XeXqXyXoXr = ; = - = % = ; O @ 3 , = w %X&X(.OX6X6X5X0XOX`.%X+X1 & $ $ @ + = = o - = = o > S.*XeXqXeXeX$XsXsXsXsX",
"sXsXsX-X0XeXyXqXqXXXr : ; = = o o = + : = = J.=XXX>X5X6X0X5X5X5XOXOX-Xt o X = = o X = = = ; > S.@XeXuXeXeXuX2X2XpXpXsXsX",
"sXsXsXuX$XqXuXyXyXeXyX*XJ.w   = ; + % o = = W.=X`.6X6X5X5X5X5X5X4X X-XU.% + ; + : + + = e T.<XeXyXeXuXuXeXeX&XuXsXpXsXsX",
"sXsXsXpX*XyXyXyXyXeXuXyXuXqX-XE.D.q > ; o = E.-X(.3X5X5X5X5X5X5X4X.X%XJ.; = = 1 w H.Q.<X0XeXeXeXyXyXeXqXeXeX@XpXpXsXsXsX",
"sXsXsXtX6X<XeXyXyXyXyXyXyXyXeXeXyXwX3X[.> + D.%XOXOX5X6X5X5X6X6X.X%X&Xe ; 2 @X0XyXeXeXeXeXuXeXeXyXyXyXyXeX*X6XsXsXsXsXsX",
"sXsXsXpXuX@XyXyXyXyXyXyXyXeXyXeXyXeXyXeXw > 2 XX%XXX`.>X4X5X&X(.+X&XW.; = D.uXyXyXeXeXyXeXyXeXeXyXyXyXyX0X$XsXsXsXsXsXsX",
"sXsXsXsXpX6X*XeXeXeXyXyXyXyXyXyXyXyXyXyX`.O = e +X-X%X X`.(.XX%X%XXXq ; 1 *XyXyXyXyXyXyXyXyXyXyXyXyXyXeX-X0XsXsXsXsXsXsX",
"sXsXsXpXsXsX*X6XeXeXyXyXyXyXyXyXyXyXyXyX7XS.; = w R.%X=X%X*X>X$XL.2 & = Y.eXyXyXyXyXyXyXyXyXyXyXyXyXyX6X%XpXsXsXsXsXsXsX",
"sXsXsXsXsXtXyXXXeXuXyXuXeXyXyXyXyXyXyXeXyX3Xt O ; o 2 D.J.J.t 2 o = ; J.eX0XyXyXyXyXyXyXyXyXyXyXyXyXeXoXtXpXsXsXsXsXsXsX",
"sXsXsXsXsXsXpXeX$XqXeXqXeXyXyXyXyXyXyXyXyXyX0XR.1 = = = % ; = = = q Q.eXyXyXyXyXyXyXyXyXyXyXyXyXyXyX$XeXsXpXsXsXsXsXsXsX",
"sXsXsXsXsXsXsXtX<X-XeXeXeXyXyXyXyXyXyXyXyXyXyXeX2XY.r q ; > q t E.6XeXeXyXyXyXyXyXyXyXeXeXyXyXyXyX-X2XsXpXsXsXsXsXsXsXsX",
"sXsXsXsXsXsXtXiXuX<X<XeXeXyXyXyXyXyXyXyXyXyXeXeXeXeXeX6X2X2X0XeXeXeXyXyXyXyXyXyXyXyXyXeXeXyXyXyX-X2XpXpXsXpXpXsXsXsXsXsX",
"sXsXsXsXsXsXsXsXsXpX2X-XeXeXeXeXyXyXyXyXyXyXyXyXyXyXyXyXyXyXyXyXyXyXyXyXyXyXyXyXyXyXyXyXyXeXeX&XR.uXpXsXsXsXsXsXsXsXsXsX",
"sXsXsXsXsXsXsXsXsXtXpX X XeXeXyXyXyXyXyXyXyXeXeXyXyXyXyXyXyXyXyXyXyXyXyXyXyXyXyXeXyXyXyXeXeX[.H.W.tXpXsXsXsXsXsXsXsXsXsX",
"sXsXsXsXsXsXsXsXsXpXiXW.H.R.2XeXyXyXyXyXyXyXyXyXyXyXyXyXyXyXyXyXyXyXyXyXyXyXyXyXuXeXiXtX<XL.P.H.-XpXpXpXsXsXsXsXsXsXsXsX",
"sXsXsXsXsXsXsXsXsXpXpX$XH.J.G.{.eXyXyXyXyXeXeXyXyXyXyXyXyXyXyXyXyXyXyXeXyXyXyXqXeXuXqX[.G.J.J..XpXpXpXsXsXsXsXsXsXsXsXsX",
"sXsXsXsXsXsXsXsXsXsXtXeXE.J.J.H.P.@XqXyXeXyXyXyXyXyXyXyXyXyXyXyXyXyXyXeXyXeXeXeX0XoXH.H.J.J. XeXsXsXsXsXsXsXsXsXsXsXsXsX",
"sXsXsXsXsXsXsXsXsXsXsXsXuX XJ.H.J.G.J.Q.<XyXyXyXyXyXyXyXyXyXyXyXyXyXyXeXyXeX2XQ.H.H.H.H.R.4XsXpXsXsXsXsXsXsXsXsXsXsXsXsX",
"sXsXsXsXsXsXsXsXsXsXsXsXsXsX6X{.Y.H.J.J.D.P.{.*X2XqXyXtXyXiXyXyXeXqX6X-X{.J.F.J.H.R. X2XsXsXsXsXsXsXsXsXsXsXsXsXsXsXsXsX",
"sXsXsXsXsXsXsXsXsXsXsXsXsXpXpXpXeX&XW.L.J.J.H.G.G.J.Y.R.R.R.R.R.Y.H.F.G.H.Y.W.@X3XtXsXpXsXsXsXsXsXsXsXsXsXsXsXsXsXsXsXsX",
"sXsXsXsXsXsXsXsXsXsXsXsXsXsXpXsXtXpXpXyX6X2XoX XE.R.T.R.R.R.E.E.W.{.@X-X6XuXtXsXpXpXpXpXsXsXsXsXsXsXsXsXsXsXsXsXsXsXsXsX",
"sXsXsXsXsXsXsXsXsXsXsXsXsXsXsXsXsXsXsXsXsXsXsXsXsXtXtXpXtXyXpXsXsXpXsXsXsXsXsXsXsXsXsXsXsXsXsXsXsXsXsXsXsXsXsXsXsXsXsXsX",
"sXsXsXsXsXsXsXsXsXsXsXsXsXsXsXsXsXsXsXsXsXsXsXsXsXsXsXsXsXsXsXsXsXsXsXsXsXsXsXsXsXsXsXsXsXsXsXsXsXsXsXsXsXsXsXsXsXsXsXsX",
"sXsXsXsXsXsXsXsXsXsXsXsXsXsXsXsXsXsXsXsXsXsXsXsXsXsXsXsXsXsXsXsXsXsXsXsXsXsXsXsXsXsXsXsXsXsXsXsXsXsXsXsXsXsXsXsXsXsXsXsX"
};
