/* XPM */
static char *_e663e62ec2c4e44d8819acf3ab791f7TWaocviEbQb1oHMx[] = {
/* columns rows colors chars-per-pixel */
"60 60 193 2 ",
"   c None",
".  c #2D2B2C",
"X  c #292629",
"o  c #34282C",
"O  c #312E31",
"+  c #353334",
"@  c #3B3436",
"#  c #363538",
"$  c #393739",
"%  c #3B3A3B",
"&  c #4F1F1C",
"*  c #43201C",
"=  c #59221F",
"-  c #5D2522",
";  c #582626",
":  c #403D3E",
">  c #573838",
",  c #662523",
"<  c #6B2724",
"1  c #632926",
"2  c #6F2926",
"3  c #652A2C",
"4  c #742A26",
"5  c #762D29",
"6  c #7A2C27",
"7  c #673C3B",
"8  c #6E3C3B",
"9  c #733A39",
"0  c #783835",
"q  c #63403F",
"w  c #7B423C",
"e  c #3F3F41",
"r  c #423E40",
"t  c #444344",
"y  c #474748",
"u  c #4B4B4C",
"i  c #484548",
"p  c #534142",
"a  c #594345",
"s  c #534A4B",
"d  c #5C4948",
"f  c #4E4F51",
"g  c #534F51",
"h  c #594F51",
"j  c #545354",
"k  c #595556",
"l  c #575759",
"z  c #59575A",
"x  c #57585A",
"c  c #58585B",
"v  c #644444",
"b  c #6B4243",
"n  c #644A4A",
"m  c #764645",
"M  c #605E5F",
"N  c #5F5E61",
"B  c #615F60",
"V  c #626263",
"C  c #6B6A6B",
"Z  c #696768",
"A  c #706E6F",
"S  c #6E6E70",
"D  c #776F70",
"F  c #737273",
"G  c #787576",
"H  c #7C7A7B",
"J  c #797778",
"K  c #862F2B",
"L  c #902E2B",
"P  c #8C302C",
"I  c #87302D",
"U  c #92322E",
"Y  c #9B342E",
"T  c #8C3331",
"R  c #873A38",
"E  c #8B3A39",
"W  c #943532",
"Q  c #993531",
"!  c #943D3B",
"~  c #9B3F3C",
"^  c #9A3A37",
"/  c #A2332D",
"(  c #AE362F",
")  c #AA3732",
"_  c #A43A35",
"`  c #AC3933",
"'  c #AA3C38",
"]  c #A23630",
"[  c #B43D36",
"{  c #BB3B34",
"}  c #C43C34",
"|  c #CC3D36",
" . c #CC3E39",
".. c #C63F38",
"X. c #D33D35",
"o. c #D33E39",
"O. c #DC3F38",
"+. c #DE3E36",
"@. c #EE3E35",
"#. c #E33F39",
"$. c #EF3F38",
"%. c #F13F36",
"&. c #F13F39",
"*. c #BB403C",
"=. c #CB413A",
"-. c #C3403C",
";. c #DD4037",
":. c #D54139",
">. c #DD423A",
",. c #D14037",
"<. c #E44236",
"1. c #EE4037",
"2. c #E3413A",
"3. c #EC4139",
"4. c #EE483F",
"5. c #F04037",
"6. c #F04038",
"7. c #925352",
"8. c #EE4B45",
"9. c #ED5047",
"0. c #EE5954",
"q. c #EB655E",
"w. c #CC6A67",
"e. c #C07E7B",
"r. c #EB6964",
"t. c #EA6E6E",
"y. c #E9716A",
"u. c #E0726E",
"i. c #ED7C78",
"p. c #E9857D",
"a. c #827F80",
"s. c #858384",
"d. c #888687",
"f. c #8D8C8C",
"g. c #888789",
"h. c #9D8989",
"j. c #949293",
"k. c #999798",
"l. c #9D9B9C",
"z. c #989697",
"x. c #A09E9F",
"c. c #B89E9D",
"v. c #A19FA0",
"b. c #A3A2A2",
"n. c #A7A7A8",
"m. c #ACABAC",
"M. c #A9A7A7",
"N. c #B0AFAF",
"B. c #B1AFB0",
"V. c #B5B4B4",
"C. c #B7B7B8",
"Z. c #BBBABA",
"A. c #B8B7B8",
"S. c #EC8F8A",
"D. c #EC8E87",
"F. c #EA9B98",
"G. c #EEA7A2",
"H. c #EFADAA",
"J. c #F0ADAC",
"K. c #F0B1AB",
"L. c #F3BEBA",
"P. c #F3B8B5",
"I. c #F7C3BE",
"U. c #C4C4C4",
"Y. c #CCCCCC",
"T. c #C9C7C8",
"R. c #D0CFCF",
"E. c #DAC5C4",
"W. c #D4D4D4",
"Q. c #DBDBDB",
"!. c #D9D6D6",
"~. c #E9CAC7",
"^. c #F8CCC9",
"/. c #F9DCDB",
"(. c #F8D5D1",
"). c #E4E3E4",
"_. c #ECEBEC",
"`. c #EAE7E7",
"'. c #FAE4E2",
"]. c #FDECEA",
"[. c #FAE6E3",
"{. c #FDF0EE",
"}. c #F3F3F3",
"|. c #FDF6F4",
" X c #FEFBFA",
".X c #FDFAF9",
"XX c #FFFFFD",
"oX c #FFFFFE",
"OX c white",
"+X c #FEFFFF",
"@X c #FEFEFD",
"#X c #FFFFFF",
"$X c #FEF8F7",
/* pixels */
"                                                                                                                        ",
"                                                                                                                        ",
"                                              = 5 L Y / ) ) ) ) / / U 5 1                                               ",
"                                        , U ` } X.+.3.3.2.3.3.3.3.<.;.X.} ) U 2                                         ",
"                                    < _  .O.3.3.5.5.5.3.3.3.5.3.3.%.3.5.$.3.#.=.` 2                                     ",
"                                < ` O.#.1.1.5.3.5.5.5.5.5.5.5.5.5.5.%.5.$.6.5.1.3.:.( <                                 ",
"                            > 7.w.u.y.q.9.3.3.@.1.5.5.5.5.5.5.5.5.5.5.5.1.6.5.5.3.3.1.:.Q -                             ",
"                          D c.~.'.].]./.H.r.5.3.1.5.5.5.5.5.5.5.5.6.5.5.6.6.5.5.%.3.1.1.2.{ 6                           ",
"                        z.!.$X@X@X@X@X@X.XL.0.@.1.5.5.5.5.5.5.5.5.5.6.5.5.5.5.6.5.5.5.5.5.3.| P                         ",
"                      m._.@X@X@X@X@X@X@X@X|.S.4.1.5.5.5.5.5.5.5.5.5.5.5.5.5.5.5.5.5.5.5.5.5.3.:.Y                       ",
"                    m._.@X@X@X@X@X@X@X@X@X@XH.8.3.5.5.5.5.5.5.5.5.5.5.5.5.5.5.5.5.5.5.5.5.5.5.1.;.]                     ",
"                  h.`.@X@X@X@X@X@X@X@X@X@X@XH.8.@.5.5.5.5.5.5.5.5.5.5.5.6.5.5.5.5.5.5.5.5.5.5.5.5.;.Q                   ",
"                m E.@X@X@X@X@X@X@X@X@X@X@X XG.8.3.5.5.5.5.5.5.5.5.5.5.5.5.5.5.5.5.5.5.5.5.5.5.5.5.1.:.I                 ",
"              < e.'.@X@X@X@X@X@X@X@X@X@X@X[.i.$.5.5.5.5.5.5.5.5.5.5.5.5.5.5.5.5.5.5.5.5.5.5.5.5.5.6.3.} 4               ",
"              / F.|.@X@X@X@X@X@X@X@X@X@X XL.0.5.3.%.5.5.5.5.5.5.5.5.5.5.5.5.5.5.5.5.5.5.5.5.5.5.5.5.3.3.( =             ",
"            K :.G.$X@X@X@X@X@X@X@X@X@X@X(.i.@.5.5.%.5.5.5.5.6.6.5.5.5.5.6.6.5.5.5.5.5.5.5.5.5.5.5.5.5.5.<.P             ",
"          = -.@.F.{.@X@X@X@X@X@X@X@X@X'.D.3.5.5.5.5.5.5.5.5.5.3.3.2.>.o. . .>.<.1.#.%.%.5.5.5.5.5.5.5.3.3.| -           ",
"          U <.3.r.(.@X@X@X@X@X@X@X@X/.p.4.5.5.5.5.5.5.5.5.5.3.<.{ T 9 b v b 8 W { 8.1.%.5.5.5.5.5.5.5.@.3.3.Y           ",
"        = } @.6.%.D./.$X@X@X$X|.'.P.r.4.1.5.5.5.5.5.5.5.3.3.o.E a j l x z z k j a E :.3.%.5.5.5.5.5.5.5.1.1.=.=         ",
"        L >.3.%.5.@.t.J.^.^.I.G.y.4.3.@.5.5.5.5.5.5.5.5.3.} 8 j l l j c V c l j z s 9 } 3.5.5.5.5.5.5.5.5.1.<.Y         ",
"        { @.3.3.5.%.%.@.3.<.@.@.@.3.3.5.5.5.5.5.5.5.5.3.} 8 j z f F b.U.T.U.B.s.j z j 9 ,.3.5.5.5.5.5.5.5.5.3.{ *       ",
"      2 X.3.%.5.5.5.%.%.5.%.5.5.5.5.5.5.5.3.1.5.5.5.5.;.R k z j g.W.).Q.Q.!.).).m.z l j ! <.5.5.5.5.5.5.5.6.3.X.5       ",
"      W O.5.5.5.5.5.5.5.&.5.$.$.5.3.5.5.5.3.<.;.>.:.=.^ d z z a.Q.Q.R.)._.`.W.W.`.m.j l v } 3.5.5.5.5.5.1.6.1.#.Y       ",
"      ) 3.5.5.5.5.5.%.5.%.$.$.$.3.>.,.[ _ T 0 0 8 q v d l z V U.).W.}.+X+X+X+XQ.W._.G x u ! 2.3.%.%.5.5.6.6.&.3.(       ",
"      { 1.6.1.6.&.&.&.6.3.:. .' R 7 a s h k z z k l l l c l G `.!._.+X+X+X@X@X@XT._.V.f j q _ ..;.#.1.1.6.1.3.3.{ ;     ",
"    < } 1.$.6.1.#.#.o.{ ! 7 r u l z c c z z z c x k c c c l j._.R.+X+X+X@X@X@X@XQ.).W.i x l s r 8 _ -.:.3.1.6.3.| 4     ",
"    5 | 3.$.2.o.' ! b s g l N N z z c c z z x c c x c c x x k._.R.+X+X+X@X@X@X@X`.W.).t x N j N l j a w ' | 8.#.o.K     ",
"    I :.o.{ ! m s g l l N l l l c c c z z z x x c c c l N x g._.R..X+X+X@X@X@X@XQ.).W.i l l N f c c z j s b ^ } =.E     ",
"    3 T 0 d j l x c c N x x x x x x c c x N l x x x x x x l S ).Q.).+X+X+X+X+X.XT._.n.j N l l N l l l l l l h n 9 ;     ",
"    o @ r l c c c c c x c l l l c c x x x x x x c x x l l x N V.).T._.+X+X+X}.R.Q.).C x l l N j N l N l c l z l j r     ",
"    . # % f c c x c x c x x l l N N Z Z G s.l.m.Z.T.R.n.N x l C Y._.U.Y.!.R.U.Q.`.g.j l l l j N j N l N l N z c x i     ",
"    . # # e j x c c x l c C a.f.b.Z.W.).}.+X@X@X@X@X+X_.f.x x j S U._.).!.Q._.!.j.x l x F s.F N f f l l l c x c x i     ",
"    O # # # r u f f N S m.R.).}.@X@X@X@X@X@X@X@X@X@X@X@XW.F j z j f g.m.Z.C.k.V f l l H W._.Q.U.n.g.V u j l x x x t     ",
"    X # # O # l S a.f.v.).@X@X@X@X@X@X@X@X@X@X@X@X@X@X@X+XY.S f z z j u y y f l x j F W.+X@X@X@X.X_.W.C.f.N u l l t     ",
"    X O r C s.z.l.v.v.b.T.@X@X@X@X@X@X@X@X@X@X@X@X@X@X@X@X@XQ.g.u j x l l x l j f f.Q. X@X@X@X@X@X@X@X.X_.Q.Z.S u @     ",
"      Z j.l.l.v.v.v.v.v.B.}.@X@X@X@X@X@X@X@X@X@X@X@X@X@X@X@X@X}.Y.f.M x l l V j.Y.}. X@X@X@X@X@X@X@X@X@X@X@X.X_.n.      ",
"      F l.v.v.v.v.v.v.v.n.!.@X@X@X@X@X@X@X@X@X@X@X@X@X@X@X@X@X@X X.X}.Q.!.Q.}..X@X@X@X@X@X@X@X@X@X@X@X@X@X@X@X}.N.      ",
"      B z.v.v.v.v.v.v.v.v.Z.}.@X@X@X@X@X@X@X@X@X@X@X@X@X@X@X@X@X@X@X@X@X@X@X@X@X@X@X@X@X@X@X@X@X@X@X@X@X@X@X@X_.f.      ",
"      # g.v.v.v.v.v.v.v.v.M.Q.@X@X@X@X@X@X@X@X@X@X@X@X@X@X@X@X@X@X@X@X@X@X@X@X@X@X@X@X@X@X@X@X@X@X@X@X@X@X@X+XW.u       ",
"        F l.v.v.v.v.v.v.v.x.A.}.@X@X@X@X@X@X@X@X@X@X@X@X@X@X@X@X@X@X@X@X@X@X@X@X@X@X@X@X@X@X@X@X@X@X@X@X@X@X.XV.        ",
"        i j.x.v.v.v.v.v.v.v.b.R.}.@X@X@X@X@X@X@X@X@X@X@X@X@X@X@X@X@X@X@X@X@X@X@X@X@X@X@X@X@X@X@X@X@X@X@X@X@X_.Z         ",
"          F x.x.v.v.v.v.v.v.v.M.). X@X@X@X@X@X@X@X@X@X@X@X@X@X@X@X@X@X@X@X@X@X@X@X@X@X@X@X@X@X@X@X@X@X@X@X@XZ.          ",
"          i z.x.v.v.v.v.v.v.v.v.N.`.@X@X@X@X@X@X@X@X@X@X@X@X@X@X@X@X@X@X@X@X@X@X@X@X@X@X@X@X@X@X@X@X@X@X@X_.C           ",
"            C l.v.v.v.v.v.v.v.v.v.A._.@X@X@X@X@X@X@X@X@X@X@X@X@X@X@X@X@X@X@X@X@X@X@X@X@X@X@X@X@X@X@X@X@X}.M.            ",
"            r s.v.v.v.v.v.v.v.v.v.v.A.`.@X@X@X@X@X@X@X@X@X@X@X@X@X@X@X@X@X@X@X@X@X@X@X@X@X@X@X@X@X@X@X}.Z.j             ",
"              z j.v.v.v.v.v.v.v.v.v.v.V.).@X@X@X@X@X@X@X@X@X@X@X@X@X@X@X@X@X@X@X@X@X@X@X@X@X@X@X@X@X_.Z.V               ",
"                Z k.v.v.v.v.v.v.v.v.v.v.m.W.}.@X@X@X@X@X@X@X@X@X@X@X@X@X@X@X@X@X@X@X@X@X@X@X@X@X X).V.C                 ",
"                @ F l.v.v.v.v.v.v.v.v.v.b.b.Z.`.@X@X@X@X@X@X@X@X@X@X@X@X@X@X@X@X@X@X@X@X@X@X@X}.T.b.G #                 ",
"                  % 7.l.b.b.x.b.x.x.b.x.x.x.b.n.T._..X@X@X@X@X@X@X@X@X@X@X@X@X@X@X@X@X+X.X}.W.B.x.a.%                   ",
"                    e s.k.b.x.x.x.b.x.x.x.b.x.b.v.M.U.Q.}..X X@X@X@X@X@X@X@X@X@X+X.X}.`.Y.N.b.l.H O                     ",
"                      % S j.b.x.x.x.b.b.b.l.x.b.v.x.x.b.V.T.W.)._._._.}.}._._.).Q.Y.Z.M.v.v.j.F %                       ",
"                        # N f.x.b.x.x.x.b.b.b.b.v.v.x.v.l.v.v.b.m.V.C.C.C.C.m.M.v.v.v.x.v.f.V +                         ",
"                            s J k.v.v.v.l.b.b.l.v.v.v.v.v.v.v.v.v.x.x.x.l.l.b.x.x.x.x.l.H j                             ",
"                              % x g.l.l.b.l.v.v.v.v.v.v.v.v.v.v.v.v.v.v.b.b.x.b.x.x.f.z +                               ",
"                                  % N g.z.l.b.l.v.v.v.v.v.v.v.v.v.v.x.v.v.v.l.k.d.B %                                   ",
"                                      . f J g.j.k.l.x.v.x.b.v.x.v.x.l.k.z.g.J j .                                       ",
"                                            + j C F H a.s.d.s.s.s.H F Z k +                                             ",
"                                                      + : : : : +                                                       ",
"                                                                                                                        ",
"                                                                                                                        "
};
