/* XPM */
static char *_46b90ac68e34185d7e19217ab2fbf58D507OSTlg2xXqLaq[] = {
/* columns rows colors chars-per-pixel */
"60 60 23 1 ",
"  c black",
". c #040404",
"X c gray4",
"o c #0C0C0C",
"O c #101010",
"+ c #151515",
"@ c #181818",
"# c gray11",
"$ c #202020",
"% c #252525",
"& c #2A2A2A",
"* c #2C2C2C",
"= c gray19",
"- c #343434",
"; c #393939",
": c #3C3C3C",
"> c #414141",
", c #444444",
"< c gray29",
"1 c #4C4C4C",
"2 c #505050",
"3 c #555555",
"4 c gray34",
/* pixels */
"             . ..........X... ...........                   ",
"          .  ....  .......X..X.XX.X....  . .                ",
"         .    ..........X...X.XXXX.XX..X .  .               ",
"           .... ....X..X.XXXXXXXXXXXX.... ..   .            ",
"          .  .......X...XXXoXooooooXXX... .  .              ",
"           ... ......XXXXXooooOOOoooXXX....                 ",
"        . .  .....X.XXXXXXOOOOOOOOOoXXXX...... .            ",
"           ........X.oXoOoOOOO+++OOOOoXXX .                 ",
"       .  ..... ..XXXooOOOO++++++O+OOOXXX..                 ",
"    .   .  ....XXXXooOOOO+++++@@@++OOOOoXX......   ..       ",
"   .   ........XXXoooOOO+++@@@@@@@@++OOOX.....   . ..     . ",
"    .   ....X.XXXXOOOO+++@@@#@###@@@++OOooX....          .  ",
"     .......XXXoooO+++@@@#########@@@++OooX....  ..    . . .",
"     ......XXXoOOOO++@@@###$$#$$$#$#@@+O+XoXX. .... .   . . ",
"   .......XXXoOOO++@@@###$$$$$$$$$$$#@@@OOoX....     .... . ",
"  . . ...XXoXoOO++@@####$$$$%$%%%$$$#$@@@+oooX.......  . ...",
"   .....XXoooOO++@@@##$$$%$%%%%%%%$$%###@O+ooXX......  . ...",
".  .....XoooO++@@@##$$$%%%%%&%%&%%%%%%###++OooX.X.. ... . . ",
"   ....XXoOO+++@@#$$$$%%%&%&&&&&&&%&%$%#@#++OoooX..X........",
". ....XXooOOO++@##$$%$%%&%&&&&***&&&&%%$$#@++OooXXo.XXX.....",
"  ....XXoOOO++@###$$%%%%&&**********&&%%$#$+++OOooooX.... ..",
" . ..XXXoOO+@@@##$$%%%&&&&*=*=====****&%%$##@@++OOooXXX..X..",
" ....XXooO++@@@#$$%%%%&&***=========***&%%$$@#@++Ooooo......",
"  ...XooOO++@@##$$%%&&&***===-=-=-=-==***&%$$#@#++O+ooXXX...",
"....XXXoOO++@##$$$$&&&*====----------==*&&%%%$##@@+O+OoX....",
" . XXXooOO+@@@#$$$&%&**===-----;;------==**&%%$$##@++OooX...",
" ...XooOO++@##$$%%%%&&*===---;;;;;-;;---=**&&%%$###@O+OoX...",
" ..X.XoOO++@@##$$%%&&*==---;;;;;:;;;;;----=*&&&$$$#@++OoXX. ",
" ...XXooO+++###$%$&&&*==---;;;::::;;;;;---===*&%%#$#@+OOXX .",
" ...XXoOo++@@##$$%%%**==--;;;;:::::::;;;;---=*&&&%$#@@+OXX..",
"...XXXoOO++@@@###%&%**=---;;::::::::::::;;;--=**&%%##@+OoX. ",
" ..X.oooOOO+@##$$$%&**=--;;::::>>>>>>::::;;---=*&&%$$@+OoX..",
" ...XXXoOOO++@@$$%%%&*=--;;:>:>>>>>>>>>::::;;-==*&&$$@+Oo.. ",
" ....XXXO++@+@#@%$%&&*---;::::>>>,,,>>:>>>:;-;==*&%$$@+OXX. ",
" ...XXXoOOOO++@#$#%%**---;:::>,,,,,,,,>>:>::;;-=**%%$@+OXX. ",
"  ....XXoOO+O++@#$%%&&=--;:>>,,,,,,,,,,,,>>:::--*&&%$@+oX. .",
"  ...XXXXXooOO@@##%&&*=-;:>:>,,,<<,<,,,,,>>::;;-=*&$$@+o... ",
"   ...XXXXooO+O@##$%&*=-;::>,,,<,<<<<<<,,,>>::;-=*%%#+OXX.. ",
"  .....XXXooOOO++##%%*--;:>>,,<<<<<<<<,,,,,>:;;==*&$@+Oo....",
" . ...X..XXXooOo+##$&**-::>><,<,<<<<<<<<,,,>>:;-=&&$#+oX .  ",
"   . .....X.XoOOO@$$&&=-;:>,,,<<1111<<<<<,,>::;==&$$@Oo.. . ",
"    .........oo+O+#$%&=-::>,<<<<12111<<<<,,:::;=*&%#@Oo.....",
"   . . ..X.XX.XoO@@$%&=-;:>,<<1111111<<<,,,>:;-=*&$@+OXX.. .",
"      .. .....oXO+@$%&-=;,><,<12111111<,<,>::;-=&%$+OoX ....",
"   . . .   ..X.oo@@#$&&;;>,<<111222<11<<,>>:;;=*&$#+OXX... .",
"         ......XoO@$%&=;;;,<<2122221<<<,,,;:;-=&%$@+oX.... .",
"      ....   X.XoO+#$*==:,,<222222211<<>>>:;-=*%%#@OoX......",
"          . ...XX+O#$&&;;>,,2122222<<<><>;-;-*%&#@OoX.......",
"           . .X.Xo+@$&==>><112412212<<,::::==&&##@Ooo.. ....",
"      . . . ...XXo++$&=;;,>1421441211,>,:--=&*%$@OoX.XX.....",
"           . ...XXO#$%*-:><11444241,<>,;;--&&$##++oXX..X.. X",
"            .. XXXO+#%=-:,,<14142212:,;:-=&*%%#@+ooo..X.X...",
"          .. .X.Xoo+$%*-:,,12244422,2>:;;=-*%$@@Ooo.XX.X.X..",
"            .. ..oO+$$*-;:<12141442<>>;;=*&*$#@@ooXX........",
"             ....Oo+@$&-;,,<2224122<,>:=-&*$##@OOXX..X.....X",
"          . . ...XOO+&%*;>,<<441222,<::;-*&%#@+OoXXX...XX...",
"           . .. XXo+@$&*-:,1<1444112:>,=-%%%#@OXX.X..X......",
"            . .XX.+oO#$&-->,<12244<,1::-=*%#@ooXX..XX..X.XX.",
"             ....XoO#+$%&;::,2<22111,>>-*&%@++XoXXX.X..XX.X ",
"            . .oXX+O@$#%**-,><2,44<12:,:==%$#+ooXX.X..X..X.X"
};
