/* XPM */
static char *_a210f8619c548db93b9c675f41b9076T7gxAMp5DDjWothR[] = {
/* columns rows colors chars-per-pixel */
"60 60 231 2 ",
"   c #0085D6",
".  c #0282D9",
"X  c #0986DB",
"o  c #058ADE",
"O  c #0C8ADE",
"+  c #1789DD",
"@  c #118EDD",
"#  c #0E92DD",
"$  c #1290D7",
"%  c #1392DE",
"&  c #1994DE",
"*  c #248BDB",
"=  c #308EDC",
"-  c #0787E0",
";  c #058BE2",
":  c #0C8CE1",
">  c #128EE2",
",  c #188DE1",
"<  c #0E91E2",
"1  c #1493E2",
"2  c #1996E3",
"3  c #1799E3",
"4  c #1C9BE5",
"5  c #1094E9",
"6  c #1E9EE9",
"7  c #2394E2",
"8  c #2E97E1",
"9  c #219EE6",
"0  c #2B9AE5",
"q  c #209EE8",
"w  c #3495E1",
"e  c #3C93E0",
"r  c #359CE5",
"t  c #3B9DE3",
"y  c #1FA2E5",
"u  c #14A2E9",
"i  c #1DA0E9",
"p  c #23A2E7",
"a  c #2BA5E6",
"s  c #2DAAE7",
"d  c #25A4E9",
"f  c #2AA6EA",
"g  c #26AAEB",
"h  c #2DAAEC",
"j  c #36A5E5",
"k  c #3FA4E9",
"l  c #31ADEC",
"z  c #34B2EE",
"x  c #3AB4EE",
"c  c #3CBAEF",
"v  c #2EADF1",
"b  c #31ADF1",
"n  c #35B2F1",
"m  c #3AB6F1",
"M  c #37B8F4",
"N  c #3DBBF3",
"B  c #5A9DDB",
"V  c #6CA3DD",
"C  c #71A8DD",
"Z  c #7AB4DF",
"A  c #4E95E0",
"S  c #449AE3",
"D  c #4998E2",
"F  c #5298E2",
"G  c #639FE2",
"H  c #43A3E6",
"J  c #47A4E5",
"K  c #46A9E6",
"L  c #49A6EA",
"P  c #43ADEB",
"I  c #4BACEC",
"U  c #55A3E5",
"Y  c #53A8E5",
"T  c #57ABEA",
"R  c #49B3ED",
"E  c #42BDEE",
"W  c #53B5EB",
"Q  c #5CB4ED",
"!  c #5EBBEE",
"~  c #43B2F1",
"^  c #41BDF4",
"/  c #4ABCF3",
"(  c #4AB8F4",
")  c #5EBBF2",
"_  c #6AA6E4",
"`  c #64ADE7",
"'  c #62AFEB",
"]  c #77ACE5",
"[  c #65B5EC",
"{  c #68B7EC",
"}  c #6BBFEF",
"|  c #7BB0E6",
" . c #78BAEB",
".. c #6AB4F0",
"X. c #78BBF1",
"o. c #3EC0F4",
"O. c #59C3EF",
"+. c #44C2F5",
"@. c #4AC5F6",
"#. c #4BCAF6",
"$. c #45C3F9",
"%. c #49C6F8",
"&. c #4CC9F8",
"*. c #54C6F4",
"=. c #5BC2F3",
"-. c #54CCF6",
";. c #59CAF5",
":. c #52CDFA",
">. c #4CD0F7",
",. c #55D2FB",
"<. c #5AD5FC",
"1. c #5DD9FD",
"2. c #74C0EE",
"3. c #7DC5ED",
"4. c #63C4F4",
"5. c #6EC5F3",
"6. c #65CDF5",
"7. c #6BC9F2",
"8. c #69CBFA",
"9. c #74C5F1",
"0. c #79C3F2",
"q. c #73CBF5",
"w. c #7DCBF4",
"e. c #7FCEFA",
"r. c #61D4F5",
"t. c #63D5FA",
"y. c #6BD3F9",
"u. c #74D5F5",
"i. c #73D6FA",
"p. c #78D8FA",
"a. c #7DDAFB",
"s. c #85ABE5",
"d. c #88B9EB",
"f. c #99BEE6",
"g. c #A6BFE3",
"h. c #8BC6EE",
"j. c #95C6EA",
"k. c #9BC4EB",
"l. c #9CD3ED",
"z. c #83C4F2",
"x. c #83CBF4",
"c. c #8AC9F4",
"v. c #8DCDF4",
"b. c #85CCF9",
"n. c #95CEF4",
"m. c #8AD6F7",
"M. c #85D2FA",
"N. c #8CD4F9",
"B. c #84DBFA",
"V. c #95D3F3",
"C. c #9BD4F3",
"Z. c #93D9F5",
"A. c #9CDBF6",
"S. c #94D4FB",
"D. c #9AD5FB",
"F. c #94DEFC",
"G. c #9CDAFC",
"H. c #A6C6E7",
"J. c #A4CDEC",
"K. c #A9CFEE",
"L. c #B5C9E6",
"P. c #B4CCEC",
"I. c #A9D4EC",
"U. c #BCD5ED",
"Y. c #B9D9EC",
"T. c #A5CDF0",
"R. c #ACCEF2",
"E. c #A7D7F1",
"W. c #A6DCF5",
"Q. c #ABDCF4",
"!. c #A2DBFB",
"~. c #ACDDFA",
"^. c #BBD6F2",
"/. c #B4DBF4",
"(. c #BCDAF3",
"). c #B9DEFA",
"_. c #8FE2FC",
"`. c #96E3FD",
"'. c #9DE3FA",
"]. c #A5E1F6",
"[. c #ACE1F7",
"{. c #A5E6FB",
"}. c #ACE5FC",
"|. c #ACE9FC",
" X c #B9E8F7",
".X c #B3E4FC",
"XX c #BBE3FA",
"oX c #B2E9FB",
"OX c #BBEBFB",
"+X c #C7DCEE",
"@X c #C3DAF1",
"#X c #C3DBF6",
"$X c #C9DDF2",
"%X c #CBE1EF",
"&X c #D5E4EF",
"*X c #C3E4F5",
"=X c #CBE3F3",
"-X c #CBE9F6",
";X c #C2E5FB",
":X c #C9E6F9",
">X c #C4EBFB",
",X c #CCECFB",
"<X c #D3E4F3",
"1X c #D3EAF4",
"2X c #DBEBF5",
"3X c #D6E7F9",
"4X c #D4EDFB",
"5X c #DAEEFB",
"6X c #CCF1FC",
"7X c #D4F1F4",
"8X c #DDF2F7",
"9X c #D4F1FC",
"0X c #DCF2FB",
"qX c #E2ECF6",
"wX c #E8EDF3",
"eX c #E3EFF9",
"rX c #E5F3F6",
"tX c #ECF4F6",
"yX c #EFFAF7",
"uX c #E5F5FC",
"iX c #E6F6FD",
"pX c #EDF5FA",
"aX c #EAF5FC",
"sX c #E9F6FD",
"dX c #E6F9FD",
"fX c #EDF9FC",
"gX c #F4F9F6",
"hX c #FBFCF6",
"jX c #F2F6FB",
"kX c #F4FAFC",
"lX c #FAFCFC",
/* pixels */
". . . . . . . . . . . . . . . . . . . . . . . . . . . . . . . . . . . . . . . . . . . . . . . . . . . . . . . . . . . . ",
". . . . . . . . . . . . . . . . . . . . . . . . . . . . . . . . .   . . . . . . . . . . . . . . . . . . . . . . . . . . ",
". . . . . . . .   . . . . . . . . . . .   . . . . . . . . . . . . X . . . . . . . . . . . . . . . . . . . . . . . .   . ",
"= g.L.A X . . . X . X X . . . X . . . . X . X X . . . . . . . . . . X X . . . . . . . . X X . . . . . . . . . . X X . X ",
"2XpXfXuXg.] + . X X X X X X X X X X X X X X X X X X X X X X X X X X X X X X X X X X X X X X X X X X X X X X X X X X X * ",
"sXdXsXtXjXjXg.X X X X X X X O X X X X X X + X X X X X X X X X X X X X X X X X X X X X X X X - X X X X X X X X X O X + f.",
"pXtXuXuXuXsX3XG O O X O X O : O X . X O X X O X - O - O O O + X O O O O o O O O + X O O O O   - O O O O X O X + : C tXsX",
"4X:X).:XuXqX5X<XO O : O O O X V +XwX$X_ - . o ; + : O O O O O O O O O O : O O O X O O X ] s.5X<XS - + O : O O X X ^.uXsX",
";XD.M.!.!.b.XXd.: @ O O - O | kXsXuXsXsXL.pXpXH.: @ O @ O : + O o X O o o O O @ @ O O ] tXsXsXlXL.* X : : @ O O @ d.4X:X",
"& S D 7 e 2 w # @ : % D U.U.tXlXsXsXsXsXlXlXlXlX_ w > $ > > 1 C &X+XP.<X1XF @ : : : % | uX4XuXuXsX3XS > O % 1 O @ : t L ",
"% O 1 @ O @ % > % > * <XsXjXsXuXsXsXuXdXsXfXsXuXjX=X_ U 2 % d.fXaXuXdXuXfXtXD @ % % 1 O [ 3X~.,X5X*XS O @ : 1 O @ @ @ > ",
"1 % % 1 1 2 < > | =X8XfXuX0XsXsX0X4XsXsXsXsXsXpXrXuXfXfXf.+ D f.).XXD.:X/.j.7 % + ] > % @ K A.^.x.J 1 % < 1 # % 1 @ 5 % ",
"1 % 1 1 2 B L.P.uXuXuXuXtXXXS.D.:XsXuXuXqXsX;X~.S.4XuXaXrXtX/.U.T = 0.z.k 1 % d.aXpXK.2 1 1 @ : % 1 1 1 & < o % % 5 2 1 ",
"1 1 1 1 1 /.5X*X4X;XG.v.S.S.z.S.XXrX4X~.S.S.S.S.v.D.D.~.).,X:X@XT 1 % 2 % & % ` *XQ.=X& 1 2 2 2 & 1 1 2 2 Y.kX(.+XH.1 & ",
"2 1 1 2 2 8 r r ....k 0 T r 7 q.N.c.[ c.S.S.b.Y 2 L I 8 L Q r 2 2 3 1 3 2 2 2 & 7 t L & 1 3 2 2 2 1 2 2 S kXfXjXtXkX .% ",
"d.0 4 2 2 2 2 4 & 4 2 & 1 3 3 3 7 4 2 1 3 3 1 2 3 2 4 2 2 2 2 2 2 2 2 2 2 2 4 3 4 4 3 3 2 2 2 2 2 4 2 U 1XsXsXuX8XuXgXk.",
"tX2XT.7 4 4 6 4 4 2 4 2 4 3 2 4 4 2 2 4 4 2 2 4 4 2 2 3 2 4 4 4 2 4 2 4 2 4 4 4 4 4 4 2 2 4 2 4 4 4 Z <XsXsX.X4XuXpXsXsX",
"uX5XuX .4 4 3 2 4 4 4 4 4 4 4 4 4 4 4 4 4 4 4 4 4 4 4 4 4 4 4 4 4 4 4 4 4 4 4 4 4 2 4 4 4 4 4 4 2 E.1XsX:X).D.XXuXeX4X,X",
"S.3.K 6 4 4 6 9 q 9 4 q 7 y 4 q q 4 4 4 4 6 6 4 7 4 9 6 q 4 4 9 6 6 4 6 4 p 6 4 4 q 9 4 6 4 q 4 9 q [ b.X.b.e.z.c.S.b.D.",
"H 4 4 9 q 9 q q q 6 q q q q y 9 p 9 i p q q 4 T 6 9 9 6 4 q q q q q p q q 4 9 6 4 q q 6 p 4 9 9 q 9 9 9 4 4 4 6 q d 6 I ",
"p 6 q 9 9 p 6 4 9 q 9 p 9 9 q 4 0 6 9 H j Y wXkX*X' 4 0 p i p 6 p 4 p 4 p 6 9 9 9 p q p & d p 9 q 9 q 9 p 4 p 4 9 9 9 9 ",
"p p p p y p p p p p 6 p p 9 p d p J.rXjXaXrXhXfXpXgXP.h.0 d p p p p p p 9 p p p p 9 9 k.qXj.4 d p p p p p p p p 9 d p d ",
"d p p d d p p p p p p p d d 0 I I.sXsXjXsXsXsXpXuXpXsXsXJ.R.' d p p p p d p K T. .=X+XlXpXtX3Xk.p p p p p p p p p p p p ",
"d d p y f d p d p d p d d 6 /.pXpXuXuXsXsXaXuXrXaXaXsXuXpXpX5Xj d d p d d p (.fXkXsXsXsXsXuXsX-Xp d d p p d p d d p p d ",
"J.<XhX(.d f f d f d f d g u eXtXsXuXrXsXuXuXpXOXXX,X4XuXuXpXjXI d f d d f p 4XXXuXdX8X7X;X4XoXC.d d d f d f d f d d d h ",
"lXlXlXkX3.T d f f f f f f f } /.;X4X,X;X.X4XuX<XW.uXuXuX4X}.V.a g f f f f f h j Z.:X>Xx.~ j H d f f f f f f f f f h f =X",
"uXuXsXsXkXgX(.s h f f h f f s g 0.:XXXG.G.,XpX;XF.G.!.G.C.R h h h h g h f h f f j R P f f h h g s f h f h h f f f f Q jX",
"uXdXuXuXyXjXhXX.f h h h h h h h h ) 5.[ D.G.V.S.G.G.!.W h h j h h h h h h h h h h s h h h h h h h h h h h h h h s v.1XdX",
"uXsXsXsXuXsXlX3XI.h b h h h s h h h h l z x h x 5.9.W h h h h l s s l l s j l [ { j h b h l l h h h h h h h l s Q rXsXuX",
"XX;X4XjXkXkXkXkXkXT.l v l h z l h l l l l v h v v h n l h z l l l l h j.=Xn.0XlXkX2XR l s l l l z l z h l h h l z.sXsX,X",
"uXsXsXsXuXuXuXuXuXrX^.=Xn.P ! s z l l l l l l l l z z v z h z h l l P gXjXkXjXuXaXjXY.v l l z h l z z l z d g ^ XX>XXX4X",
"sXdXsXuXfXsXdXuXsXjXsXsXjXrXkXXX(.3.n z n l z l z l h z z z z z z z x pXuXsXjXjXsXsX4Xz l z z z l z h n { 2XfX1XsXjXsXuX",
"uXuXuXuXuXuXuXuXuXuXsXuXsXsXuXsXuX8XR.z z z z z z z z z z z l n z R tXjXpXsXsXuXsXaX#XQ n z z z z z z x 2XrXuXuXpXsXrXuX",
"uXsX,XXX5X5X,X;X0XuXfXdXuX0X5XsXuXrXsXP z z z z z z z z x R 3.) z 2.lXfXsXsXuXuXjXjXlXtX} x z z z z z x 1XdX4X,XuXsX0XuX",
"sXsX4XG.G.G.>XuXuX~.XX;X.XG.!.!.v.XXV.z x x z x z x x M x 2XpXpX-XjXkXjXsXsXsXsXsXsXuXsX1Xh.x n z M z x c ) w.!.~.}.G.sX",
"fXdXXXG.G.G.G.~.!.G.!.D.S.N z n M z z x x x M x m z x V.W.sXsXuXsXuXsXuXuXuXsXsXsXuXdX0XuX3X3.c x x M x m x ^ 5.w.!.G.0X",
".XXX!.G.G.G.G.x.F.!.G.x.^ m c x c x x m m m m m m N l.tXtX5X0X5X0XpX5XuXuX5XsX0X4X4X:X;XpXsXrXn.m N m m x m m N M x.!.A.",
"N.G.G.!.N.^ N m N / ^ M N c m N N N N N m N N N m N v.XXXXuX}.G.5XuX;XG.XXsXpX5XuX4XG.~.rX4X8XpXn.m m N N m N N N m ) e.",
"N / *.( m ^ N N N M N ^ N N N N N ^ N ^ N N ^ N N N N N 7.b.w.G.G.G.A.G.!.,XXXG.b.M.8.!.G.q.w.~.4.E N N N N ^ N N N N N ",
"^ N ^ ^ ^ ^ ^ ^ ^ ^ N N ^ N N N ^ N N N N N N N N o.^ N N N N N N G.G.G.N.4.M.=.^ M N +./ N N N ^ N ^ N N N N N N N N N ",
"^ N N N N ^ +.N ^ $.o.+.N ^ ^ ^ ^ ^ ^ N N ^ ^ N N N N N ^ N N ^ N #.w.q.+.N ^ N ^ ^ N N ^ N N ^ ^ N ^ N N ^ ^ N N N ^ ^ ",
"+.+.+.+.$.o./ o./ N ^ N q./.O.+.+.^ +.+.+.+.N +.$.+.+.+.+.+.$.^ ^ / $.+.+.+.$.o.^ +.+.+.+.+.+.$.+.+.+.+.+.$.N +.$.+.+.^ ",
"+.+.+.+.+.+.o.E.kXuX1XeXdXsXE.$.+.+.+.+.+.+.+.+.+.+.+.+.+.^ +.+.+.+.+.o.+.+.+.+.+.+.+.+.+.+.+.+.+.+.+.+.+.+.+.+.+.+.+.+.",
"+.+.+.+.+.+.+.-XuXsXdXsXsXdXXX/ +.+.+.+.+.+.+.+.+.+.+.9.V.8.+.$.+.@.+.+.+.+.+.+.+.+.+.+.+.+.+.+.+.+.+.+.+.+.+.+.+.+.+.+.",
"+.+.%.+.+.#.x.pX0X0XuXuXuX4X.X+.+.%.+.+.+.+.+.+.+.+.N.gXlXuX/.5.+.%.+.+.+.+.+.@.$.$.$.@.@.+.+.@.@.@.$.+.+.@.+.+.+.+.%.+.",
"%.$.%.%.%.%.@.].{.>X6XuX:X7.%.&.%.$.%.@.%.%.#.@.%.+.tXlXlXkXlXuX@.@.%.%.%.@.%.@.@.@.@.@.@.$.@.@.%.@.+.%.@.%.&.+.+.%.+.&.",
"%.%.%.%.%.@.+.%.8.'.|..X'.+.#.%.%.%.%.%.%.%.#.#.&.A.kXfXuXuXlXkXC.*.%.@.#.@.%.%.%.%.@.$.$.@.@.$.&.%.%.@.%.@.Z.8X4X6.&.%.",
"#.%.#.%.&.#.#.%.#.%.y.B.;.&.%.#.&.&.%.&.&.%.+.6.[.kXkXsXuXfXdXkXgXsXrX X#.%.#.%.&.%.&.&.&.&.&.&.@.%.A.5X5X*XgXkXhX8X+.#.",
"Q.&.@.&.#.&.#.-.&.&.&.&.&.&.&.B.Q.6.;.-.#.W.pXlXlXsXsXuXuXdXsXsXuXdXuXlX!.;.&.&.&.#.&.*.&.&.%.%.:.Z.lXlXlXlXkXsXsXkXlXsX",
"kXXXu.[.:XG.&.#.&.,.&.:.:.&.-.uXrXrXfXpX7XhXlXsXuXsXsXsXuXfXuXuXsXuXsXfXhX0X,XQ.-.&.-.,.W.:X,X].m.0XkXkXjXdXfXdXuXsXuXdX",
"jXkXfXpXuXsX-.:.&.&.&.:.,.&.&.XX8XuXsXrXsXsXpXsXdX0X9XdXuX6XuXfXuXdXdXjXkXgXlXlX*X:X;XfXkXjXkXlXkXsXpXsXuXsXsXsXuXuXuXsX",
"sXsXsXuXuX9X-.>.:.,.,.:.&.,.,.,XuXuXuXsXfXsXuXsXuXsXuXoX}.>XsXsXfXkXkXkXuXuXfXsXdXsXsXsXdXdXuXuXsXpX9XuXsXsXuX0XuXdXsXuX",
">X,XOX|.i.<.,.-.:.,.:.:.:.,.,.|.9X>X,X5X5X>XuX9X0XfX0X|.|.,XdXuXdX0X9XuXuXdXsXsXuXsXfXuXsXuXuXsXuX>XoX|.oXOX9XuXsX9X8XdX",
"_.oX|.e.-.,.:.<.,.:.,.,.,.,.,.i._.i.{.|.|.a.B.}.oX>XOXOX>XOX,X,X9X9X|.:XuX0X6X>XoXOX,X6X9XdXuXsX0X}.'.|.oX}.>XOXoX}.OX'.",
",.<.<.<.:.<.<.<.,.,.<.,.,.,.,.,.,.,.,.i.6.<.r.|.|.|.oX}.|.|. X9X>X|.'.B.OX}.{.OX0X0X6X9X5X,X9X6XoX`.,.p..X|.{.F.B.<.<.,.",
"<.,.<.<.<.<.:.<.<.<.,.,.,.<.<.,.<.<.,.<.<.<.<.<.y.y.oX|.oX}.|.|.{.`.t.,.t.1.y.}.OXoXB.a.}.oX{.p.,.,.<.<.p.a.<.,.<.,.,.<.",
"<.<.<.<.,.1.<.<.<.<.<.<.,.<.<.<.<.<.<.<.<.<.<.<.<.<._.{.{._._.t.<.<.<.<.<.<.,.<.t.1.<.<.1.t.<.<.<.<.<.<.<.,.<.<.<.<.1.<.",
"<.<.<.<.<.<.<.1.<.<.<.<.1.<.1.<.<.<.<.<.<.<.<.1.<.<.<.<.<.1.<.<.<.<.<.<.1.<.<.1.<.1.<.<.<.<.<.<.<.1.<.<.<.<.<.<.<.<.<.<.",
"1.1.1.1.1.1.1.1.1.1.1.1.1.1.<.1.1.1.1.1.1.1.<.1.1.1.1.1.1.1.1.1.1.1.1.1.1.1.1.1.1.1.<.1.1.1.1.1.1.1.1.1.1.1.1.1.1.1.1.1.",
"1.1.1.1.1.1.1.1.1.1.1.1.1.1.1.1.1.1.1.1.1.1.1.1.1.1.1.1.1.1.1.1.1.1.1.1.1.1.1.1.1.1.1.1.1.1.1.1.1.1.1.1.1.1.1.1.1.1.1.1."
};
