/* XPM */
static char *e9ea01449d5646a5e7c9679e4456ed0ffhjTDrSlDeeK65WH[] = {
/* columns rows colors chars-per-pixel */
"60 60 59 1 ",
"  c #B7DFF6",
". c #BBDFF3",
"X c #BAE2EE",
"o c #B6E1F5",
"O c #BBE1F5",
"+ c #B5E1F9",
"@ c #BCE1F8",
"# c #C5E3EE",
"$ c #CAE3EE",
"% c #D2E5EF",
"& c #C4E4F5",
"* c #CBE6F4",
"= c #CDE9F6",
"- c #C3E5F9",
"; c #CAE6F9",
": c #CDE9F9",
"> c #D2E6F2",
", c #D4EAF5",
"< c #DBECF5",
"1 c #D4ECFA",
"2 c #DBEEFA",
"3 c #DDF0F6",
"4 c #D6F0FB",
"5 c #DEF1FB",
"6 c #E2EEF5",
"7 c #E8EFF6",
"8 c #E4EFF9",
"9 c #E5F1F6",
"0 c #EAF1F6",
"q c #E4F3FB",
"w c #EEF6FA",
"e c #E9F4FC",
"r c #E8F5FD",
"t c #E9F7FD",
"y c #EBF6FC",
"u c #ECF5FC",
"i c #EFF7FC",
"p c #EFF9FB",
"a c #E8F9FC",
"s c #E8F8FD",
"d c #EFF9FD",
"f c #F0F6F9",
"g c #F1F7FB",
"h c #F0F7FD",
"j c #F2F8FA",
"k c #F5F8FB",
"l c #F2F9FC",
"z c #F3FAFC",
"x c #F4F8FC",
"c c #F5FAFD",
"v c #F0FDFE",
"b c #F4FCFD",
"n c #F6FDFF",
"m c #FFFEF8",
"M c #FFFDFB",
"N c #FBFCFC",
"B c #FAFCFE",
"V c #FAFDFE",
"C c white",
/* pixels */
"CCCCCCCCCCCCCCCCCCCCCCCCCCCCCCCCCCCCCCCCCCCCCCCCCCCCCCCCCCCC",
"CCCCCCCCCCCCCCCCCCCCCCCCCCCCCCCCCCCCCCCCCCCCCCCCCCCCCCCCCCCC",
"CCCCCCCCCCCCCCCCCCCCCCCCCCCCCCCCCCCCCCCCCCCCCCCCCCCCCCCCCCCC",
"CCCCCCCCNCMCCCMCMCCnMCCBCBCCCBCMCCNCNCCNCNCCNCCNCCNCCCNCCCBC",
"CCCNNNCCCCMCCCCmCBBCCMMCCCCCCMCBCCCCMCCCCNCNCCCCCCCNNNCCMCBM",
"CCCCCCCNNCCNMNMCCCCMBCCCMNMCMMCCNCCNCCNCCCCNCNNCNNCCCCCNCCCC",
"CCCCCCCCCCCCCCCCCCCCCCCCCCCCMCCCNCmCCCCCCCCCCCCCCCCCCCCCCCCC",
"CCCCCCCCCCCCCCCCCCCCCCCCCCCCNCCMMMCCCCmCCCCCCCCCCCCCCCCCCCCC",
"CCCCMCCCCCMCCCCnCCCCCNCCCCCCmCCNNNNCMCCCCCCCCNCCCCCNNCCnCCBC",
"CCCCCCCCNCCCCCCCCCCCCMCNCNCCNNy9<<8<0pNmNMCNCmCNCNCCCCMCCMMC",
"CCCNCmCCCMNCCCCCMCCCMCCCCCCCs>><22222<7gCCCMMCCCNCNCCMCNMCCB",
"CCCCCCCNNCCCCCCMCCCCCnCCCNl<><qstiiisq<<9lMCCNCCCCCCNCCCCCCC",
"CCCCCCCCCCCCMCCNNCCmCMCCCB6,9appiiiipzgt<6NCCCCCCCCCCCCCCCCC",
"CCCCCCCMMCCNNbnlplnnNCmmnq,qsaipiiiiiiily<6NmCCmCMCmCCCCCCCC",
"CCCCNNMCNNp9<>*,,,>%<pNNp,qttitiiiiiihhkct2uCCCCCCCCmCCCCCMC",
"CCCCCCCna>$=155555552>2p<2ritthtisiiizlcllq<gl0079gNNCCCBCCB",
"CCCCCCn>&&4552qq9qqq5q2,,rrtiiitptppipzhxzzqscnngg78rBCMCBCM",
"MCNmNs*&*4555q2qqq5qqqrq<rrrruritiiiiiipzhzhcccnNBBy68iCMCCC",
"CCCCt#O:55555qq55qqqrrqsqtttruittpipphhhhzzccccNnBBBi87iCCCC",
"NCml&o&42535252qq5qqqrsqqtqtutriitiiiihzzzhcccccNcBBBu7ugCCC",
"NMb>OO4225355q555qqqqqsqqrrrrtuiiiiiihipzhzncccccNNNNpq89NCM",
"NCpoo&43223525q5555qqqqqqrrruytititiihhizbhzcccnnNzNNz8rqhMC",
"CC=oo,2415522q55qqqqqqqqrr9rrurititiiiizzzhzzccczNNNBN7u8tNC",
"Nbo+o,2152522q25355qqqqqqqurrrrttiiiiiipippzhccnznNzBB7q80lC",
"CyXoo1152152555q55q5qqqqrrrqtrriguyytgpiizllzcccNNNnNn0q9ucC",
"C3oOo1212552255555qqqqqqqqr9rrrrtuggyhizizplhccccbzNnp6q8tBC",
"m1ooo:4152522252q5q55rqrqqtrrrthtyuugyggihhlbcccczNNzuq877kC",
"N=+oO:1512255q2q5555q8qqtqtrrrruyuuihtgyiizzlccccNcNi88tq9NC",
"N=+ O@1522155555q5q55qqqrqqrrrrrtthiiiiiihzzhchcxBhi8988t0CC",
"M1+ oO:122512522555qq5qqqqqtrrrrriitstiiihiizczzchu<888q8zCM",
"N9.o+O@45222555q55555qqqqqqtrtrtititiiiihhzzpqu888888288yNCm",
"Np.o++@-12222525555qq58rqrqqqqt9tttitiiiiiihg8<2628<r8t8lCCC",
"CN*++.@O-1125522q255q55qqtqqrqrttuytyggtghizz2<2<589887bMCCC",
"CN9oooo+.O;2252525q5qqqqqqqqqsssityyygygihizzq<255<88rnNCmCC",
"CCb*  ooO@@-;11555555q<qqqtt8qtrquyyyyyiippph22<qq0znCCCCCCC",
"CCCp&OOO.@@OOO&&&4555qq5qqq9rtqquuyyyypiiiipu222qNNNNCCCCCCC",
"CCCNt#oo+@.&O@-O&=5s5q5qqqqtqt9rurrrytiiiii8<2226CCCCCCCCCCC",
"CCCNNs*ooo@@&.---&4555q5qqqqqqtrrurrugrpiuu6<2223NCCCCCMCCCC",
"CCCMCCz3#O.@&O&@&&13q5598qqqqrrtur2,2899822<1<226NCmmCCCCCCC",
"CCCCCNCNzt<$&##&@&&45q955qqqq7t9r8,,,,1111112<26yNnCCCCCCCCC",
"CCCCCMCCMCCnllb9&@&&4595qq9qqqqq5,:,,1,11<212126zNNCCCCCCCCC",
"CCCCBCCCCCCCmCCp#@--&155q5qqqsq2>;,11,11<11<2<28NCCCCCCCCCCB",
"CCCCCCCCCCCmCCCb=&@--=;1145541===::1,,:1111<<<8MCMmCCCCCCCCC",
"CCCCCCCCCCCCCCCN5&-&-&&&&&&&==:=:1:>33%1111<2iBMCCCCCCCCCCCC",
"CCCCCCCCCCCMCNCNn=&@---;;:=-;:;:=,,<nNztq97hCBCCCCCCCCCCCCCC",
"CCCMCMnCNMCCMCCmCp*&--;&-&==;==:::,iNCCCCCCCCCMCCCCCCMCCCCCM",
"CCCCCCCCCCNCCnCCMNp=-----;;;;;==,,iCCmCCCCCCCCCBCCCBBCCCCBBC",
"CCCBNCMNCMCMCMCMCCNz2&-&;&;;;*=><zNCCMCNCCCCCMCCCCCCMCCCCCMC",
"CCCCCCCCCCCCCCCCCNNMNp2=*$*$=><lCCMCCCCCCCCCCCCCCCCCCCCCCCCC",
"CCCCCCCCCCCCCCCCCCCCCCNbgtyabNNCCCCCCCCCCCCCCCCCCCCCCCCCCCCC",
"CCCCCCCCCCCCCCCCCMMCNMMCCCMMCMCNCMNNCCCmCCCCCCCCCCCCCCCCCCCC",
"CCMCMCCBCCBCMCBCCCMNCNCCBCCCCCCCCCCCCCCCCCCCCCCCCCCCBCMCCMCC",
"MCCMCCMCMCBMCMBCMCCCCCCmCCCCBCCCCCCCCCCCCBCCCMCCCCCBCCBCCCMB",
"CCBCBCCBCCCCBCCMCNCCCnNCCCCCCMCCCCCnCCCCCCCCCCCCCCCCCMMCBCCC",
"CCCCCCCCCCCCCCCCCCCCCCCCCCCCCCCCCCCCCCCCCCCCCCCCCCCCCCCCCCCC",
"CCCCCCCCCCCCCCCCCCCCCCCCCCCCCCCCCCCCCCCCCCCCCCCCCCCCCCCCCCCC",
"BMCBCMCCMCCMCMCCMCMCMCBMCCCCCMCCCCmNCCCCCNCCCCCnCCCCCCMCCBCC",
"CCCCCBBCCBBCCBBCNCCNCCCCBCCCCCBCCCCCCCCCMCCCCCMCCCCCBCCBMCMC",
"CCMCMCCMCCCCMCCBCnCMCBBCCCCCCBMCCCMCNCCCCCCCCNCMCCCMCMCBCCCB",
"CCCBCCBCMBCMCCCCCCCCMCCMCCCCCCCCCCCCCCCCCCCCCCCCCCCCCCCCMCCC"
};
