/* XPM */
static char *fb4ae1d4a73c40a5925067262860974ea3V8jyHkWh0Rh9dk[] = {
/* columns rows colors chars-per-pixel */
"60 60 204 2 ",
"   c #56393A",
".  c #437536",
"X  c #467D39",
"o  c #507D3F",
"O  c #3C714C",
"+  c #177474",
"@  c #1E7070",
"#  c #197374",
"$  c #216D6D",
"%  c #26706F",
"&  c #277676",
"*  c #2B7370",
"=  c #367671",
"-  c #3B7972",
";  c #69595A",
":  c #49774C",
">  c #467A6E",
",  c #427E75",
"<  c #557D76",
"1  c #7B7668",
"2  c #923A46",
"3  c #A43448",
"4  c #B43E4F",
"5  c #D1374C",
"6  c #D1394D",
"7  c #92494F",
"8  c #8F5455",
"9  c #9D5958",
"0  c #B24751",
"q  c #B24952",
"w  c #B35C63",
"e  c #9B6661",
"r  c #95766C",
"t  c #977D71",
"y  c #AB756C",
"u  c #AA7777",
"i  c #C3414F",
"p  c #CA4655",
"a  c #C4525D",
"s  c #C45561",
"d  c #C77475",
"f  c #D97E7D",
"g  c #47813B",
"h  c #48823B",
"j  c #4D8048",
"k  c #588949",
"l  c #578454",
"z  c #63954B",
"x  c #6D964C",
"c  c #628659",
"v  c #6D9D51",
"b  c #779A57",
"n  c #77A457",
"m  c #7AA453",
"M  c #7EAC53",
"N  c #5C8969",
"B  c #578C76",
"V  c #57877C",
"C  c #5A857E",
"Z  c #6E8B68",
"A  c #66936A",
"S  c #77946A",
"D  c #6A8F7A",
"F  c #789272",
"G  c #77A36B",
"H  c #81AA5A",
"J  c #82AF59",
"K  c #86B25D",
"L  c #948879",
"P  c #8D957F",
"I  c #BA847B",
"U  c #89AA67",
"Y  c #8BB465",
"T  c #92BB6C",
"R  c #98BB74",
"E  c #A0BE7C",
"W  c #DD817E",
"Q  c #9DC477",
"!  c #C67E83",
"~  c #448686",
"^  c #578B80",
"/  c #5D8B84",
"(  c #5C9484",
")  c #618D85",
"_  c #629986",
"`  c #63958E",
"'  c #6A958B",
"]  c #649C89",
"[  c #779489",
"{  c #649790",
"}  c #669990",
"|  c #6A9E94",
" . c #7B9A93",
".. c #6AA187",
"X. c #6AA28D",
"o. c #73A48F",
"O. c #6EA297",
"+. c #74A597",
"@. c #74AB93",
"#. c #7BAD95",
"$. c #75AA9C",
"%. c #78AE9E",
"&. c #76B097",
"*. c #78B198",
"=. c #7BB59B",
"-. c #7EBA9F",
";. c #77A9AB",
":. c #7CB5A2",
">. c #7FBBA1",
",. c #879A86",
"<. c #89938D",
"1. c #949684",
"2. c #8B9E95",
"3. c #859E99",
"4. c #B7898B",
"5. c #A79686",
"6. c #84A28C",
"7. c #8AA68F",
"8. c #87A897",
"9. c #92AD90",
"0. c #82B59B",
"q. c #85B69D",
"w. c #A5BD8F",
"e. c #A1BA9B",
"r. c #87A6A7",
"t. c #97ACAA",
"y. c #82BDA3",
"u. c #88B8A5",
"i. c #8CBDA6",
"p. c #90B4A2",
"a. c #99B8A9",
"s. c #A9B1AA",
"d. c #ACB0A9",
"f. c #A8B9B3",
"g. c #B3BCB4",
"h. c #B7BBB9",
"j. c #C78388",
"k. c #DA8280",
"l. c #CC9194",
"z. c #CF9EA1",
"x. c #C8B9BA",
"c. c #D5B9BA",
"v. c #AACC85",
"b. c #ADCC8A",
"n. c #ADD188",
"m. c #B3D68D",
"M. c #B6D891",
"N. c #84C2A5",
"B. c #88C1A6",
"V. c #86C6A9",
"C. c #88C6AA",
"Z. c #87C8AA",
"A. c #89CAAC",
"S. c #8ECCB0",
"D. c #93CEB4",
"F. c #9DCFB8",
"G. c #9CD2B9",
"H. c #BAC6AE",
"J. c #A5C8B7",
"K. c #ACC4B8",
"L. c #BAC2B9",
"P. c #B3C8BD",
"I. c #A3D3BD",
"U. c #C2C7BD",
"Y. c #95BEC2",
"T. c #99C2C5",
"R. c #A6C3C5",
"E. c #BDC4C4",
"W. c #B5C8C4",
"Q. c #ADD7C4",
"!. c #AED9C6",
"~. c #B8DACB",
"^. c #A2CCD0",
"/. c #C2C9C4",
"(. c #CAC8C8",
"). c #C6D4CA",
"_. c #CBD2CD",
"`. c #D0D3CE",
"'. c #D4D9CD",
"]. c #DECFD0",
"[. c #CDD6D2",
"{. c #C5DBD2",
"}. c #C9DAD4",
"|. c #CDDAD5",
" X c #D1D6D3",
".X c #DDD3D4",
"XX c #D4D9D6",
"oX c #D8DBD5",
"OX c #D5D9D9",
"+X c #DBDDDB",
"@X c #E2D9D9",
"#X c #C9E5DA",
"$X c #D3E2DE",
"%X c #DEE1DE",
"&X c #E2E3DE",
"*X c #D9EAE4",
"=X c #E4E4E3",
"-X c #E9E9E7",
";X c #E6E9E9",
":X c #EDEDED",
">X c #F4F4F4",
",X c #F8F8F7",
"<X c #FCFCFC",
"1X c #FDFDFD",
/* pixels */
",X1X<X>X1X1X<X<X>X1X1X>X1X1X,X1X<X<X1X>X<X1X>X1X<X,X1X,X<X1X>X1X1X>X1X<X>X1X,X<X1X>X1X1X>X1X1X>X1X,X<X1X>X<X1X>X1X1X,X1X",
"1X>X<X1X-X1X<X:X1X,X>X1X>X<X1X-X1X1X:X1X<X>X1X>X<X1X:X1X<X:X1X,X>X1X>X,X1X:X1X1X:X1X<X>X1X>X<X1X:X1X1X:X1X<X>X1X:X<X1X:X",
":X1X1X>X1X,X<X<X>X<X1X:X1X<X>X1X,X,X1X,X1X1X:X1X<X>X1X,X,X1X>X1X1X>X1X<X>X1X,X,X1X>X<X1X>X1X1X>X1X,X,X1X>X<X1X>X1X1X>X1X",
"1X1X1X<X<X<X<X<X<X1X1X<X<X<X<X<X<X<X<X<X<X1X<X<X<X,X<X<X1X<X<X1X<X<X1X<X<X<X<X<X<X<X<X<X,X<X1X<X1X<X<X<X,X<X<X<X<X1X<X<X",
"1X,X1X1X:X1X1X>X1X<X>X1X>X<X1X:X<X<X:X1X<X,X1X,X1X1X>X1X1X>X1X<X,X1X>X<X1X>X1X1X:X1X<X>X1X>X<X1X>X1X1X:X1X<X>X1X>X<X1X>X",
"-X1X1X:X1X,X,X1X:X<X1X:X1X<X>X1X>X,X1X:X<X1X-X1X<X:X1X>X,X1X:X<X1X:X1X<X:X1X,X,X1X:X1X1X:X1X<X:X1X>X,X1X:X1X1X:X1X<X:X1X",
"1X<X<X1X,X1X<X,X1X,X<X1X,X<X1X,X<X1X,X<X,X,X1X,X1X1X>X1X1X,X1X,X<X1X,X<X1X,X1X1X,X1X,X,X1X,X<X1X,X1X1X,X1X,X<X1X,X<X1X>X",
"1X,X<X1X>X1X1X>X1X<X<X1X,X<X1X,X<X<X,X<X<X<X1X<X1X1X,X1X1X>X<X<X1X1X,X<X1X,X1X1X,X1X<X<X1X<X<X<X,X1X<X,X1X1X1X1X<X1X1X,X",
":X1X<X:X1X,X,X1X:X1X1X:X1X1X:X1X>X,X1X:X1X1X:X1X<X>X1X,X,X1X>X<X1X:X1X<X:X1X>X,X1X>X<X<X:X<X<X>X1X,X,X1X:X1X1X:X1X<X:X1X",
"1X>X1X1X:X1X1X:X1X<X,X1X>X<X1X>X1X1X>X1X<X,X1X>X<X1X:X1X1X:X1X<X,X1X,X<X1X:X<X<X:X1X1X<X1X,X<X<X:X1X1X:X1X,X,X1X,X<X1X:X",
"<X1X1X<X<X<X1X1X,X1X1X<X1X1X<X1X<X<X1X<X<X<X,X1X<X<X<X<X<X1X<X<X<X,X<X<X<X1X<X<X1X:XH._.:X:X<X<X<X<X1X1X<X<X<X<X1X<X<X1X",
">X1X<X>X1X,X<X1X>X<X<X>X1X<X>X1X,X<X1X>X1X1X,X1X<X>X1X,X<X1X,X<X1X>X<X<X,X1X<X<X&XU m M S b ,X<X1X,X<X1X>X1X1X>X1X<X,X1X",
"1X:X,X1X:X1X<X-X1X<X>X1X>X<X1X:X1X<X:X1X<X>X1X:X<X1X1X>X-XoX'.'.'.@X:X>X:X:X&XU.n M M x M b 9.:X<X1X1X:X1X,X>X1X:X<X1X-X",
">X1X<X>X1X,X<X1X>X<X1X:X1X<X,X1X,X,X1X>X1X1X>X1X1X-XH.b.v.m.M.m.m.n.n.E E R Y K K m x m M M x 1.1X,X,X1X>X1X1X:X1X<X,X1X",
"<X<X<X<X<X1X1X<X<X<X<X,X1X1X<X1X<X<X1X<X1X,X,X1X_.n.m.m.Q K J J K H H H H H H U R Q K J M M o U.1X<X1X<X<X<X<X<X1X<X<X<X",
"1X>X<X1X:X1X1X>X1X,X,X,X<X1X1X:X1X<X>X1X<X,X1X'.n.m.v.K M M M M H U R v.m.m.m.m.m.T M J M x . '.,X1X1X>X1X<X>X1X>X<X1X:X",
":X1X<X>X1X,X,X1X:X1X>X).}. X:X1X,X<X1X>X1X1X>Xb.m.n.K M M M M H v.m.m.m.m.m.m.n.Y M M M M : h U.1X>X,X1X:X<X1X:X1X<X>X1X",
"1X,X<X1X,X1X1X>X1X1XXX*XG.D.N.P.:X1X,X>X:X>XU.m.m.K M M M M b w.e.n.n.v.Q Q Y M M M M M n . h 9.1X1X<X,X1X,X<X1X,X<X1X>X",
"1X<X1X1X,X<X<X,X1X1X|.#XA.A.>.0.K.[.|.$X$X{.J.i.0.G n n n e.).Q.D.S M M M M M M M M M M n . g k >X1X1X,X1X1X1X1X,X<X1X<X",
":X1X1X:X1X>X<X1X1X-X*XG.A.Z.Z.A.!.#X#XQ.D.A.Z.Z.Z.Z.A.p.|.$XD.A.A.D M M M M M M M M M M n . g g L.<X,X1X:X1X1X:X1X<X:X1X",
"1X>X<X1X:X1X1X:X1X+X*XS.A.A.A.A.A.C.=.] ^ - V =.A.A.A.!.~.A.A.A.A.' M M M J M M M M M M n h . g c >X1X:X1X<X>X1X>X<X1X:X",
",X1X<X<X<X<X<X1X1X[.W.S.A.A.A.A.@., # + + + & &.A.A.A.A.A.A.A.A.V.O.b M M M M M M M M M v g . g h g.1X1X<X1X<X,X1X1X<X1X",
">X1X<X>X1X1X1X1X1Xg.I.A.A.A.A.X.# # # + # V =.A.A.A.A.A.A.A.A.A.A.$.c M M M M M M M M M z g g . h l ,X1X>X1X1X>X1X1X>X1X",
"1X:X<X1X:X1X1X>X:X~.A.A.A.A.A.>.- # # = X.Z.Z.Z.A.A.A.A.A.A.A.A.A.N.N v M M M M M M M M z g g . h h L.1X1X<X>X1X>X<X1X-X",
">X1X1X>X1X,X,X1X XI.A.A.A.>.&.A.V.X.X.V.A.A.A.A.A.A.C.A.A.A.A.A.A.A.o.h k M M M M M M M h h h . h h Z ,X,X<X1X>X1X1X>X1X",
"<X1X1X<X<X1X<X>X}.p.#.C.Z.- ( A.A.A.A.A.A.A.A.i.G.A.A.y.[ N.A.A.A.A.=.j h k M M M M M z h h h X . h h %X,X<X<X,X<X1X<X<X",
"1X>X<X1X:X1X1X+X_.(.8 N.A.V X.A.Z.V.] >.A.A.N.{.A.A.8.7 3 P A.A.A.A.Z.*.A h k v n v z g h h h h . h h g.1X<X>X1X>X<X1X:X",
":X1X<X:X1X,X<X[.%Xj.9 =.A.N.Z.A.y.- @ -.A.A.J.~.A.p.2 q j.i 0.A.A.A.A.=.A...h g h h h h h h h h . h h ,.1X1X1X:X1X<X>X1X",
"<X,X1X1X,X1X>X/.=Xa x.3.A.A.A.A.>.$ ( Z.A.A.{.D.i./.4 d :Xp t A.A.A.A.*.A.A.&.: h g g g h g h X . h g F 1X,X<X<X,X<X1X>X",
"1X<X1X1X,X1X+XOX].d .X,.A.A.A.A.A.-.Z.A.A.A.A.C.E.(.5 l.,Xs i N.A.A.A.-.A.X.B > : g g g h h h . g h g S 1X1X1X1X,X1X1X,X",
"-X1X<X:X1X1X[.*Xc.z.x.6.A.A.A.A.A.A.A.A.A.A.A.a.;X.X5 l.:Xp 5 7.A.A.V.A.N.* # + @ O g g h h . . h h h F 1X<X1X:X1X<X>X1X",
"1X>X1X1X1X-X). Xc.! u 0.A.A.A.A.A.A.A.A.A.A.A.R.<X@X5 j.].5 5 P A.A.A.A.A.( # # # # O g h . X h h h g s.1X<X,X1X>X<X1X:X",
"<X1X<X<X1X[.D.Z.8.P t N.A.A.A.A.A.A.A.A.A.A.C.oX1X>Xi 6 a 6 6 1.A.A.A.A.A.0.* + + + $ : . X : h h h h oX,X1X1X,X1X1X<X1X",
">X1X<X>X1X_.y.Z.A.Z.A.A.D.!.A.A.A.A.A.A.A.A.C.P.XX%X4.w y L q.A.A.A.A.A.A.A.] + + + # ] A X h h h h P <X>X1X1X>X1X1X>X1X",
"1X>X,X1X,X,X8.=.q.V.S.A.D.~.A.A.A.A.A.Z.A.A.A.A.Z.Z.N.Z.Z.A.A.A.A.A.A.A.A.A.N.= + # + _ N.N h h g l -X1X1X,X>X1X:X<X1X:X",
">X1X<X>X1X1X:Xi.D F t.-.A.N.Z.-.A.A.A.Z.A.A.A.A.Z.Z.Z.N.N.#.y.A.A.A.A.S.A.A.A.-.] ] ] -.A.N.l h l oX1X1X>X1X1X>X1X1X>X1X",
",X<X1X1X1X1X1X-XB.D ;   1 8.Z.A.C.q.9.,.L t L r r d.g.9 8 0.A.A.A.A.A.A.A.A.A.A.A.A.A.A.A.A.=.Z %X1X1X1X<X1X1X<X1X1X1X1X",
"1X>X<X1X:X1X1X1X:XJ.o.8 q q e r 9 0 0 q 0 0 0 q q u u r N.A.A.Z.A.A.A.A.A.A.Z.A.A.A.A.Z.A.A.A.J.1X1X1X>X1X,X,X1X>X1X1X:X",
":X1X<X:X1X,X,X1X<X,XP.0.L d W W f f W f d d s w q 9 6.C.A.Z.A.V.y.A.A.S.A.A.o.C.A.A.N.Z.A.A.A.N.=X,X,X1X:X1X1X:X1X<X:X1X",
"1X,X<X1X,X1X<X>X<X<X,XK.=.q.1.d W W W f f f k.d P B.A.A.A.Z.*.=.A.A.A.A.A.C.D ` $.@.0.A.A.A.A.A.P.1X1X>X1X,X<X1X,X<X1X>X",
"1X<X1X1X,X1X1X<X1X1X1X|.I.=.=.N.8.5.4.I I I 7.N.A.A.A.N.o.) #.A.A.A.A.A.A.y./ ` ) -.N.V ( Z.A.A.u.<X1X,X1X1X1X1X<X1X1X,X",
"-X1X1X:X1X>X,X1X:X1X,X|.#XA.C.=.O.*.N.N.N.Z.N.N.*.o.' ) ` 3.Q.A.A.A.A.A.A.O./ ) =.-.- + % V.A.A.N.:X1X1X:X1X1X-X1X1X:X1X",
"1X,X<X1X:X1X1X:X1X<X<X|.*XF.] y.$.{ / ` ( ` ` / ` ` { { ` }.D.A.] ] A.A.N.{ / ' Z.- # # + =.A.A.A.+X1X:X1X<X>X1X>X<X1X:X",
",X<X1X<X1X1X1X1X<X1X1XXX$Xr.# _ :.{ / / ( } ` { ` ` ` } t.#XC.N.- - A.A.$.{ < ` Z.= # # + &.A.A.A.+X1X1X<X1X1X<X<X<X<X<X",
">X1X1X,X1X,X<X1X>X1X1X.XR.T.+ - >.{ { ( ^ / / ` { ` ` ` }.a.- #.=.X.A.C.{ ` < { Z.] + + % &.D Z.Z.*X1X1X>X1X1X>X1X1X,X1X",
"1X:X<X1X:X1X<X:X1X,X>X:XR.T.+ - u.{ { { { ( E.h.C / ` [ R.~ # =.A.A.A.:.{ / < { $.N.= + X.-.-.Z.+.>X1X:X1X<X>X1X:X<X1X-X",
":X1X1X>X1X,X<X1X>X1X1X1Xf.Y.* -.u.{ { { ` [ 1X1X3.` / r.^.& $ N.A.A.Z.{ ` V / ` { Z.%.@.Z.Z.Z.$.3.<X<X1X>X1X1X:X1X<X,X1X",
"<X<X<X<X<X<X<X<X<X1X<X1X+XK.-.A.:.{ { { { E.1X1X=X{ / R.;.# , A.A.A.%.{ [ 3./ ` ` O.Z.A.A.Z.O.` h.1X<X<X<X1X<X<X1X<X<X<X",
"1X,X<X1X:X1X1X>X1X<X>X1X<XP.A.A.$.` { `  .<X<X>X1Xs.' t.& * X.A.Z.V.} ' :X1X/.{ { ` | y.$.} } / ;X1X1X>X1X<X>X1X>X<X1X>X",
"-X1X1X:X1X,X,X1X:X1X1X:X<Xg.p.C.| ` { ` *X1X:X1X1X_.E.F.=.u.A.A.Z.$.` OX1X1X>X .} ` { { { { ` t.1X,X,X1X:X1X1X:X1X<X:X1X",
"1X,X<X1X>X1X1X,X1X,X<X1X<X(._.f.[ <.3.+X1X,X1X,X1X1X[.i.A.A.A.A.:.{ /.1X1X>X1X`.2.`  .' ` ` ` +X<X1X1X>X1X,X<X1X,X<X1X,X",
"1X<X<X<X,X1X<X,X1X1X1X1X1X,X>X1X-X:X1X1X1X1X1X,X1X<X/.g.p.f.V.-.} E.1X1X1X>X1X/.(.d.g.2.2.s..X1X,X<X1X,X1X1X1X1X,X<X1X,X",
":X1X<X:X1X,X,X1X:X1X1X:X1X1X,X1X1X1X1X:X1X1X:X1X<X1X<X1X=X_._.s.XX1X1X<X:X1X1X1X1X,X>X1X:X1X1X,X1X>X,X1X:X1X1X:X1X1X>X1X",
"1X:X<X1X:X1X1X:X1X,X,X1X>X<X1X:X1X1X:X1X,X>X1X>X<X1X:X1X1X<X<X,X1X1X>X<X1X:X1X1X:X1X,X>X1X>X<X1X:X1X1X:X1X<X,X1X:X<X1X:X",
"<X1X<X<X1X<X1X1X<X1X1X,X1X1X,X<X1X1X1X1X1X1X,X1X1X,X<X<X<X1X,X1X1X<X<X1X<X<X1X1X1X<X1X1X,X1X1X,X1X1X<X<X<X1X1X,X1X1X<X1X",
">X1X<X,X1X,X<X1X>X1X1X>X1X1X,X1X,X1X1X,X1X1X>X1X<X,X1X,X,X1X>X<X1X>X1X<X>X1X1X1X1X,X1X1X>X1X<X,X1X<X<X1X>X1X1X>X1X<X>X1X",
"1X>X<X1X:X1X1X:X1X<X>X1X>X,X1X:X1X1X:X1X<X>X1X>X<X1X:X1X1X:X1X<X>X1X>X>X<X:X1X<X:X<X<X>X1X>X,X1X:X1X1X:X1X<X>X1X>X<X1X:X",
">X1X<X>X1X,X<X1X>X1X1X:X1X<X,X1X,X,X1X>X1X1X:X1X<X>X1X,X<X1X>X1X1X>X1X1X<X1X>X<X<X>X1X1X>X1X1X>X1X,X<X1X>X1X1X:X1X1X,X1X",
",X<X1X<X<X1X<X<X<X<X1X<X<X<X<X<X<X<X1X<X<X<X,X<X<X<X<X<X1X1X<X<X1X1X1X1X1X1X1X1X<X<X1X1X<X<X1X<X<X1X<X<X<X1X<X<X<X1X<X<X",
"1X>X<X1X:X1X<X>X1X<X,X1X>X<X1X:X1X1X>X1X,X,X1X,X<X1X>X1X1X:X1X,X>X1X>X1X1X:X1X1X:X1X,X,X1X>X<X1X>X1X1X:X1X,X>X1X>X<X1X:X"
};
