/* XPM */
static char *bbe8328093f346f69e0f45126be35656H6m0wQWUzZ1ukYBx[] = {
/* columns rows colors chars-per-pixel */
"60 60 229 2 ",
"   c #010101",
".  c #080203",
"X  c #020B04",
"o  c #0A0B0A",
"O  c #05110A",
"+  c #0A170B",
"@  c #100F12",
"#  c #0B1812",
"$  c #121B15",
"%  c #151817",
"&  c #191919",
"*  c #0B210D",
"=  c #17281A",
"-  c #1F331E",
";  c #202E1F",
":  c #1C2723",
">  c #1E3623",
",  c #222B26",
"<  c #263B27",
"1  c #24342C",
"2  c #2B3933",
"3  c #343C39",
"4  c #2D422D",
"5  c #34463B",
"6  c #334C38",
"7  c #374A42",
"8  c #3B5949",
"9  c #2F6049",
"0  c #3A684B",
"q  c #3C6D53",
"w  c #3B6856",
"e  c #3D7557",
"r  c #425A47",
"t  c #4A5953",
"y  c #56595B",
"u  c #71504D",
"i  c #4B674C",
"p  c #46774A",
"a  c #447C4B",
"s  c #496758",
"d  c #576A59",
"f  c #447355",
"g  c #4B7554",
"h  c #44755A",
"j  c #437C5C",
"k  c #497C5E",
"l  c #587A5B",
"z  c #706258",
"x  c #715D6C",
"c  c #745E6F",
"v  c #486B62",
"b  c #586A63",
"n  c #4C7365",
"m  c #4C7C64",
"M  c #4D7D6B",
"N  c #557868",
"B  c #537C6C",
"V  c #4E7D72",
"C  c #5A7A72",
"Z  c #69656B",
"A  c #776369",
"S  c #6A7768",
"D  c #7A6675",
"F  c #637B73",
"G  c #6E7A78",
"H  c #7D7F71",
"J  c #8A3A46",
"K  c #9A3846",
"L  c #A23646",
"P  c #9B4454",
"I  c #94535A",
"U  c #A74B5C",
"Y  c #B14E59",
"T  c #9E5F68",
"R  c #B05466",
"E  c #907877",
"W  c #A46068",
"Q  c #C14257",
"!  c #C16973",
"~  c #48834D",
"^  c #4D8555",
"/  c #4E8D55",
"(  c #558756",
")  c #528D56",
"_  c #53855A",
"`  c #528D5A",
"'  c #4E9157",
"]  c #529256",
"[  c #599357",
"{  c #54925A",
"}  c #5A955C",
"|  c #569A5B",
" . c #5A985C",
".. c #4D8266",
"X. c #518366",
"o. c #588967",
"O. c #53836D",
"+. c #5B856D",
"@. c #54896C",
"#. c #5D9562",
"$. c #5D9B62",
"%. c #5E9669",
"&. c #4E867A",
"*. c #548375",
"=. c #5B8673",
"-. c #598977",
";. c #5B8C74",
":. c #52857C",
">. c #54897E",
",. c #5D9375",
"<. c #5F967B",
"1. c #608160",
"2. c #659869",
"3. c #668778",
"4. c #648B7B",
"5. c #738A7C",
"6. c #669B76",
"7. c #63947B",
"8. c #6B947C",
"9. c #699C7D",
"0. c #75987A",
"q. c #5EA061",
"w. c #67A468",
"e. c #6CA777",
"r. c #75A976",
"t. c #75B374",
"y. c #7AB976",
"u. c #7DB47C",
"i. c #7EBA7C",
"p. c #7CC07B",
"a. c #81B57F",
"s. c #81BC7D",
"d. c #83C17F",
"f. c #97788F",
"g. c #AA7C90",
"h. c #B57FA5",
"j. c #588B83",
"k. c #5D9F86",
"l. c #6A8E82",
"z. c #788B84",
"x. c #639383",
"c. c #6A9483",
"v. c #649C85",
"b. c #6B9C85",
"n. c #659C89",
"m. c #6B9C89",
"M. c #769787",
"N. c #7A9C8A",
"B. c #65A186",
"V. c #6CA286",
"C. c #65A28A",
"Z. c #6CA38B",
"A. c #6CA98D",
"S. c #72A48B",
"D. c #77A78B",
"F. c #73AB8E",
"G. c #78B588",
"H. c #6DAC92",
"J. c #71A490",
"K. c #72AD91",
"L. c #7BAD94",
"P. c #75B292",
"I. c #7BB394",
"U. c #75BA94",
"Y. c #7CB59B",
"T. c #76BA9A",
"R. c #7CBB9A",
"E. c #7CB9A0",
"W. c #7EC39F",
"Q. c #7EC3A2",
"!. c #8C8D8F",
"~. c #839A8C",
"^. c #889A94",
"/. c #AA8D90",
"(. c #A7829C",
"). c #84A586",
"_. c #82BB82",
"`. c #87B884",
"'. c #88A897",
"]. c #97AF94",
"[. c #84B49B",
"{. c #83BC9D",
"}. c #89B89B",
"|. c #AE88A4",
" X c #B486A8",
".X c #92A8A3",
"XX c #84BDA2",
"oX c #8BBDA2",
"OX c #8CB9A4",
"+X c #96B8A4",
"@X c #AFB5AE",
"#X c #A9BBB1",
"$X c #C9909C",
"%X c #CDABB2",
"&X c #CABBBA",
"*X c #84C181",
"=X c #8DC38C",
"-X c #91C58C",
";X c #83C39F",
":X c #8AC49E",
">X c #99C595",
",X c #84C3A2",
"<X c #8BC5A4",
"1X c #86C9A3",
"2X c #8CC8A4",
"3X c #8CC8AA",
"4X c #92C5A5",
"5X c #97C8AA",
"6X c #94CBAC",
"7X c #97D0AF",
"8X c #93CBB0",
"9X c #9CCCB2",
"0X c #9ED5B4",
"qX c #A7CDB7",
"wX c #A5D4B7",
"eX c #A5D6BC",
"rX c #ABD6BC",
"tX c #B1D9BE",
"yX c #D5BDC1",
"uX c #B1D0C3",
"iX c #CCC7C4",
"pX c #D2C7C6",
"aX c #C9D7CF",
"sX c #E8D6D9",
"dX c #DCE2DC",
"fX c #DDE6E4",
"gX c #F1EBEA",
"hX c #F5FCF9",
"jX c #FDFAFC",
/* pixels */
"&                                                                                                                     & ",
"                                                                                                                        ",
"                                                                                                                        ",
"                                                                                                                        ",
"                                                                                                                        ",
"                                                                                                                        ",
"                                                                                                                        ",
"                                                                                                                        ",
"                                                                                                                        ",
"                                                                                                                        ",
"                                                                  .                   X                                 ",
"                                                                                + d o . $ $ X                           ",
"                                                                              . l ).4 i ).5                             ",
"                                                    . . .     . .   . . .   + i a.t.p `.6.* o .                         ",
"                                                .   o + - 1 < < < = , < r 1.0.s.s.w.w.s.( i l % X                       ",
"                                                = d ).].>X>X`.`._.a.s._._.s.y.a.w.r.s.a.~ ` 8 X                         ",
"                                          . = S ].>X>X>X-X`.s.s.s.i.i.u.t._.t.r.i.d.p.y.a ` =                           ",
"                                          4 a.`.-X-X-Xs.s.s.s.r.2.6.r.`.s.s.i.s.s.s.i.t.a _ +                           ",
"                .     . .             . : 2.i.p.y.s.s.s._.u.[ u.>X>X-X=Xa.i.i.s.d.s.s.r.~ ` $                           ",
"                ; 2 $ . .         .   X g $.y.i.s.d.d.d.u.( `.`.=X=X=X_.i.i.i.i.i.i.i.w.a ] 4                           ",
"            . 1 +X8X[.l.8       O O X > _  .u._._.s.u.r.X.8.2.G._.a.i.i.d.G.i.i.i.*X_.w.a ] i                           ",
"              N.3X1XXXm.b.'.+X+X+X+X'.L.D.e.%.6.r.2.).5XwX6XoXo.s.y.i.i.y.i.i.i.d.d.t. .a [ ( =                         ",
"            2 XXXX<XoXqXuXeXeXqX0X9X9X6X<X<X;XoX'.qXwX7X1X,X{.o.G.a.i.s.s.y.i.d.d.y.w.] ~ { | r   X                     ",
"            F XX3XwXtXrXeXeXeXwX9X}.S.9.b.<X,X3X6X8X3X1XQ.Q.R.,.u.a.s.s.y.s.d.d.t.w. .] ^ ~ #.%.4                       ",
"            8.S.0XtXtXrXeXrX{.8...m h j b.,X,X,X<X2X,XXXQ.Q.T.B.6.G.d.p.i.t.t.w.q.] ` ] ) a { 2.N X                     ",
"          X 3.9XwXtXrXrX+X4.@.@.e e ^ ,.;X;X,X3X3X,XXX,XQ.,XR.C.X.t.t.w.w.q.| | ' ' ' / [ a ( $.2.6   .                 ",
"      .   d <X9X0XwXrX9Xk @.^ j j e 9.,X;X;X<X<X,XR.<X1X,X<XR.B...$.q.| | ' ' ' ' ' / ' [ [ a } 2.l X                   ",
"      . 1 }.4X5X0XwXwX6XI.e e e ^ U.;X;X;X<X3X<X,X1X3X<X<X1XU.V.X.` ' ' ' ] ] ] { ' ` ` ) [ a 2.w.2.<                   ",
"    . . z.9X<X4X4X}.;.{.,XR.@.A.E.Q.Q.,X,X1X1X,X1X2X1X<X3X1XP.Z.8.0 { [ ` ' ' ` ` ' ` ' ) ) a 2.w.2.i                   ",
"      1 +X#X~.<X:X7.h ;X,XW.<X<XQ.,XQ.,XR.3XQ.,XN.5.}.}.2X;XF.S.b.+.^ ) ` ` ' ' ` ` ` ' ) [ ^ ( 2.2.` O                 ",
"    X F @X&Xz [.I.S.@.XXXX,X<X}.,XW.Q.{.OX8XXX'.E J u ].1X{.F.B.m.;.9.j ` o.` ` ` ) ' ' [  .( (  .| o.=                 ",
"  . $ 5.fXg.A '.P.W.,X,X;X<X;.0 {.,X<XF.0X+X.XaXI R K z <XL.n.k.S.=.S.7.e ' ` { ' ) [ |  .[ ] [ [ | 2.5 X               ",
"    3 .XfXW |.}.U.;X1X<X:X%.h 0 ,X1X4XD.0X'.fXyXT $X%XJ N.C.v.Z.J.=.C.m.@.0 #.) ) | | [  .[ | [ }  .2.r                 ",
"  X b iXpXI &X}.W.;X2X4XD.f ^ h <X1X<X5X4X#XjX@XR yXgXP z v.V.A.S.+.b.@.w 0 9 ) { [ [ ] ] / {  . . .#.6                 ",
"  X z.dX&XI iXXX;X:X2X3X4XV.e @.3X<X1X<X).dXhXg.L yXgXL u 8.A.V.Z.;.x.@.q q q 9 a } [ ) ~ a {  .}  .[ 4 .               ",
". O '.fXiXU %XXX2X7X3X2X:X2X{.Y.<X,X,X,X'.hXjX/.L $XsXL P N.S.V.m.v.x.v.q q q q f 0 g p ~ ` #.| [ { ) =                 ",
"  = [.qXpXU E +X6X6X<X1X2X2X1X;X,X;XQ.<X'.jXjX@XL Y ! Q I ).m.m.m.m.n.n.=.0 q q f j 6 l ` ` #.|  .[ g X .               ",
"  1 XXXXL.I H 9X0X6X1X1X1X;X{.;X<X1XW.,X'.hXjXiXY Q Y I z N.v.n.n.m.n.n.v.e q q 0 q 0 X._ } { { ] ` r X                 ",
"  : V.T.8X9X9X8X9X6X;X;X;X1X<X<X4X2X,X,Xm.#XaXuXH H 5.M.V.x.n.n.n.n.C.Z.n.;.w q q q 0 c.m _ [ ] { g +   .               ",
". X n N m.,X8X8X6X6X<X<X<X2X4X2X:X<XQ.Q.<XOXXXQ.OXOXT.L.3.<.n.m.n.n.m.n.v.v.m e q q n m.m.f } ( f =   .                 ",
"    & F 3.=.c.[.XX6X3X2XD.2X2X2X,X,XQ.Q.XXQ.E.E.E.J.-.*.4.n.k.v.n.v.v.v.m.n.n.m.V.V.m.n.n.n.0 i <                       ",
"  .   # n Z.F i N 8.D.Y.}.[.}.}.Y.J.Z.J.m.c.l.Z z.s c.B.v.m.m.O.n.m.C.F.A.A.C.Z.V.V.n.C.A.n.B +                         ",
"      X X 7 z.l.y Z x x c Z A A c c x c D c D x C l.v.B.C.S.7.,.A.I.;XY.F.S.V.V.v.B.H.E.H.B.c.5                         ",
"      .     = n N.3.x f.|.|. X X Xh.h.g.f.E y l.v.v.S.S.m.;.V.{.,X1X2X:X;XV.7.Z.;.T.,XXXH.B.m.F X                       ",
"              , l.7.m.F D f.(. X X|.(.f.D j.m.n.C.A.M.=.m I.<X1XW.1X2X2X{.F.;.;.Y.XXv.h H.C.V.m.,                       ",
"              1 OXE.7.;.v.c.=.C F F >.c.n.n.n.x.4.B n O.D.<X:X,X;X;X:X2XR.F.m S.Y.X.k h x.k.n.n.s                       ",
"              = Y.Q.1X{.V.;.O.C *.M V n V v n V &.:.*.m <X3XP...7.:X2X1XP.S.h [.m @.m f ;.v.n.v.N                       ",
"              X L.,XP.@.;.K.K.7.V C j.j.j.j.&.j.:.:.*.K.<X<Xe.;.@.<X2XW.P.b.c.V.X.X.j q O.v.n.C.C                       ",
"                N.b.@.6.h A.H.n.O.:.c.x.j.:.&.j.j.:.V OXb.k [.,.9.1X1XW.A.,.I.{.m X.f 9 *.v.n.B.N                       ",
"                7 8.9.@.h C.A.C.B.x.M =.l.j.&.j.:.:.w ;.b...XX2X2X;X;XG.F.@.{.{.F.0 0 9 m n.v.v.n                       ",
"                $ 5.7.X.q A.A.K.A.V.b.s 5 v V :.&.V B b.8.X.4X<X:X1XW.F.n.m B.B.C.7.q M n.n.v.m.s                       ",
"                  s @.m 7.A.F.A.A.F.c.> . . v n v 8 +.4.;.6.:X2X2X;XP.L.n B n.n.B.m.v.v.v.v.n.m.7                       ",
"                  7 [.L.P.K.H.J.A.J.8 o .   : C -.s M N l L.<X<X;XU.F.3.3 8 c.n.n.v.v.B.n.n.n.x.$                       ",
"                  O N.XXP.H.C.C.A.l.O         2 s N f f +.4X<X1XU.P.D.5 . # 4.n.n.n.m.B.x.n.n.V                         ",
"                  o G J.c.J.x.J.m.2         . o   N.I.[.3X2X:XP.P.D.t X .   7 l.M.c.m.n.m.n.l.: X                       ",
"                . o y &XG l.#XC 5   .           $ 0.5X}.<X{.K.J.S.i X         ^.C ~.l.z.N.3.7   .                       ",
"                    @ & X : 3 .               o 7 ^.G aXN.N..Xl.7 X         . : . b t 2 z.& X . .                       ",
"                                          .         o !.y 3 Z X     .           o           .                           ",
"                                                      . o   o                                                           ",
"&                                                                                                                     & "
};
