/* XPM */
static char *d9226cc13df044c1b3142d0d8c8bd491qOMVjijKAsxxuOHM[] = {
/* columns rows colors chars-per-pixel */
"60 60 218 2 ",
"   c #69581A",
".  c #6F4623",
"X  c #734A26",
"o  c #744C2A",
"O  c #7B4F2D",
"+  c #765326",
"@  c #755B21",
"#  c #77552B",
"$  c #7B522C",
"%  c #7B5331",
"&  c #7B5635",
"*  c #796929",
"=  c #7C7427",
"-  c #7D7239",
";  c #804F2E",
":  c #805531",
">  c #835A34",
",  c #855D3A",
"<  c #895F39",
"1  c #84662C",
"2  c #877C29",
"3  c #8A6237",
"4  c #856934",
"5  c #8C623A",
"6  c #92683C",
"7  c #877333",
"8  c #876244",
"9  c #956A43",
"0  c #9A6F49",
"q  c #9D724C",
"w  c #9E784E",
"e  c #8B725B",
"r  c #967457",
"t  c #A27751",
"y  c #A57B54",
"u  c #A97E56",
"i  c #A67A59",
"p  c #AA7E5A",
"a  c #8F7963",
"s  c #7D831C",
"d  c #848919",
"f  c #858D1D",
"g  c #8A8D1D",
"h  c #8C931D",
"j  c #91971F",
"k  c #838521",
"l  c #868B23",
"z  c #8A8E24",
"x  c #88872C",
"c  c #8B8E2B",
"v  c #908F29",
"b  c #8D9324",
"n  c #8F9822",
"m  c #8E932B",
"M  c #8F9A28",
"N  c #919425",
"B  c #949B25",
"V  c #999E25",
"C  c #92932A",
"Z  c #959C2B",
"A  c #999E2B",
"S  c #8A8A34",
"D  c #948C35",
"F  c #8E9431",
"G  c #8B9038",
"H  c #929432",
"J  c #959C31",
"K  c #9A9C33",
"L  c #979738",
"P  c #9D9C39",
"I  c #A3953B",
"U  c #96A123",
"Y  c #9BA426",
"T  c #9DA827",
"R  c #96A12B",
"E  c #9CA52B",
"W  c #9DAA2C",
"Q  c #9CA432",
"!  c #9EA933",
"~  c #9CA23B",
"^  c #9CA638",
"/  c #A0A52C",
"(  c #A1AC2C",
")  c #A5B22D",
"_  c #A8B82A",
"`  c #A9BA2D",
"'  c #A1A633",
"]  c #A2AC33",
"[  c #A4AC3B",
"{  c #A6AA3C",
"}  c #B6A73C",
"|  c #A6B334",
" . c #AAB634",
".. c #AAB933",
"X. c #A6B23A",
"o. c #AAB53B",
"O. c #ACB93A",
"+. c #B2BA37",
"@. c #B3BD3C",
"#. c #BAC736",
"$. c #B6C23D",
"%. c #BAC53C",
"&. c #C1CE2F",
"*. c #C1CE32",
"=. c #C2C639",
"-. c #C4CF3C",
";. c #C9D439",
":. c #D1DD3D",
">. c #8E8F4C",
",. c #A99045",
"<. c #AA8454",
"1. c #AE825B",
"2. c #B0845B",
"3. c #9DA548",
"4. c #A7AB43",
"5. c #A5AB4A",
"6. c #B5A348",
"7. c #ACB442",
"8. c #A8B347",
"9. c #AAB34C",
"0. c #B3BC43",
"q. c #B6B549",
"w. c #B4BB4B",
"e. c #A4AD52",
"r. c #ACB55D",
"t. c #B6BC52",
"y. c #B5BB59",
"u. c #9D866C",
"i. c #959864",
"p. c #AE8162",
"a. c #A38D77",
"s. c #9FA462",
"d. c #A4AA66",
"f. c #ABB369",
"g. c #A8AC76",
"h. c #B6BC77",
"j. c #C5BC4B",
"k. c #B7C046",
"l. c #BBC544",
"z. c #BDC846",
"x. c #BCC54A",
"c. c #BEC651",
"v. c #BDC367",
"b. c #C6C646",
"n. c #C2CC44",
"m. c #C3CC4B",
"M. c #CACF4C",
"N. c #C5D244",
"B. c #CAD444",
"V. c #CFDB44",
"C. c #C6D24C",
"Z. c #CCD44C",
"A. c #CEDB4B",
"S. c #D1DC44",
"D. c #D7D549",
"F. c #D1DB4B",
"G. c #DBDD4B",
"H. c #C3CB53",
"J. c #C9CE5B",
"K. c #CCD453",
"L. c #C8D157",
"P. c #CEDA51",
"I. c #D1D753",
"U. c #D2DA52",
"Y. c #D3E143",
"T. c #C5CD63",
"R. c #D0D46A",
"E. c #C2C678",
"W. c #A69585",
"Q. c #AFAB8B",
"!. c #B4B785",
"~. c #B7B987",
"^. c #B6B98B",
"/. c #B5B592",
"(. c #BABA98",
"). c #C2B8A9",
"_. c #BBC085",
"`. c #BEC193",
"'. c #C1C687",
"]. c #C8CB94",
"[. c #CFD492",
"{. c #CDD297",
"}. c #CBCEA4",
"|. c #C8C9AB",
" X c #CED1A5",
".X c #D2D6A7",
"XX c #D6D9AD",
"oX c #CECCB3",
"OX c #D2D4B2",
"+X c #D5D7B5",
"@X c #D9DCB5",
"#X c #DBDCBB",
"$X c #DFE2BB",
"%X c #D8D9C3",
"&X c #E1DAD6",
"*X c #DFE0C3",
"=X c #DEE0CB",
"-X c #E1E2C5",
";X c #E6E8CD",
":X c #ECEDD4",
">X c #E7E5D8",
",X c #EDEDD9",
"<X c #F2F2DC",
"1X c #EDEDE2",
"2X c #EEE8E5",
"3X c #F0EEE4",
"4X c #F1EFED",
"5X c #EFF0E4",
"6X c #F3F3E4",
"7X c #F6F5EC",
"8X c #F8F8EA",
"9X c #FBFBEC",
"0X c #F6F3F4",
"qX c #F7F7F4",
"wX c #FCFCF4",
"eX c #FEFEFA",
"rX c #FEFDFD",
"tX c white",
/* pixels */
"tXtXtXtXtXtXtXtXtXtXtXtXtXtXtXtX0XwXwX1X:X,X:X:X<XwXeXtXtXwXtXwX8X8X9XwXeXeXeXtXeXrXrXrXrXtXtXtXtXtXtXtXtXtXtXtXtXtXtXtX",
"tXtXtXtXtXtXtXtXtXtXtXtXtXeXeXeX6X.XE.T.J.K.J.J.T.E. X:X%XoX~.g.s.s.d.d.h.'.XX<XqXrXrXrXrXeXrXtXtXtXtXtXtXtXtXtXtXtXtXtX",
"tXtXtXtXtXtXtXtXtXtXtXtXrXrXeX*XE.I.n.O. .o.l.S.:.:.F.m.J Z Z Z Y R V V Z ~ 5.e.h.OX9XeXrXrXtXtXtXtXtXtXtXtXtXtXtXtXtXtX",
"tXtXtXtXtXtXtXtXtXtXtXtXeXeXoXH.%.L c C N j v z o.I.S.S.P.{ N B N N B V Q R B T o.o.r.XXwXrXrXeXrXtXtXtXtXtXtXtXtXtXtXtX",
"tXtXtXtXtXtXtXtXtXtXtXtXwXXXJ.' v j N C v v C C C B b.:.F.F.' N C C C N N Y E E U o...8.!.,XqXqXtXtXtXtXtXtXtXtXtXtXtXtX",
"tXtXtXtXtXtXtXtXtXtXtXtX-XT.V C C C N N N C N C C C N I.F.S.Z.B N C C C C N B E E R ....o.f.<XqXtXtXtXtXtXtXtXtXtXtXtXtX",
"tXtXtXtXtXtXeXwXeXeXwX3XJ.P C N C v C N N v K 4.4.Q l 7.F.S.S.z.z C C N N N C C Q R W O.` ..h.wXrXrXrXtXtXtXtXtXtXtXtXtX",
"tXtXtXtXtXtXtXtXeXeX9X].t.v C N N N C N j @.D.I.F.I.z.Z D.S.S.I.Z C c N C C m M Z T B O.` ` 9.|.wXeXtXtXrXeXrXtXtXtXtXtX",
"tXtXtXtXtXtXrXrXrXrX6XT.C C N N N N C N ] F..._ #.V.F.B.A.V.S.U.X.b l f l l b n h T M | ..` $.3.6XtXtXtXeXtXtXtXtXtXtXtX",
"tXtXtXtXtXtXrXrXtXrX;X9.m C C C C C N h x.k.! 4.| @.A.A.S.:.S.F.7.M ! X...| R n l ~ R ! ..` ` X.%X0XrXtXtXtXtXtXtXtXtXtX",
"tXtXtXtXrXtXtXtXtXwX.X3.Z A R b l b C b L.] b x X.( P.A.S.S.S.F.$.O.O.....` ....! M R R ..) ....(.9XrX0XwXtXtXtXtXtXtXtX",
"tXtXtXtXrXtXeXeX1X`.X. .O.....| O.' F g m.X.f l | W F.F.S.F.S.F.! | ! ) W ......$.! b W $.....` d.#X%X%X*X5XwXtXtXtXrXtX",
"tXtXtXtXtXtXeX:Xd...` ~ b l z g l m ~ ^ [ c.T | | $.F.S.S.D.F.n.W z.P.P.z.X.X...$.` s $...| ] k.B.P.K.K.K.m.v.XX0XtX0XqX",
"tXtXtXtXtXtX6Xs.O.X.b h M b C c C b n l Q 7.C.$.%.A.:.:.S.S.C.V c.k.W W z.P.k.) _ ` ..| ) l.P.A.S.S.S.V.S.F.U.K.E.:XtXtX",
"tXtXtXtXtXwX|.o._ l S f b C C C N b b C c Z l.I.Y.Y.S.F.F.n.( X.c.X.O...| C.P.) ` ....| z.A.A.S.S.G.F.F.D.A.A.:.V.E.qXeX",
"tXtXtXtXtXwXe.` _ E ~ P m C C N N V B C C l V m.P.P.I.H.O.R X.O.X.O.M n W $.A...$.` ..W A.S.S.F.m.X.E V B Y +.C.S.L.+XeX",
"tXtXtXtXtX6X[ ..W Z z s ^ z C N Z Y E R Z b g b Z R V R R ! ..+.$.! z c m ( A.....` ) z.A.V.S.n.Q w.q.A E E / A M.A.v.qX",
"tXtXtXtXeX8X^ ..W Q l z A J m N R ( Y / E b m x E / E E E T ` ) P.! l x c O.A.T o.` ) Z.V.S.F.Z.L l C t.H A E / B A.H.1X",
"tXeXtXqX:Xh.R O.O.n Z F ' R N N R W E E E Q b l m E W ' Q B O...$.z.| ! 0.P.7.......T A.F.S.F.{ N C { C t.g A / E 0.m.1X",
"tXeXtX<Xr.O.J X... .T | 7.b C N E Y E Y E E R l k E Y E ! R W O...! x.l.k.! ....` ` | z.F.S.S.o.b A L 4.t.H B / / ' m.1X",
"tXtXwXh._ W R n E ......R b b A E / E E Y W Q m s Q Y E E W Z ! o.....) ` ..` ` ....C Q P.F.S.Z.m m Q C L.h N / / E v.8X",
"eXqX%X9.` A Q ! R B Z b N Z R ' E / W Y E / Q Z = E / E E Y ! M R  .....` ` ..o.X.n C b 7.F.F.F.m.( ' H.w.N B / / [ h.wX",
"tXwX_.O.| R E E E ' ~ ^ E Y T R E E E E E E E B s Q Y E E Y W E A b R ) ) ..X.Z s C N C b / m.I.F.S.U.w.c F A E ' 4.OXeX",
"tX7X8._ ] U E E E Y Y +.l.%.$.! V ' E E T Y E V s E ( E E E Y E E Q R h b l z b M j N N N N b A ' { N b N B Q E A e.<XeX",
"rX,XX...! R W Q R o.C.z.A.A.:.A.m.R E E E E Q m Z ! W E E W E W E A X.0.0.X.A R Q B N C C C C b C N b N B E ' Y 5.}.qXtX",
"tX%XX._ O.R E E 9.w.n ! T z.V.V.F.M.E E E E Z l Q T W R E R / Y ( L.0.o.Z.U.P.] Y / K N v N N N N N N A E E Y ~ ~.7XeXwX",
"tX=XX.` l.Z W R t.M l l ..$.A.V.F.F.0.E E Q s n E T W W E E / Y Z.| ]  .Q A.S.V.Y Q / / E A E V R E E E / R e.E.,XrXrXwX",
"qX5XX.` n.! Q R w.z P k ! z.A.Y.S.S.m.Z Q c ^ | M R E E W E ' X.C.E Z n ] Z.V.V.k.J E / / / E E W / Q R ' 9.~.<XeXeXeXeX",
"eXqXf.` N.$.E R 7.A l C T A.A.V.S.S.I.Z k F 7...O.M E E E W ~ o.P.R Z J ' A.V.A.K.Z E E W E E E T b d Q K m /.wXrXqXeXtX",
"eXeX}.7.#.A.~ R k.] | ] l.A.A.V.S.S.M.g C F b | O.^ R T E E / E F.C.o.0.C.A.Y.V.C.V E E E E Y E E Q M X.{ c g.wXrXtXtXtX",
"eXeX<Xe.$.F.Z.R X.L.$.B.:.:.F.D.D.V.m.h b b b Z  .O.Z R E E Q R l.A.A.A.C.Z.Y.V.z.Y E E E E E E Q Q M O.R F g.wXrXtXeXtX",
"eXtXtX#XX.-.F.Z. .m.F.F.S.S.S.:.S.S.o.N C b m l  .O.Z E b ' Y W V  .m.+.j z.F.U./ Q Y E E E Y W E E n O.n H /.0XtXrXeXtX",
"eXtXeX0X}.O.N.S.A.S.S.F.F.S.:.S.S.n.g N C C m l .. .B Q b Z / E / E E R V K.P.z.V Q E E E E E E T W R o.f m %XeXrXtXtXtX",
"tXwXeXtXqXOX9.L.A.S.S.S.S.S.S.F.H.J C C C C b M O.] R E Q N P K Q E E R x.A.C.U E W E E E W E / R Q Q ! F >.qXtXrXtXrXrX",
"rXeXwXrXrXqX:X].w.m.I.I.F.C.m.{ l { N g v h h O.X.h E E Q ' x } q.+.b.Z.K.k.V ( E W h W E Y E E ! n o.m >.#XrXrXtXtXtXtX",
"tXtXrXrXeXtXtX8X~.l h N B N l z N b ] [ ' ] O.W b Z E E Q C + + 1 7 x 2 b R E Q ' N V E / E E W Q R U m (.wXrXtXeXrXtXeX",
"tXtXtXtXtXtXrXtX/.N N N C C C z v v v v J H z z l E / / H @ $ $ ; ; $ + x V E I D l T W E ( E R M ~ S (.8XtXtXtXrXtXtXtX",
"tXtXtXtXtXtXtXeXoXH N C N N C z H C g h m C g d Z Q P D @ O ; 3 : $ $ + 2 d d * * K Q ~ E / Z m S i.%XqXtX0XtXtXtXtXtXtX",
"tXtXtXtXtXtXrXwX3X>.N N N N N N z v K ^ C b B ^ ~ D * @ O ; $ 3 3 3 5 3 2 D 4 5 1 R Q M c = - Q.#X7XrXrXeXrXtXtXtXtXtXtX",
"tXtXtXtXtXtXrXeXeXoXC b N N N C C k   1 c N l 7 @ + # $ O $ : 3 3 6 5 5 * 7 : * L V s l >.*X9XeXtXrXqXeXrXrXtXtXtXtXtXtX",
"tXtXtXtXtXtXtXtXtX8X/.S C C N N C C * # @ C * O $ O O O o & 5 5 5 5 3 5 > > 3 x ' / W ~ d.wXeXrXtXtXeXwXtXtXtXtXtXtXtXtX",
"tXtXtXtXtXtXeXeXrXeXwX|.G D C C C m >.a & * * O $ $ O ; $ 5 5 5 3 3 3 5 9 , 2 ' E / R ~  XtXrXwXwXtXtXeXtXeXtXtXtXtXtXtX",
"tXtXtXtXtXtXtXtXrXtXtXeX1XoXQ.!./.oX7X7XW.& % O $ $ $ : 5 5 o . : 5 3 6 5 @ P Y Y Q L ^.7XrXrXrXtXtXtXtXtXtXtXtXtXtXtXtX",
"tXtXtXtXtXtXtXtXtXtXtXtXrXtXeXeXtXtX0X0X4X).8 % $ : > 5 < o % o O + 3 5 6 4 3.P 3.g.-X8XtXtXrXrXtXtXtXtXtXtXtXtXtXtXtXtX",
"tXtXtXtXtXtXtXtXtXtXtXtX0XeXeXeX0XeXqXtXtXeX).< < 5 5 5 , o X , o X < q r Q.1X2X6XwXrXrXeXrXrXtXtXtXtXtXtXtXtXtXtXtXtXtX",
"tXtXtXtXtXtXtXtXtXtXtXtXeXtXtXtXtXeXtXtXqXqX&X, 5 5 5 5 & % o 5 , . : 1.q ).tXtXrXrXrXeXeXeXrXtXtXtXtXtXtXtXtXtXtXtXtXtX",
"tXtXtXtXtXtXtXtXtXtXtXtXeXtXtXtXeXtXtXeXtXqX>X, 0 6 5 5 % o & o . o O p y ).rXtXtXtXeXtXrXtXrXtXtXtXtXtXtXtXtXtXtXtXtXtX",
"tXtXtXtXtXtXtXtXtXtXtXtXtXeXtXtXtXtXtXwXeXtX2X< u 0 < 6 o % % o X X X y i ).0XeXrXrXrXrXtXrXtXrXtXtXtXtXtXtXtXtXtXtXtXtX",
"tXtXtXtXtXtXtXtXtXtXtXtXtXtXtXtXtXtXtXtXwXeX1X: p q q 5 > X o & . o O i p ).tXtXtXtXtXtXtXtXtXeXtXtXtXtXtXtXtXtXtXtXtXtX",
"tXtXtXtXtXtXtXtXtXtXtXtXtXtXtXtXtXeXtXtXeXtX0X> 2.t 0 0 3 X o , , . : p p Q.rXrXtXtXtXtXeXeXeXeXrXtXtXtXtXtXtXtXtXtXtXtX",
"tXtXtXtXtXtXtXtXtXtXtXtXtXtXtXtXtXtX0XtXeXrX4X4 p q 9 w 3 : X o X X 5 p p W.rXrXtXqXtXtXtXeXtXrXtXtXtXtXtXtXtXtXtXtXtXtX",
"tXtXtXtXtXtXtXtXtXtXtXtXtXtXtXtXtXtXtXtXtXrX0Xa 1.0 < u 6 3 : + X > t p p a.0XrXtXtXtXtXtXtXrXrXtXtXtXtXtXtXtXtXtXtXtXtX",
"tXtXtXtXtXtXtXtXtXtXtXtXtXtXtXtXtXrXrXtXeXrX0Xu.p t 3 u q 5 5 5 6 q p 2.p p.&XeX9XwXwXwXeXtXtXtXtXtXtXtXtXtXtXtXtXtXtXtX",
"tXtXtXtXtXtXtXtXtXtXtXtXtXtXtXtXtXtXtXrXrXrXrXa.u u 5 y 1.q 9 0 p p 2.p 2.p u.#X@X#X#X-X%X,X8XwXtXtXtXtXtXtXtXtXtXtXtXtX",
"tXtXtXtXtXtXtXtXtXtXtXtXeXeXeXeXtXtXrXrXrXqX7Xu.<.1.1.p.p p.2.1.u <.6.q.b.Z.F.S.G.I.A.A.B.m.w.E.+X6XwXtXrXtXtXtXtXtXtXtX",
"tXtXtXtXtXtXtXtXtXtXtXtXtXtXtXtXtXwXtXqXrXeXqXe y 1.<.<.,.,.} j.D.G.G.G.:.S.B.B.n.k.y.h.'.{.XXXX{.!.|.8X0XrXtXtXtXtXtXtX",
"tXtXtXtXtXtXtXtXtXtXtXtXeXwXwXwXwXeXeXeXeX9X|.4 I 6.j.b.I.G.G.S.S.S.;.-.*.%.0.'.@X:X8X8XwXeXeXeXtX0X4XwXeXeXtXtXtXtXtXtX",
"tXtXtXtXtXtXtXtXtX0X0X2X+XoXOXOX.X[.[.R.J.H.m.G.G.G.G.S.:.V.-.;.&.*.%.0.E.}.<XeXeXeXeXeXtXtXtXtXtXtXeXtXtXtXtXtXtXtXtXtX",
"tXtXtXtXtXtXtXtXtX0XtX0X7X;XOX'.v.w.@.=.-.-.-.;.*.&.&.*.#.$.%.w.h.}.-X<XeXeXwXtXtXtXtXtXtXtXeXtXeXeXwXeXtXtXtXtXtXtXtXtX",
"tXtXtXtXtXtXtXtXtXtXtXtXeXtXeXwX9X6X,X;X@XXX X{..X.X.X+X$X:X<X8XeXwXeXeXeXtXeXtXeXeXtXeXeXeXeXtXeXtXtXtXeXwXtXtXtXtXtXtX"
};
