/* XPM */
static char *_2c98a63b0d940e3ef83ab1a3905b524QRsOzlvAfaCb5gHd[] = {
/* columns rows colors chars-per-pixel */
"60 60 62 1 ",
"  c None",
". c #060606",
"X c #080706",
"o c #0A0A09",
"O c #110E0A",
"+ c #15110D",
"@ c #1C150E",
"# c #121212",
"$ c #1D1710",
"% c #1F1810",
"& c #231C13",
"* c #281F15",
"= c #2C2216",
"- c #2E241A",
"; c #312619",
": c #362A1B",
"> c #3B2D1D",
", c #3E301F",
"< c #362C20",
"1 c #373534",
"2 c #443522",
"3 c #473824",
"4 c #4B3A26",
"5 c #4E3D28",
"6 c #503E27",
"7 c #513F29",
"8 c #55422B",
"9 c #59462D",
"0 c #5D482F",
"q c #5D4930",
"w c #634D32",
"e c #675035",
"r c #6A5336",
"t c #6D5638",
"y c #70573A",
"u c #755B3C",
"i c #785E3E",
"p c #7B603F",
"a c #7A5F41",
"s c #7D6241",
"d c #826643",
"f c #866945",
"g c #886B46",
"h c #876A49",
"j c #8C6D49",
"k c #8F704A",
"l c #93734D",
"z c #98774F",
"x c #977750",
"c c #9C7A51",
"v c #A17E54",
"b c #A48156",
"n c #A68358",
"m c #A9855A",
"M c #AD885C",
"N c #B28C5E",
"B c #B58E60",
"V c #B79061",
"C c #BB9464",
"Z c #C09767",
"A c #C19768",
"S c #C19968",
/* pixels */
"                                                            ",
"                                                            ",
"                                                            ",
"                                                            ",
"                                                            ",
"                                                            ",
"                                       o                    ",
"                                                            ",
"                     o  o o  o     o                        ",
"                 o    o#o ooo o    o   o                    ",
"                      oo      o                             ",
"                    o  X   o       o                        ",
"              o      o    o;  o    o# o                     ",
"              # o    X o   5;        o                      ",
"              o o.   o  =$ -9       X  .                    ",
"              o   :>     @=8q         o                     ",
"              oO  ;0o      7u       +  o     #              ",
"            X   ;*+eO .    &u   o &-    o .X oo             ",
"          o  @   r;5w-;:    u   5>*   o &7   o              ",
"             ,,  8cg2wyr    d3 >e       29  +O  o           ",
"             O28; ub2  t o  de w0    .  8<1:   .            ",
"            Xo  88;cr  w=,  uf u9    >*5q-r:  @   o         ",
"        o    o$,9tyfc5 yyw  8lucq o 3sw7qgy  =2             ",
"                  wlccsxl   %fcM9 o w>  as&&22+             ",
"                   6udgbd    ubm> >=9  :j8>q& o.            ",
"               wy3    =zl    rMk  ;yr =ujtiu8*+    oo       ",
"               i2wp4 &&sc9   emq   wltjvcf;                 ",
"              >8 >d38tiiflw  tn:   0zlgge                   ",
"                 00     >icw ub    ev9    >wt               ",
"            o&2;9e       4lv3db   -cm>*$>uy>t>              ",
"             &:y0        &uvglm  >kNnbld9fe :2.     o       ",
"             XO           ,gbMn >cNu     9d                 ",
"        o                  8znn&jCx       et:3=+.           ",
"             o             ;jnNiVCw        9u3-o            ",
"                           &gMBCSh            o             ",
"                           @fMVCn                  oo       ",
"                           &dMCSh             o             ",
"                           *fMCAa               o           ",
"                           ;fNCAa                           ",
"                           >gNAAs                           ",
"                           2kBZZd                           ",
"                           3lNCZj                           ",
"                           3lNCCl                           ",
"                           4lNCCx                           ",
"                           4lVZZc                           ",
"                           7zBCSv                           ",
"                           7cNCSm                           ",
"                           9cNCSN                           ",
"                          +wcNCCB                           ",
"                          >tcNVVB5                          ",
"                          8pbMVVCh                          ",
"                       $28ulnMBBBBa,wa4                     ",
"                      &wsggfcmNNBBBmxsjs8-                  ",
"               @36538euuw7 .8ewsjdt8   8q7;oX               ",
"               -7                                           ",
"                                                            ",
"                                                            ",
"                                                            ",
"                                                            ",
"                                                            "
};
